<?xml version="1.0" standalone="no"?>
<!DOCTYPE svg PUBLIC "-//W3C//DTD SVG 20010904//EN"
 "http://www.w3.org/TR/2001/REC-SVG-20010904/DTD/svg10.dtd">
<svg version="1.0" xmlns="http://www.w3.org/2000/svg"
 width="769.000000pt" height="242.000000pt" viewBox="0 0 769.000000 242.000000"
 preserveAspectRatio="xMidYMid meet">

<g transform="translate(0.000000,242.000000) scale(0.100000,-0.100000)"
fill="#000000" stroke="none">
<path d="M2573 2281 c-3 -11 -10 -18 -16 -15 -22 7 -39 -13 -35 -42 3 -26 7
-29 41 -32 l37 -3 0 55 c0 55 -16 77 -27 37z m-3 -51 c0 -11 -7 -20 -15 -20
-15 0 -21 21 -8 33 12 13 23 7 23 -13z"/>
<path d="M2830 2290 c0 -5 7 -10 16 -10 8 0 12 5 9 10 -3 6 -10 10 -16 10 -5
0 -9 -4 -9 -10z"/>
<path d="M2870 2246 c0 -44 3 -56 16 -56 12 0 14 10 12 52 -4 74 -28 77 -28 4z"/>
<path d="M2920 2290 c0 -5 7 -10 16 -10 8 0 12 5 9 10 -3 6 -10 10 -16 10 -5
0 -9 -4 -9 -10z"/>
<path d="M3220 2290 c0 -5 7 -10 16 -10 8 0 12 5 9 10 -3 6 -10 10 -16 10 -5
0 -9 -4 -9 -10z"/>
<path d="M5253 2281 c-3 -11 -10 -18 -16 -15 -22 7 -39 -13 -35 -42 3 -26 7
-29 41 -32 l37 -3 0 55 c0 55 -16 77 -27 37z m-3 -51 c0 -11 -7 -20 -15 -20
-15 0 -21 21 -8 33 12 13 23 7 23 -13z"/>
<path d="M2202 2278 c-7 -7 -12 -24 -12 -38 0 -14 5 -31 12 -38 14 -14 68 -16
68 -2 0 6 -11 10 -24 10 -14 0 -25 7 -28 18 -8 28 2 42 28 42 13 0 24 5 24 10
0 14 -54 12 -68 -2z"/>
<path d="M2620 2276 c0 -8 5 -18 10 -21 6 -3 10 3 10 14 0 12 -4 21 -10 21 -5
0 -10 -6 -10 -14z"/>
<path d="M2762 2277 c-18 -21 4 -87 28 -87 11 0 20 5 20 10 0 6 -4 10 -10 10
-14 0 -12 38 2 42 9 3 8 9 -4 21 -20 20 -23 21 -36 4z"/>
<path d="M3152 2277 c-18 -21 4 -87 28 -87 11 0 20 5 20 10 0 6 -4 10 -10 10
-14 0 -12 38 2 42 9 3 8 9 -4 21 -20 20 -23 21 -36 4z"/>
<path d="M3610 2240 c0 -38 4 -50 15 -50 8 0 15 9 15 20 0 14 7 20 24 20 28 0
42 26 25 46 -6 8 -27 14 -45 14 l-34 0 0 -50z m58 18 c-6 -18 -28 -21 -28 -4
0 9 7 16 16 16 9 0 14 -5 12 -12z"/>
<path d="M2295 2261 c-4 -7 5 -11 22 -12 28 -1 28 -1 3 -8 -15 -4 -26 -15 -28
-29 -3 -19 1 -21 33 -20 35 1 36 2 33 37 -3 31 -7 36 -30 39 -14 2 -29 -2 -33
-7z m45 -45 c0 -11 -19 -15 -25 -6 -3 5 1 10 9 10 9 0 16 -2 16 -4z"/>
<path d="M2384 2255 c-7 -18 3 -35 22 -35 8 0 14 -5 14 -11 0 -6 -9 -8 -20 -4
-12 4 -20 2 -20 -5 0 -7 13 -10 33 -8 39 4 43 27 7 45 -24 12 -25 13 -2 13 12
0 22 5 22 10 0 16 -50 12 -56 -5z"/>
<path d="M2662 2234 c3 -37 5 -39 41 -42 l37 -3 0 41 c0 47 -23 52 -28 7 -2
-15 -7 -27 -12 -27 -5 0 -10 12 -12 27 -2 14 -9 28 -16 31 -10 3 -12 -6 -10
-34z"/>
<path d="M2830 2231 c0 -30 4 -41 16 -41 11 0 14 9 12 37 -4 52 -28 56 -28 4z"/>
<path d="M2920 2231 c0 -30 4 -41 16 -41 11 0 14 9 12 37 -4 52 -28 56 -28 4z"/>
<path d="M2974 2255 c-7 -18 3 -35 22 -35 8 0 14 -5 14 -11 0 -6 -9 -8 -20 -4
-12 4 -20 2 -20 -5 0 -7 13 -10 33 -8 39 4 43 27 7 45 -24 12 -25 13 -2 13 12
0 22 5 22 10 0 16 -50 12 -56 -5z"/>
<path d="M3055 2261 c-4 -7 5 -11 22 -12 28 -1 28 -1 3 -8 -15 -4 -26 -15 -28
-29 -3 -19 1 -21 33 -20 35 1 36 2 33 37 -3 31 -7 36 -30 39 -14 2 -29 -2 -33
-7z m45 -45 c0 -11 -19 -15 -25 -6 -3 5 1 10 9 10 9 0 16 -2 16 -4z"/>
<path d="M3220 2231 c0 -30 4 -41 16 -41 11 0 14 9 12 37 -4 52 -28 56 -28 4z"/>
<path d="M3271 2256 c-7 -8 -11 -25 -9 -38 2 -18 9 -23 32 -23 36 0 56 27 40
53 -14 22 -48 27 -63 8z m39 -26 c0 -11 -7 -20 -15 -20 -15 0 -21 21 -8 33 12
13 23 7 23 -13z"/>
<path d="M3360 2229 c0 -28 4 -39 15 -39 10 0 15 10 15 30 0 17 5 30 10 30 6
0 10 -13 10 -30 0 -20 5 -30 15 -30 10 0 15 10 15 29 0 34 -13 45 -52 47 -26
2 -28 -1 -28 -37z"/>
<path d="M3520 2255 c0 -8 5 -15 10 -15 6 0 10 7 10 15 0 8 -4 15 -10 15 -5 0
-10 -7 -10 -15z"/>
<path d="M3725 2261 c-4 -7 5 -11 22 -12 28 -1 28 -1 3 -8 -15 -4 -26 -15 -28
-29 -3 -19 1 -21 33 -20 35 1 36 2 33 37 -3 31 -7 36 -30 39 -14 2 -29 -2 -33
-7z m45 -45 c0 -11 -19 -15 -25 -6 -3 5 1 10 9 10 9 0 16 -2 16 -4z"/>
<path d="M3814 2255 c-7 -18 3 -35 22 -35 8 0 14 -5 14 -11 0 -6 -9 -8 -20 -4
-12 4 -20 2 -20 -5 0 -7 13 -10 33 -8 39 4 43 27 7 45 -24 12 -25 13 -2 13 12
0 22 5 22 10 0 16 -50 12 -56 -5z"/>
<path d="M3894 2255 c-7 -18 3 -35 22 -35 8 0 14 -5 14 -11 0 -6 -9 -8 -20 -4
-12 4 -20 2 -20 -5 0 -7 13 -10 33 -8 39 4 43 27 7 45 -24 12 -25 13 -2 13 12
0 22 5 22 10 0 16 -50 12 -56 -5z"/>
<path d="M3990 2256 c-6 -8 -10 -25 -8 -38 2 -18 10 -24 36 -26 19 -2 32 1 32
8 0 7 -6 10 -13 7 -8 -3 -20 -1 -28 4 -10 6 -4 9 19 9 33 0 42 16 20 38 -16
16 -43 15 -58 -2z m37 -12 c-3 -3 -12 -4 -19 -1 -8 3 -5 6 6 6 11 1 17 -2 13
-5z"/>
<path d="M4070 2228 c0 -27 4 -38 15 -38 9 0 15 9 15 25 0 14 7 28 15 31 25
10 17 21 -15 21 -28 0 -30 -3 -30 -39z"/>
<path d="M4192 2234 c3 -37 5 -39 41 -42 l37 -3 0 41 c0 47 -23 52 -28 7 -2
-15 -7 -27 -12 -27 -5 0 -10 12 -12 27 -2 14 -9 28 -16 31 -10 3 -12 -6 -10
-34z"/>
<path d="M4290 2229 c0 -28 4 -39 15 -39 10 0 15 10 15 30 0 17 5 30 10 30 6
0 10 -13 10 -30 0 -20 5 -30 15 -30 10 0 15 10 15 29 0 34 -13 45 -52 47 -26
2 -28 -1 -28 -37z"/>
<path d="M4400 2256 c-6 -8 -10 -25 -8 -38 2 -18 10 -24 36 -26 19 -2 32 1 32
8 0 7 -6 10 -13 7 -8 -3 -20 -1 -28 4 -10 6 -4 9 19 9 33 0 42 16 20 38 -16
16 -43 15 -58 -2z m37 -12 c-3 -3 -12 -4 -19 -1 -8 3 -5 6 6 6 11 1 17 -2 13
-5z"/>
<path d="M4540 2256 c-20 -26 -8 -61 23 -64 31 -4 37 13 7 21 -11 3 -20 10
-20 17 0 7 9 14 20 17 11 3 20 9 20 14 0 14 -36 10 -50 -5z"/>
<path d="M4631 2256 c-7 -8 -11 -25 -9 -38 2 -18 9 -23 32 -23 36 0 56 27 40
53 -14 22 -48 27 -63 8z m39 -26 c0 -11 -7 -20 -15 -20 -15 0 -21 21 -8 33 12
13 23 7 23 -13z"/>
<path d="M4710 2228 c0 -27 4 -38 15 -38 10 0 15 10 15 30 0 17 5 30 10 30 6
0 10 -13 10 -30 0 -20 5 -30 15 -30 10 0 15 10 15 30 0 17 5 30 10 30 6 0 10
-13 10 -30 0 -16 5 -30 11 -30 6 0 9 16 7 37 l-3 37 -57 1 -58 1 0 -38z"/>
<path d="M4860 2228 c0 -27 4 -38 15 -38 10 0 15 10 15 30 0 17 5 30 10 30 6
0 10 -13 10 -30 0 -20 5 -30 15 -30 10 0 15 10 15 30 0 17 5 30 10 30 6 0 10
-13 10 -30 0 -16 5 -30 11 -30 6 0 9 16 7 37 l-3 37 -57 1 -58 1 0 -38z"/>
<path d="M5005 2261 c-4 -7 5 -11 22 -12 28 -1 28 -1 3 -8 -15 -4 -26 -15 -28
-29 -3 -19 1 -21 33 -20 35 1 36 2 33 37 -3 31 -7 36 -30 39 -14 2 -29 -2 -33
-7z m45 -45 c0 -11 -19 -15 -25 -6 -3 5 1 10 9 10 9 0 16 -2 16 -4z"/>
<path d="M5100 2229 c0 -28 4 -39 15 -39 10 0 15 10 15 30 0 17 5 30 10 30 6
0 10 -13 10 -30 0 -20 5 -30 15 -30 10 0 15 10 15 29 0 34 -13 45 -52 47 -26
2 -28 -1 -28 -37z"/>
<path d="M5310 2256 c-6 -8 -10 -25 -8 -38 2 -18 10 -24 36 -26 19 -2 32 1 32
8 0 7 -6 10 -13 7 -8 -3 -20 -1 -28 4 -10 6 -4 9 19 9 33 0 42 16 20 38 -16
16 -43 15 -58 -2z m37 -12 c-3 -3 -12 -4 -19 -1 -8 3 -5 6 6 6 11 1 17 -2 13
-5z"/>
<path d="M3520 2205 c0 -8 5 -15 10 -15 6 0 10 7 10 15 0 8 -4 15 -10 15 -5 0
-10 -7 -10 -15z"/>
<path d="M3655 1960 c10 -11 20 -20 23 -20 3 0 -3 9 -13 20 -10 11 -20 20 -23
20 -3 0 3 -9 13 -20z"/>
<path d="M3659 1853 c-13 -16 -12 -17 4 -4 16 13 21 21 13 21 -2 0 -10 -8 -17
-17z"/>
<path d="M3818 1573 c7 -3 16 -2 19 1 4 3 -2 6 -13 5 -11 0 -14 -3 -6 -6z"/>
<path d="M3388 1563 c7 -3 16 -2 19 1 4 3 -2 6 -13 5 -11 0 -14 -3 -6 -6z"/>
<path d="M3863 1563 c9 -2 23 -2 30 0 6 3 -1 5 -18 5 -16 0 -22 -2 -12 -5z"/>
<path d="M3295 1550 c-27 -7 -27 -8 -5 -8 14 0 39 4 55 8 27 7 27 8 5 8 -14 0
-38 -4 -55 -8z"/>
<path d="M3596 1552 c-3 -5 1 -9 9 -9 8 0 12 4 9 9 -3 4 -7 8 -9 8 -2 0 -6 -4
-9 -8z"/>
<path d="M3923 1553 c9 -2 23 -2 30 0 6 3 -1 5 -18 5 -16 0 -22 -2 -12 -5z"/>
<path d="M3995 1540 c17 -4 41 -8 55 -8 22 0 22 1 -5 8 -16 4 -41 8 -55 8 -22
0 -22 -1 5 -8z"/>
<path d="M3140 1522 c-41 -8 -70 -17 -65 -19 6 -2 51 5 100 16 50 10 79 19 65
19 -14 0 -59 -7 -100 -16z"/>
<path d="M4088 1523 c6 -2 18 -2 25 0 6 3 1 5 -13 5 -14 0 -19 -2 -12 -5z"/>
<path d="M4185 1504 c33 -7 67 -13 75 -12 23 1 -82 26 -110 26 -14 0 2 -6 35
-14z"/>
<path d="M2955 1480 c-38 -10 -63 -18 -55 -18 8 -1 49 7 90 17 41 11 66 19 55
19 -11 0 -51 -8 -90 -18z"/>
<path d="M4325 1475 c28 -7 59 -13 70 -13 11 0 -2 6 -30 13 -27 7 -59 13 -70
13 -11 0 3 -6 30 -13z"/>
<path d="M2745 1432 c-55 -14 -95 -27 -90 -28 6 -2 60 10 120 25 61 16 101 29
90 29 -11 0 -65 -12 -120 -26z"/>
<path d="M4440 1450 c14 -4 34 -8 45 -8 16 0 15 2 -5 8 -14 4 -34 8 -45 8 -16
0 -15 -2 5 -8z"/>
<path d="M4655 1399 c83 -21 154 -37 160 -35 11 3 -278 76 -297 75 -7 0 55
-18 137 -40z"/>
<path d="M2575 1385 c-39 -14 -40 -14 -5 -8 41 7 82 22 60 22 -8 0 -33 -7 -55
-14z"/>
<path d="M2470 1355 c-19 -7 -28 -13 -20 -13 8 0 31 6 50 13 19 7 28 13 20 13
-8 0 -31 -6 -50 -13z"/>
<path d="M3235 1175 l-168 -195 -743 0 c-409 0 -744 3 -744 6 0 3 78 43 173
89 94 47 168 85 162 85 -5 0 -89 -40 -185 -88 l-175 -87 -740 -5 -740 -5 -3
-445 c-1 -245 0 -455 3 -467 l5 -23 3773 0 c2921 0 3776 3 3785 12 9 9 12 126
12 464 0 403 -2 453 -16 458 -9 3 -405 6 -880 6 l-864 0 -78 39 c-145 72 -653
263 -696 260 -6 0 84 -33 199 -73 223 -77 397 -146 492 -195 l58 -30 -857 -1
-857 0 -167 195 c-91 107 -169 195 -171 195 -7 0 4 -14 171 -208 81 -95 146
-175 144 -178 -3 -2 -239 -3 -525 -2 l-520 3 163 189 c90 104 164 191 164 193
0 10 -22 -15 -175 -192z m-1715 -209 c0 -2 -30 -23 -67 -46 -85 -53 -272 -195
-338 -256 -61 -57 -32 -38 50 32 72 61 225 174 316 232 l65 42 752 0 c414 0
752 -4 752 -8 0 -16 -23 -30 -38 -25 -10 5 -13 2 -8 -6 5 -7 -1 -22 -14 -36
-18 -19 -20 -27 -11 -44 12 -22 71 -31 71 -10 0 6 -6 9 -13 6 -8 -3 -20 -1
-28 4 -10 6 -4 9 19 9 35 0 41 14 15 42 -15 17 -15 20 7 43 l23 25 538 0 538
0 27 -35 c15 -20 29 -33 32 -30 3 3 -7 19 -23 35 l-29 30 870 0 870 0 114 -66
c119 -69 297 -185 363 -237 21 -16 40 -27 42 -25 11 10 -335 238 -470 311 -28
15 34 16 830 14 l860 -2 0 -455 0 -455 -3775 0 -3775 0 -3 458 -2 457 720 0
c396 0 720 -2 720 -4z m1507 -82 c-3 -3 -12 -4 -19 -1 -8 3 -5 6 6 6 11 1 17
-2 13 -5z"/>
<path d="M3413 921 c-3 -11 -10 -18 -16 -15 -22 7 -39 -13 -35 -42 3 -26 7
-29 41 -32 l37 -3 0 55 c0 55 -16 77 -27 37z m-3 -51 c0 -11 -7 -20 -15 -20
-15 0 -21 21 -8 33 12 13 23 7 23 -13z"/>
<path d="M3690 930 c0 -5 7 -10 16 -10 8 0 12 5 9 10 -3 6 -10 10 -16 10 -5 0
-9 -4 -9 -10z"/>
<path d="M4000 930 c0 -5 7 -10 16 -10 8 0 12 5 9 10 -3 6 -10 10 -16 10 -5 0
-9 -4 -9 -10z"/>
<path d="M4423 921 c-3 -11 -10 -18 -16 -15 -22 7 -39 -13 -35 -42 3 -26 7
-29 41 -32 l37 -3 0 55 c0 55 -16 77 -27 37z m-3 -51 c0 -11 -7 -20 -15 -20
-15 0 -21 21 -8 33 12 13 23 7 23 -13z"/>
<path d="M2634 915 c-7 -18 12 -45 32 -45 8 0 14 -5 14 -11 0 -7 -10 -9 -25
-7 -17 4 -25 1 -25 -9 0 -10 10 -13 38 -11 32 3 37 6 37 28 0 17 -6 26 -20 28
-33 6 -42 22 -12 22 15 0 27 5 27 10 0 16 -60 12 -66 -5z"/>
<path d="M2911 916 c-9 -11 -8 -24 3 -56 l14 -41 -71 -84 c-40 -46 -75 -84
-79 -84 -5 -1 -8 11 -9 27 -1 19 -6 11 -20 -33 -10 -32 -16 -61 -14 -63 4 -5
95 48 95 55 0 3 -12 2 -27 -2 l-28 -7 20 24 c12 13 52 59 91 103 81 92 92 107
70 99 -11 -4 -16 0 -16 14 0 11 6 22 12 24 9 3 8 9 -4 21 -20 21 -22 21 -37 3z"/>
<path d="M3600 880 l0 -50 40 0 c22 0 40 5 40 10 0 6 -11 10 -25 10 -22 0 -25
4 -25 40 0 29 -4 40 -15 40 -11 0 -15 -12 -15 -50z"/>
<path d="M4620 881 c0 -39 4 -51 15 -51 8 0 15 9 15 20 0 11 4 20 9 20 5 0 13
-9 16 -20 3 -11 13 -20 22 -20 11 0 13 5 8 18 -5 9 -8 31 -9 47 -1 27 -4 30
-38 33 l-38 3 0 -50z m50 19 c0 -5 -4 -10 -10 -10 -5 0 -10 5 -10 10 0 6 5 10
10 10 6 0 10 -4 10 -10z"/>
<path d="M2730 904 c0 -6 5 -25 11 -43 9 -24 8 -35 -2 -47 -12 -14 -11 -16 6
-13 23 5 58 70 53 96 -3 14 -7 12 -21 -12 -9 -16 -16 -25 -17 -19 0 14 -29 52
-30 38z"/>
<path d="M2834 895 c-7 -18 3 -35 22 -35 8 0 14 -5 14 -11 0 -6 -9 -8 -20 -4
-12 4 -20 2 -20 -5 0 -7 13 -10 33 -8 39 4 43 27 7 45 -24 12 -25 13 -2 13 12
0 22 5 22 10 0 16 -50 12 -56 -5z"/>
<path d="M3070 868 c0 -27 4 -38 15 -38 10 0 15 10 15 30 0 17 5 30 10 30 6 0
10 -13 10 -30 0 -20 5 -30 15 -30 10 0 15 10 15 30 0 17 5 30 10 30 6 0 10
-13 10 -30 0 -16 5 -30 11 -30 6 0 9 16 7 37 l-3 37 -57 1 -58 1 0 -38z"/>
<path d="M3230 896 c-6 -8 -10 -25 -8 -38 2 -18 10 -24 36 -26 19 -2 32 1 32
8 0 7 -6 10 -13 7 -8 -3 -20 -1 -28 4 -10 6 -4 9 19 9 33 0 42 16 20 38 -16
16 -43 15 -58 -2z m37 -12 c-3 -3 -12 -4 -19 -1 -8 3 -5 6 6 6 11 1 17 -2 13
-5z"/>
<path d="M3470 896 c-6 -8 -10 -25 -8 -38 2 -18 10 -24 36 -26 19 -2 32 1 32
8 0 7 -6 10 -13 7 -8 -3 -20 -1 -28 4 -10 6 -4 9 19 9 33 0 42 16 20 38 -16
16 -43 15 -58 -2z m37 -12 c-3 -3 -12 -4 -19 -1 -8 3 -5 6 6 6 11 1 17 -2 13
-5z"/>
<path d="M3690 871 c0 -30 4 -41 16 -41 11 0 14 9 12 37 -4 52 -28 56 -28 4z"/>
<path d="M3740 895 c0 -25 23 -65 37 -65 7 0 13 2 13 4 0 2 7 20 15 40 18 42
3 49 -19 9 l-14 -28 -7 28 c-8 28 -25 37 -25 12z"/>
<path d="M3830 868 c0 -27 4 -38 15 -38 9 0 15 9 15 25 0 14 7 28 15 31 25 10
17 21 -15 21 -28 0 -30 -3 -30 -39z"/>
<path d="M3905 901 c-4 -7 5 -11 22 -12 28 -1 28 -1 3 -8 -15 -4 -26 -15 -28
-29 -3 -19 1 -21 33 -20 35 1 36 2 33 37 -3 31 -7 36 -30 39 -14 2 -29 -2 -33
-7z m45 -45 c0 -11 -19 -15 -25 -6 -3 5 1 10 9 10 9 0 16 -2 16 -4z"/>
<path d="M4000 871 c0 -30 4 -41 16 -41 11 0 14 9 12 37 -4 52 -28 56 -28 4z"/>
<path d="M4044 895 c-7 -18 3 -35 22 -35 8 0 14 -5 14 -11 0 -6 -9 -8 -20 -4
-12 4 -20 2 -20 -5 0 -7 13 -10 33 -8 39 4 43 27 7 45 -24 12 -25 13 -2 13 12
0 22 5 22 10 0 16 -50 12 -56 -5z"/>
<path d="M4141 896 c-7 -8 -11 -25 -9 -38 2 -18 9 -23 32 -23 36 0 56 27 40
53 -14 22 -48 27 -63 8z m39 -26 c0 -11 -7 -20 -15 -20 -15 0 -21 21 -8 33 12
13 23 7 23 -13z"/>
<path d="M4217 904 c-1 -2 -1 -20 1 -40 4 -29 8 -35 23 -31 14 4 36 -15 85
-74 63 -74 85 -96 68 -66 -4 6 -32 40 -62 75 -30 34 -49 62 -43 62 15 0 14 57
-1 67 -13 8 -64 13 -71 7z m53 -35 c0 -11 -4 -17 -10 -14 -5 3 -10 13 -10 21
0 8 5 14 10 14 6 0 10 -9 10 -21z"/>
<path d="M4480 896 c-6 -8 -10 -25 -8 -38 2 -18 10 -24 36 -26 19 -2 32 1 32
8 0 7 -6 10 -13 7 -8 -3 -20 -1 -28 4 -10 6 -4 9 19 9 33 0 42 16 20 38 -16
16 -43 15 -58 -2z m37 -12 c-3 -3 -12 -4 -19 -1 -8 3 -5 6 6 6 11 1 17 -2 13
-5z"/>
<path d="M4730 896 c-6 -8 -10 -25 -8 -38 2 -18 10 -24 36 -26 19 -2 32 1 32
8 0 7 -6 10 -13 7 -8 -3 -20 -1 -28 4 -10 6 -4 9 19 9 33 0 42 16 20 38 -16
16 -43 15 -58 -2z m37 -12 c-3 -3 -12 -4 -19 -1 -8 3 -5 6 6 6 11 1 17 -2 13
-5z"/>
<path d="M4820 854 c0 -41 4 -54 15 -54 8 0 15 6 15 14 0 8 10 16 23 18 17 2
23 11 25 36 2 17 0 32 -5 33 -4 1 -23 2 -40 4 l-33 3 0 -54z m58 13 c2 -10 -3
-17 -12 -17 -10 0 -16 9 -16 21 0 24 23 21 28 -4z"/>
<path d="M4925 901 c-4 -7 5 -11 22 -12 28 -1 28 -1 3 -8 -15 -4 -26 -15 -28
-29 -3 -19 1 -21 33 -20 35 1 36 2 33 37 -3 31 -7 36 -30 39 -14 2 -29 -2 -33
-7z m45 -45 c0 -11 -19 -15 -25 -6 -3 5 1 10 9 10 9 0 16 -2 16 -4z"/>
<path d="M5014 895 c-7 -18 3 -35 22 -35 8 0 14 -5 14 -11 0 -6 -9 -8 -20 -4
-12 4 -20 2 -20 -5 0 -7 13 -10 33 -8 39 4 43 27 7 45 -24 12 -25 13 -2 13 12
0 22 5 22 10 0 16 -50 12 -56 -5z"/>
<path d="M4409 710 c-4 -31 -7 -35 -31 -32 -16 1 -28 1 -28 -2 0 -7 93 -57 98
-52 2 3 -5 31 -16 63 -19 58 -20 58 -23 23z"/>
<path d="M6422 663 c3 -25 -1 -29 -32 -34 l-35 -5 38 -8 c20 -5 40 -12 43 -17
5 -9 44 -13 44 -5 0 7 -52 96 -56 96 -3 0 -3 -12 -2 -27z"/>
<path d="M1032 627 c-12 -27 -20 -52 -18 -54 2 -3 30 4 63 14 58 18 58 18 23
23 -30 4 -36 9 -40 36 l-5 32 -23 -51z"/>
<path d="M2141 463 c-5 -10 -5 -36 -1 -58 l8 -40 1 37 c0 20 7 39 14 41 9 4 8
6 -2 6 -11 1 -11 4 -1 16 8 10 9 15 2 15 -6 0 -15 -8 -21 -17z"/>
<path d="M2191 463 c-5 -10 -5 -36 -1 -58 l8 -40 1 37 c0 20 7 39 14 41 9 4 8
6 -2 6 -11 1 -11 4 -1 16 8 10 9 15 2 15 -6 0 -15 -8 -21 -17z"/>
<path d="M427 463 c-14 -14 -6 -32 20 -45 31 -15 29 -33 -4 -33 -13 1 -23 -3
-23 -8 0 -4 15 -7 33 -5 24 2 33 8 35 24 2 17 -5 24 -29 33 -34 12 -31 25 6
34 16 4 15 5 -6 6 -14 0 -29 -2 -32 -6z"/>
<path d="M1142 423 c2 -39 7 -48 23 -50 11 -2 14 0 8 3 -15 7 -17 61 -3 66 6
2 1 9 -10 16 -20 12 -21 11 -18 -35z"/>
<path d="M2050 445 c-6 -14 -14 -36 -20 -50 -5 -14 -6 -25 -1 -25 5 0 11 7 15
15 7 20 42 19 50 -1 4 -9 9 -14 12 -11 8 8 -27 97 -38 97 -4 0 -13 -11 -18
-25z m30 -21 c0 -8 -6 -14 -14 -14 -9 0 -12 7 -9 20 6 22 23 18 23 -6z"/>
<path d="M2340 420 c0 -56 16 -68 22 -17 4 40 -1 67 -13 67 -5 0 -9 -22 -9
-50z"/>
<path d="M2620 420 c0 -27 5 -50 10 -50 6 0 10 23 10 50 0 28 -4 50 -10 50 -5
0 -10 -22 -10 -50z"/>
<path d="M3837 463 c-14 -14 -6 -32 20 -45 31 -15 29 -33 -4 -33 -13 1 -23 -3
-23 -8 0 -4 15 -7 33 -5 24 2 33 8 35 24 2 17 -5 24 -29 33 -34 12 -31 25 6
34 16 4 15 5 -6 6 -14 0 -29 -2 -32 -6z"/>
<path d="M4000 420 c0 -27 5 -50 10 -50 6 0 10 23 10 50 0 28 -4 50 -10 50 -5
0 -10 -22 -10 -50z"/>
<path d="M4212 423 c2 -39 7 -48 23 -50 11 -2 14 0 8 3 -15 7 -17 61 -3 66 6
2 1 9 -10 16 -20 12 -21 11 -18 -35z"/>
<path d="M4800 455 c0 -8 -6 -12 -13 -9 -19 7 -39 -20 -35 -48 2 -18 10 -24
36 -26 l32 -3 0 50 c0 28 -4 51 -10 51 -5 0 -10 -7 -10 -15z m-2 -48 c2 -19
-1 -27 -13 -27 -19 0 -30 24 -21 46 9 23 31 11 34 -19z"/>
<path d="M5082 423 c2 -39 7 -48 23 -50 11 -2 14 0 8 3 -15 7 -17 61 -3 66 6
2 1 9 -10 16 -20 12 -21 11 -18 -35z"/>
<path d="M6060 421 c0 -28 5 -51 10 -51 6 0 10 9 10 19 0 12 9 21 26 25 19 5
25 12 22 29 -2 17 -11 23 -35 25 l-33 3 0 -50z m48 22 c-5 -25 -28 -28 -28 -4
0 12 6 21 16 21 9 0 14 -7 12 -17z"/>
<path d="M7220 455 c0 -8 -6 -12 -13 -9 -19 7 -39 -20 -35 -48 2 -18 10 -24
36 -26 l32 -3 0 50 c0 28 -4 51 -10 51 -5 0 -10 -7 -10 -15z m-2 -48 c2 -19
-1 -27 -13 -27 -19 0 -30 24 -21 46 9 23 31 11 34 -19z"/>
<path d="M520 436 c-6 -8 -10 -25 -8 -38 2 -18 10 -23 33 -25 25 -2 26 -1 7 5
-33 10 -32 26 1 30 29 4 34 11 15 30 -16 16 -33 15 -48 -2z m35 -6 c3 -5 -3
-10 -15 -10 -12 0 -18 5 -15 10 3 6 10 10 15 10 5 0 12 -4 15 -10z"/>
<path d="M650 436 c-6 -8 -10 -25 -8 -38 2 -18 10 -23 33 -25 21 -1 23 0 7 4
-13 2 -26 11 -29 19 -7 19 16 46 34 40 8 -3 11 -1 8 4 -9 14 -31 12 -45 -4z"/>
<path d="M731 436 c-21 -25 -10 -61 18 -61 31 0 50 28 35 53 -15 23 -38 26
-53 8z m37 -29 c2 -19 -1 -27 -13 -27 -19 0 -30 24 -21 46 9 23 31 11 34 -19z"/>
<path d="M800 408 c0 -46 18 -51 22 -5 2 17 8 32 13 32 6 0 11 -15 13 -32 4
-41 22 -44 22 -4 0 33 -13 46 -47 46 -20 1 -23 -4 -23 -37z"/>
<path d="M890 408 c0 -46 18 -51 22 -5 2 17 8 32 13 32 6 0 11 -15 13 -32 4
-41 22 -44 22 -4 0 33 -13 46 -47 46 -20 1 -23 -4 -23 -37z"/>
<path d="M990 436 c-6 -8 -10 -25 -8 -38 2 -18 10 -23 33 -25 25 -2 26 -1 7 5
-33 10 -32 26 1 30 29 4 34 11 15 30 -16 16 -33 15 -48 -2z m35 -6 c3 -5 -3
-10 -15 -10 -12 0 -18 5 -15 10 3 6 10 10 15 10 5 0 12 -4 15 -10z"/>
<path d="M1080 436 c-6 -8 -10 -25 -8 -38 2 -18 10 -23 33 -25 21 -1 23 0 7 4
-13 2 -26 11 -29 19 -7 19 16 46 34 40 8 -3 11 -1 8 4 -9 14 -31 12 -45 -4z"/>
<path d="M1210 436 c-6 -8 -10 -25 -8 -38 2 -18 10 -23 33 -25 25 -2 26 -1 7
5 -33 10 -32 26 1 30 29 4 34 11 15 30 -16 16 -33 15 -48 -2z m35 -6 c3 -5 -3
-10 -15 -10 -12 0 -18 5 -15 10 3 6 10 10 15 10 5 0 12 -4 15 -10z"/>
<path d="M1280 408 c0 -21 5 -38 10 -38 6 0 10 13 10 30 0 17 7 33 17 39 14 7
12 9 -10 8 -24 -2 -27 -6 -27 -39z"/>
<path d="M2270 436 c-6 -8 -10 -25 -8 -38 2 -18 10 -23 33 -25 21 -1 23 0 7 4
-13 2 -26 11 -29 19 -7 19 16 46 34 40 8 -3 11 -1 8 4 -9 14 -31 12 -45 -4z"/>
<path d="M2378 438 c7 -7 12 -25 12 -40 0 -15 5 -28 10 -28 6 0 10 13 10 28 0
28 -16 52 -34 52 -6 0 -5 -5 2 -12z"/>
<path d="M2440 436 c-6 -8 -10 -25 -8 -38 2 -18 10 -23 33 -25 25 -2 26 -1 7
5 -33 10 -32 26 1 30 29 4 34 11 15 30 -16 16 -33 15 -48 -2z m35 -6 c3 -5 -3
-10 -15 -10 -12 0 -18 5 -15 10 3 6 10 10 15 10 5 0 12 -4 15 -10z"/>
<path d="M2520 408 c0 -21 5 -38 10 -38 6 0 10 13 10 30 0 17 7 33 17 39 14 7
12 9 -10 8 -24 -2 -27 -6 -27 -39z"/>
<path d="M2670 436 c-6 -8 -10 -25 -8 -38 2 -18 10 -23 33 -25 25 -2 26 -1 7
5 -33 10 -32 26 1 30 29 4 34 11 15 30 -16 16 -33 15 -48 -2z m35 -6 c3 -5 -3
-10 -15 -10 -12 0 -18 5 -15 10 3 6 10 10 15 10 5 0 12 -4 15 -10z"/>
<path d="M2790 408 c0 -46 18 -51 22 -5 2 17 8 32 13 32 6 0 11 -15 13 -32 2
-18 7 -33 12 -33 5 0 10 15 12 33 4 41 21 38 30 -5 6 -31 6 -31 5 7 l-2 40
-52 0 -53 0 0 -37z"/>
<path d="M2930 436 c-6 -8 -10 -25 -8 -38 2 -18 10 -23 33 -25 25 -2 26 -1 7
5 -33 10 -32 26 1 30 29 4 34 11 15 30 -16 16 -33 15 -48 -2z m35 -6 c3 -5 -3
-10 -15 -10 -12 0 -18 5 -15 10 3 6 10 10 15 10 5 0 12 -4 15 -10z"/>
<path d="M3010 408 c0 -46 18 -51 22 -5 2 17 8 32 13 32 6 0 11 -15 13 -32 4
-41 22 -44 22 -4 0 33 -13 46 -47 46 -20 1 -23 -4 -23 -37z"/>
<path d="M3103 415 c2 -37 4 -40 35 -43 31 -3 32 -2 32 32 0 20 -4 36 -10 36
-5 0 -10 -13 -10 -30 0 -39 -27 -41 -36 -2 -10 46 -13 49 -11 7z"/>
<path d="M3930 436 c-6 -8 -10 -25 -8 -38 2 -18 10 -23 33 -25 25 -2 26 -1 7
5 -33 10 -32 26 1 30 29 4 34 11 15 30 -16 16 -33 15 -48 -2z m35 -6 c3 -5 -3
-10 -15 -10 -12 0 -18 5 -15 10 3 6 10 10 15 10 5 0 12 -4 15 -10z"/>
<path d="M4050 436 c-6 -8 -10 -25 -8 -38 2 -18 10 -23 33 -25 25 -2 26 -1 7
5 -33 10 -32 26 1 30 29 4 34 11 15 30 -16 16 -33 15 -48 -2z m35 -6 c3 -5 -3
-10 -15 -10 -12 0 -18 5 -15 10 3 6 10 10 15 10 5 0 12 -4 15 -10z"/>
<path d="M4140 436 c-6 -8 -10 -25 -8 -38 2 -18 10 -23 33 -25 21 -1 23 0 7 4
-13 2 -26 11 -29 19 -7 19 16 46 34 40 8 -3 11 -1 8 4 -9 14 -31 12 -45 -4z"/>
<path d="M4311 436 c-21 -25 -10 -61 18 -61 31 0 50 28 35 53 -15 23 -38 26
-53 8z m37 -29 c2 -19 -1 -27 -13 -27 -19 0 -30 24 -21 46 9 23 31 11 34 -19z"/>
<path d="M4380 408 c0 -46 18 -51 22 -5 2 17 8 32 13 32 6 0 11 -15 13 -32 4
-41 22 -44 22 -4 0 33 -13 46 -47 46 -20 1 -23 -4 -23 -37z"/>
<path d="M4470 408 c0 -46 18 -51 22 -5 2 17 8 32 13 32 6 0 11 -15 13 -32 4
-41 22 -44 22 -4 0 33 -13 46 -47 46 -20 1 -23 -4 -23 -37z"/>
<path d="M4570 436 c-6 -8 -10 -25 -8 -38 2 -18 10 -23 33 -25 25 -2 26 -1 7
5 -33 10 -32 26 1 30 29 4 34 11 15 30 -16 16 -33 15 -48 -2z m35 -6 c3 -5 -3
-10 -15 -10 -12 0 -18 5 -15 10 3 6 10 10 15 10 5 0 12 -4 15 -10z"/>
<path d="M4650 408 c0 -21 5 -38 10 -38 6 0 10 13 10 30 0 17 7 33 17 39 14 7
12 9 -10 8 -24 -2 -27 -6 -27 -39z"/>
<path d="M4850 436 c-6 -8 -10 -25 -8 -38 2 -18 10 -23 33 -25 25 -2 26 -1 7
5 -33 10 -32 26 1 30 29 4 34 11 15 30 -16 16 -33 15 -48 -2z m35 -6 c3 -5 -3
-10 -15 -10 -12 0 -18 5 -15 10 3 6 10 10 15 10 5 0 12 -4 15 -10z"/>
<path d="M4937 443 c-13 -13 -7 -32 13 -38 27 -8 25 -23 -2 -28 -21 -4 -20 -4
3 -6 37 -2 46 26 14 41 -25 11 -24 34 1 24 8 -3 14 -1 14 4 0 11 -33 14 -43 3z"/>
<path d="M5150 436 c-6 -8 -10 -25 -8 -38 2 -18 10 -23 33 -25 25 -2 26 -1 7
5 -33 10 -32 26 1 30 29 4 34 11 15 30 -16 16 -33 15 -48 -2z m35 -6 c3 -5 -3
-10 -15 -10 -12 0 -18 5 -15 10 3 6 10 10 15 10 5 0 12 -4 15 -10z"/>
<path d="M5220 408 c0 -46 18 -51 22 -5 2 17 8 32 13 32 6 0 11 -15 13 -32 2
-18 7 -33 12 -33 5 0 10 15 12 33 4 41 21 38 30 -5 6 -31 6 -31 5 7 l-2 40
-52 0 -53 0 0 -37z"/>
<path d="M5367 443 c-13 -13 -7 -32 13 -38 27 -8 25 -23 -2 -28 -21 -4 -20 -4
3 -6 37 -2 46 26 14 41 -25 11 -24 34 1 24 8 -3 14 -1 14 4 0 11 -33 14 -43 3z"/>
<path d="M6170 439 l25 -12 -25 -6 c-36 -10 -34 -46 3 -47 26 -1 28 1 25 35
-3 30 -7 36 -28 38 l-25 3 25 -11z m20 -39 c0 -12 -28 -25 -36 -17 -9 9 6 27
22 27 8 0 14 -5 14 -10z"/>
<path d="M6237 443 c-13 -13 -7 -32 13 -38 27 -8 25 -23 -2 -28 -21 -4 -20 -4
3 -6 37 -2 46 26 14 41 -25 11 -24 34 1 24 8 -3 14 -1 14 4 0 11 -33 14 -43 3z"/>
<path d="M6307 443 c-13 -13 -7 -32 13 -38 27 -8 25 -23 -2 -28 -21 -4 -20 -4
3 -6 37 -2 46 26 14 41 -25 11 -24 34 1 24 8 -3 14 -1 14 4 0 11 -33 14 -43 3z"/>
<path d="M6380 436 c-6 -8 -10 -25 -8 -38 2 -18 10 -23 33 -25 25 -2 26 -1 7
5 -33 10 -32 26 1 30 29 4 34 11 15 30 -16 16 -33 15 -48 -2z m35 -6 c3 -5 -3
-10 -15 -10 -12 0 -18 5 -15 10 3 6 10 10 15 10 5 0 12 -4 15 -10z"/>
<path d="M6460 408 c0 -21 5 -38 10 -38 6 0 10 13 10 30 0 17 7 33 17 39 14 7
12 9 -10 8 -24 -2 -27 -6 -27 -39z"/>
<path d="M6570 436 c-6 -8 -10 -25 -8 -38 2 -18 10 -23 33 -25 21 -1 23 0 7 4
-13 2 -26 11 -29 19 -7 19 16 46 34 40 8 -3 11 -1 8 4 -9 14 -31 12 -45 -4z"/>
<path d="M6651 436 c-21 -25 -10 -61 18 -61 31 0 50 28 35 53 -15 23 -38 26
-53 8z m37 -29 c2 -19 -1 -27 -13 -27 -19 0 -30 24 -21 46 9 23 31 11 34 -19z"/>
<path d="M6720 408 c0 -46 18 -51 22 -5 2 17 8 32 13 32 6 0 11 -15 13 -32 2
-18 7 -33 12 -33 5 0 10 15 12 33 4 41 21 38 30 -5 6 -31 6 -31 5 7 l-2 40
-52 0 -53 0 0 -37z"/>
<path d="M6860 408 c0 -46 18 -51 22 -5 2 17 8 32 13 32 6 0 11 -15 13 -32 2
-18 7 -33 12 -33 5 0 10 15 12 33 4 41 21 38 30 -5 6 -31 6 -31 5 7 l-2 40
-52 0 -53 0 0 -37z"/>
<path d="M7030 439 l25 -12 -25 -6 c-36 -10 -34 -46 3 -47 26 -1 28 1 25 35
-3 30 -7 36 -28 38 l-25 3 25 -11z m20 -39 c0 -12 -28 -25 -36 -17 -9 9 6 27
22 27 8 0 14 -5 14 -10z"/>
<path d="M7080 408 c0 -46 18 -51 22 -5 2 17 8 32 13 32 6 0 11 -15 13 -32 4
-41 22 -44 22 -4 0 33 -13 46 -47 46 -20 1 -23 -4 -23 -37z"/>
<path d="M7270 436 c-6 -8 -10 -25 -8 -38 2 -18 10 -23 33 -25 25 -2 26 -1 7
5 -33 10 -32 26 1 30 29 4 34 11 15 30 -16 16 -33 15 -48 -2z m35 -6 c3 -5 -3
-10 -15 -10 -12 0 -18 5 -15 10 3 6 10 10 15 10 5 0 12 -4 15 -10z"/>
<path d="M2230 405 c0 -19 5 -35 10 -35 6 0 10 16 10 35 0 19 -4 35 -10 35 -5
0 -10 -16 -10 -35z"/>
<path d="M4260 405 c0 -19 5 -35 10 -35 6 0 10 16 10 35 0 19 -4 35 -10 35 -5
0 -10 -16 -10 -35z"/>
<path d="M5040 405 c0 -19 5 -35 10 -35 6 0 10 16 10 35 0 19 -4 35 -10 35 -5
0 -10 -16 -10 -35z"/>
<path d="M3432 1348 c-7 -7 -12 -24 -12 -38 0 -14 5 -31 12 -38 13 -13 54 -16
62 -4 2 4 -7 8 -21 7 -14 0 -31 8 -37 18 -16 24 4 52 38 52 14 -1 26 3 26 7 0
13 -55 9 -68 -4z"/>
<path d="M3520 1310 c0 -27 5 -50 10 -50 6 0 10 23 10 50 0 28 -4 50 -10 50
-5 0 -10 -22 -10 -50z"/>
<path d="M3772 1313 c2 -39 7 -48 23 -50 11 -2 14 0 8 3 -15 7 -17 61 -3 66 6
2 1 9 -10 16 -20 12 -21 11 -18 -35z"/>
<path d="M4845 1351 c11 -4 36 -11 55 -15 24 -4 29 -3 15 3 -11 4 -36 11 -55
15 -24 4 -29 3 -15 -3z"/>
<path d="M2340 1315 c-36 -13 -60 -24 -54 -24 5 -1 41 10 80 23 38 14 62 24
54 24 -8 0 -44 -10 -80 -23z"/>
<path d="M3600 1326 c-6 -8 -10 -25 -8 -38 2 -18 10 -23 33 -25 25 -2 26 -1 7
5 -33 10 -32 26 1 30 29 4 34 11 15 30 -16 16 -33 15 -48 -2z m35 -6 c3 -5 -3
-10 -15 -10 -12 0 -18 5 -15 10 3 6 10 10 15 10 5 0 12 -4 15 -10z"/>
<path d="M3698 1333 c-13 -3 -18 -15 -18 -39 0 -43 18 -45 22 -2 4 46 28 49
28 4 0 -20 5 -36 10 -36 14 0 12 54 -2 68 -7 7 -14 11 -17 11 -4 -1 -14 -3
-23 -6z"/>
<path d="M3550 1295 c0 -19 5 -35 10 -35 6 0 10 16 10 35 0 19 -4 35 -10 35
-5 0 -10 -16 -10 -35z"/>
<path d="M4955 1320 c11 -5 27 -9 35 -9 9 0 8 4 -5 9 -11 5 -27 9 -35 9 -9 0
-8 -4 5 -9z"/>
<path d="M5040 1295 c19 -7 42 -13 50 -13 8 0 -1 6 -20 13 -19 7 -42 13 -50
13 -8 0 1 -6 20 -13z"/>
<path d="M2134 1246 c-67 -24 -130 -49 -140 -56 -18 -11 -18 -11 1 -5 104 36
271 97 274 101 10 10 -21 1 -135 -40z"/>
<path d="M1940 1170 c-8 -5 -10 -10 -5 -10 6 0 17 5 25 10 8 5 11 10 5 10 -5
0 -17 -5 -25 -10z"/>
</g>
</svg>
