<?xml version="1.0" standalone="no"?>
<!DOCTYPE svg PUBLIC "-//W3C//DTD SVG 20010904//EN"
 "http://www.w3.org/TR/2001/REC-SVG-20010904/DTD/svg10.dtd">
<svg version="1.0" xmlns="http://www.w3.org/2000/svg"
 width="659.000000pt" height="252.000000pt" viewBox="0 0 659.000000 252.000000"
 preserveAspectRatio="xMidYMid meet">

<g transform="translate(0.000000,252.000000) scale(0.100000,-0.100000)"
fill="#000000" stroke="none">
<path d="M1333 2381 c-3 -11 -10 -18 -16 -15 -22 7 -39 -13 -35 -42 3 -26 7
-29 41 -32 l37 -3 0 55 c0 55 -16 77 -27 37z m-3 -51 c0 -11 -7 -20 -15 -20
-15 0 -21 21 -8 33 12 13 23 7 23 -13z"/>
<path d="M1590 2390 c0 -5 7 -10 16 -10 8 0 12 5 9 10 -3 6 -10 10 -16 10 -5
0 -9 -4 -9 -10z"/>
<path d="M1640 2346 c0 -44 3 -56 16 -56 12 0 14 10 12 52 -4 74 -28 77 -28 4z"/>
<path d="M1690 2390 c0 -5 7 -10 16 -10 8 0 12 5 9 10 -3 6 -10 10 -16 10 -5
0 -9 -4 -9 -10z"/>
<path d="M1980 2390 c0 -5 7 -10 16 -10 8 0 12 5 9 10 -3 6 -10 10 -16 10 -5
0 -9 -4 -9 -10z"/>
<path d="M3100 2390 c0 -5 7 -10 16 -10 8 0 12 5 9 10 -3 6 -10 10 -16 10 -5
0 -9 -4 -9 -10z"/>
<path d="M3460 2346 c0 -44 3 -56 16 -56 12 0 14 10 12 52 -4 74 -28 77 -28 4z"/>
<path d="M4233 2381 c-3 -11 -10 -18 -16 -15 -22 7 -39 -13 -35 -42 3 -26 7
-29 41 -32 l37 -3 0 55 c0 55 -16 77 -27 37z m-3 -51 c0 -11 -7 -20 -15 -20
-15 0 -21 21 -8 33 12 13 23 7 23 -13z"/>
<path d="M5383 2381 c-3 -11 -10 -18 -16 -15 -22 7 -39 -13 -35 -42 3 -26 7
-29 41 -32 l37 -3 0 55 c0 55 -16 77 -27 37z m-3 -51 c0 -11 -7 -20 -15 -20
-15 0 -21 21 -8 33 12 13 23 7 23 -13z"/>
<path d="M962 2378 c-15 -15 -15 -61 0 -76 14 -14 68 -16 68 -2 0 6 -11 10
-24 10 -14 0 -25 7 -28 18 -8 28 2 42 28 42 13 0 24 5 24 10 0 14 -54 12 -68
-2z"/>
<path d="M1380 2376 c0 -8 5 -18 10 -21 6 -3 10 3 10 14 0 12 -4 21 -10 21 -5
0 -10 -6 -10 -14z"/>
<path d="M1522 2377 c-18 -21 4 -87 28 -87 11 0 20 5 20 10 0 6 -4 10 -10 10
-14 0 -12 38 2 42 9 3 8 9 -4 21 -20 20 -23 21 -36 4z"/>
<path d="M1912 2377 c-18 -21 4 -87 28 -87 11 0 20 5 20 10 0 6 -4 10 -10 10
-14 0 -12 38 2 42 9 3 8 9 -4 21 -20 20 -23 21 -36 4z"/>
<path d="M2380 2340 c0 -38 4 -50 15 -50 10 0 15 11 16 33 0 29 1 30 9 10 5
-13 13 -23 18 -23 5 0 14 10 20 23 10 21 11 20 11 -10 1 -22 6 -33 16 -33 11
0 15 12 15 50 0 43 -3 50 -19 50 -11 0 -23 -9 -26 -20 -3 -11 -10 -20 -15 -20
-5 0 -12 9 -15 20 -3 11 -15 20 -26 20 -16 0 -19 -7 -19 -50z"/>
<path d="M2612 2377 c-18 -21 4 -87 28 -87 11 0 20 5 20 10 0 6 -4 10 -10 10
-14 0 -12 38 2 42 9 3 8 9 -4 21 -20 20 -23 21 -36 4z"/>
<path d="M2682 2377 c-18 -21 4 -87 28 -87 11 0 20 5 20 10 0 6 -4 10 -10 10
-14 0 -12 38 2 42 9 3 8 9 -4 21 -20 20 -23 21 -36 4z"/>
<path d="M3742 2377 c-18 -21 4 -87 28 -87 11 0 20 5 20 10 0 6 -4 10 -10 10
-14 0 -12 38 2 42 9 3 8 9 -4 21 -20 20 -23 21 -36 4z"/>
<path d="M3902 2377 c-18 -21 4 -87 28 -87 11 0 20 5 20 10 0 6 -4 10 -10 10
-14 0 -12 38 2 42 9 3 8 9 -4 21 -20 20 -23 21 -36 4z"/>
<path d="M4072 2377 c-18 -21 4 -87 28 -87 11 0 20 5 20 10 0 6 -4 10 -10 10
-14 0 -12 38 2 42 9 3 8 9 -4 21 -20 20 -23 21 -36 4z"/>
<path d="M4280 2376 c0 -8 5 -18 10 -21 6 -3 10 3 10 14 0 12 -4 21 -10 21 -5
0 -10 -6 -10 -14z"/>
<path d="M1055 2361 c-4 -7 5 -11 22 -12 28 -1 28 -1 3 -8 -15 -4 -26 -15 -28
-29 -3 -19 1 -21 33 -20 35 1 36 2 33 37 -3 31 -7 36 -30 39 -14 2 -29 -2 -33
-7z m45 -45 c0 -11 -19 -15 -25 -6 -3 5 1 10 9 10 9 0 16 -2 16 -4z"/>
<path d="M1154 2355 c-7 -18 3 -35 22 -35 8 0 14 -5 14 -11 0 -6 -9 -8 -20 -4
-12 4 -20 2 -20 -5 0 -7 13 -10 33 -8 39 4 43 27 7 45 -24 12 -25 13 -2 13 12
0 22 5 22 10 0 16 -50 12 -56 -5z"/>
<path d="M1422 2334 c3 -37 5 -39 41 -42 l37 -3 0 41 c0 47 -23 52 -28 7 -2
-15 -7 -27 -12 -27 -5 0 -10 12 -12 27 -2 14 -9 28 -16 31 -10 3 -12 -6 -10
-34z"/>
<path d="M1590 2331 c0 -30 4 -41 16 -41 11 0 14 9 12 37 -4 52 -28 56 -28 4z"/>
<path d="M1690 2331 c0 -30 4 -41 16 -41 11 0 14 9 12 37 -4 52 -28 56 -28 4z"/>
<path d="M1744 2355 c-7 -18 3 -35 22 -35 8 0 14 -5 14 -11 0 -6 -9 -8 -20 -4
-12 4 -20 2 -20 -5 0 -7 13 -10 33 -8 39 4 43 27 7 45 -24 12 -25 13 -2 13 12
0 22 5 22 10 0 16 -50 12 -56 -5z"/>
<path d="M1825 2361 c-4 -7 5 -11 22 -12 28 -1 28 -1 3 -8 -15 -4 -26 -15 -28
-29 -3 -19 1 -21 33 -20 35 1 36 2 33 37 -3 31 -7 36 -30 39 -14 2 -29 -2 -33
-7z m45 -45 c0 -11 -19 -15 -25 -6 -3 5 1 10 9 10 9 0 16 -2 16 -4z"/>
<path d="M1980 2331 c0 -30 4 -41 16 -41 11 0 14 9 12 37 -4 52 -28 56 -28 4z"/>
<path d="M2041 2356 c-7 -8 -11 -25 -9 -38 2 -18 9 -23 32 -23 36 0 56 27 40
53 -14 22 -48 27 -63 8z m39 -26 c0 -11 -7 -20 -15 -20 -15 0 -21 21 -8 33 12
13 23 7 23 -13z"/>
<path d="M2120 2329 c0 -28 4 -39 15 -39 10 0 15 10 15 30 0 17 5 30 10 30 6
0 10 -13 10 -30 0 -20 5 -30 15 -30 10 0 15 10 15 29 0 34 -13 45 -52 47 -26
2 -28 -1 -28 -37z"/>
<path d="M2280 2355 c0 -8 5 -15 10 -15 6 0 10 7 10 15 0 8 -4 15 -10 15 -5 0
-10 -7 -10 -15z"/>
<path d="M2530 2356 c-6 -8 -10 -25 -8 -38 2 -18 10 -24 36 -26 19 -2 32 1 32
8 0 7 -6 10 -13 7 -8 -3 -20 -1 -28 4 -10 6 -4 9 19 9 33 0 42 16 20 38 -16
16 -43 15 -58 -2z m37 -12 c-3 -3 -12 -4 -19 -1 -8 3 -5 6 6 6 11 1 17 -2 13
-5z"/>
<path d="M2750 2328 c0 -27 4 -38 15 -38 9 0 15 9 15 25 0 14 7 28 15 31 25
10 17 21 -15 21 -28 0 -30 -3 -30 -39z"/>
<path d="M2820 2356 c-6 -8 -10 -25 -8 -38 2 -18 10 -24 36 -26 19 -2 32 1 32
8 0 7 -6 10 -13 7 -8 -3 -20 -1 -28 4 -10 6 -4 9 19 9 33 0 42 16 20 38 -16
16 -43 15 -58 -2z m37 -12 c-3 -3 -12 -4 -19 -1 -8 3 -5 6 6 6 11 1 17 -2 13
-5z"/>
<path d="M2965 2361 c-4 -7 5 -11 22 -12 28 -1 28 -1 3 -8 -15 -4 -26 -15 -28
-29 -3 -19 1 -21 33 -20 35 1 36 2 33 37 -3 31 -7 36 -30 39 -14 2 -29 -2 -33
-7z m45 -45 c0 -11 -19 -15 -25 -6 -3 5 1 10 9 10 9 0 16 -2 16 -4z"/>
<path d="M3098 2318 c-5 -62 -4 -65 17 -48 11 9 15 26 13 53 -5 61 -25 58 -30
-5z"/>
<path d="M3161 2356 c-7 -8 -11 -25 -9 -38 2 -18 9 -23 32 -23 36 0 56 27 40
53 -14 22 -48 27 -63 8z m39 -26 c0 -11 -7 -20 -15 -20 -15 0 -21 21 -8 33 12
13 23 7 23 -13z"/>
<path d="M3252 2334 c3 -37 5 -39 41 -42 l37 -3 0 41 c0 47 -23 52 -28 7 -2
-15 -7 -27 -12 -27 -5 0 -10 12 -12 27 -2 14 -9 28 -16 31 -10 3 -12 -6 -10
-34z"/>
<path d="M3350 2328 c0 -27 4 -38 15 -38 9 0 15 9 15 25 0 14 7 28 15 31 25
10 17 21 -15 21 -28 0 -30 -3 -30 -39z"/>
<path d="M3520 2356 c-6 -8 -10 -25 -8 -38 2 -18 10 -24 36 -26 19 -2 32 1 32
8 0 7 -6 10 -13 7 -8 -3 -20 -1 -28 4 -10 6 -4 9 19 9 33 0 42 16 20 38 -16
16 -43 15 -58 -2z m37 -12 c-3 -3 -12 -4 -19 -1 -8 3 -5 6 6 6 11 1 17 -2 13
-5z"/>
<path d="M3654 2355 c-7 -18 3 -35 22 -35 8 0 14 -5 14 -11 0 -6 -9 -8 -20 -4
-12 4 -20 2 -20 -5 0 -7 13 -10 33 -8 39 4 43 27 7 45 -24 12 -25 13 -2 13 12
0 22 5 22 10 0 16 -50 12 -56 -5z"/>
<path d="M3805 2361 c-4 -7 5 -11 22 -12 28 -1 28 -1 3 -8 -15 -4 -26 -15 -28
-29 -3 -19 1 -21 33 -20 35 1 36 2 33 37 -3 31 -7 36 -30 39 -14 2 -29 -2 -33
-7z m45 -45 c0 -11 -19 -15 -25 -6 -3 5 1 10 9 10 9 0 16 -2 16 -4z"/>
<path d="M3972 2334 c3 -37 5 -39 41 -42 l37 -3 0 41 c0 47 -23 52 -28 7 -2
-15 -7 -27 -12 -27 -5 0 -10 12 -12 27 -2 14 -9 28 -16 31 -10 3 -12 -6 -10
-34z"/>
<path d="M4322 2334 c3 -37 5 -39 41 -42 l37 -3 0 41 c0 47 -23 52 -28 7 -2
-15 -7 -27 -12 -27 -5 0 -10 12 -12 27 -2 14 -9 28 -16 31 -10 3 -12 -6 -10
-34z"/>
<path d="M4420 2329 c0 -28 4 -39 15 -39 10 0 15 10 15 30 0 17 5 30 10 30 6
0 10 -13 10 -30 0 -20 5 -30 15 -30 10 0 15 10 15 29 0 34 -13 45 -52 47 -26
2 -28 -1 -28 -37z"/>
<path d="M4530 2356 c-6 -8 -10 -25 -8 -38 2 -18 10 -24 36 -26 19 -2 32 1 32
8 0 7 -6 10 -13 7 -8 -3 -20 -1 -28 4 -10 6 -4 9 19 9 33 0 42 16 20 38 -16
16 -43 15 -58 -2z m37 -12 c-3 -3 -12 -4 -19 -1 -8 3 -5 6 6 6 11 1 17 -2 13
-5z"/>
<path d="M4680 2356 c-20 -26 -8 -61 23 -64 31 -4 37 13 7 21 -11 3 -20 10
-20 17 0 7 9 14 20 17 11 3 20 9 20 14 0 14 -36 10 -50 -5z"/>
<path d="M4761 2356 c-7 -8 -11 -25 -9 -38 2 -18 9 -23 32 -23 36 0 56 27 40
53 -14 22 -48 27 -63 8z m39 -26 c0 -11 -7 -20 -15 -20 -15 0 -21 21 -8 33 12
13 23 7 23 -13z"/>
<path d="M4850 2328 c0 -27 4 -38 15 -38 10 0 15 10 15 30 0 17 5 30 10 30 6
0 10 -13 10 -30 0 -20 5 -30 15 -30 10 0 15 10 15 30 0 17 5 30 10 30 6 0 10
-13 10 -30 0 -16 5 -30 11 -30 6 0 9 16 7 37 l-3 37 -57 1 -58 1 0 -38z"/>
<path d="M4990 2328 c0 -27 4 -38 15 -38 10 0 15 10 15 30 0 17 5 30 10 30 6
0 10 -13 10 -30 0 -20 5 -30 15 -30 10 0 15 10 15 30 0 17 5 30 10 30 6 0 10
-13 10 -30 0 -16 5 -30 11 -30 6 0 9 16 7 37 l-3 37 -57 1 -58 1 0 -38z"/>
<path d="M5145 2361 c-4 -7 5 -11 22 -12 28 -1 28 -1 3 -8 -15 -4 -26 -15 -28
-29 -3 -19 1 -21 33 -20 35 1 36 2 33 37 -3 31 -7 36 -30 39 -14 2 -29 -2 -33
-7z m45 -45 c0 -11 -19 -15 -25 -6 -3 5 1 10 9 10 9 0 16 -2 16 -4z"/>
<path d="M5230 2329 c0 -28 4 -39 15 -39 10 0 15 10 15 30 0 17 5 30 10 30 6
0 10 -13 10 -30 0 -20 5 -30 15 -30 10 0 15 10 15 29 0 34 -13 45 -52 47 -26
2 -28 -1 -28 -37z"/>
<path d="M5440 2356 c-6 -8 -10 -25 -8 -38 2 -18 10 -24 36 -26 19 -2 32 1 32
8 0 7 -6 10 -13 7 -8 -3 -20 -1 -28 4 -10 6 -4 9 19 9 33 0 42 16 20 38 -16
16 -43 15 -58 -2z m37 -12 c-3 -3 -12 -4 -19 -1 -8 3 -5 6 6 6 11 1 17 -2 13
-5z"/>
<path d="M2280 2305 c0 -8 5 -15 10 -15 6 0 10 7 10 15 0 8 -4 15 -10 15 -5 0
-10 -7 -10 -15z"/>
<path d="M3095 2060 c10 -11 20 -20 23 -20 3 0 -3 9 -13 20 -10 11 -20 20 -23
20 -3 0 3 -9 13 -20z"/>
<path d="M3099 1953 c-13 -16 -12 -17 4 -4 16 13 21 21 13 21 -2 0 -10 -8 -17
-17z"/>
<path d="M3036 1652 c-3 -5 1 -9 9 -9 8 0 12 4 9 9 -3 4 -7 8 -9 8 -2 0 -6 -4
-9 -8z"/>
<path d="M2647 1578 c-82 -27 -147 -52 -144 -54 4 -4 297 92 305 101 10 10
-15 3 -161 -47z"/>
<path d="M3315 1606 c17 -7 41 -16 55 -20 20 -5 19 -3 -5 8 -16 7 -41 16 -55
20 -20 5 -19 3 5 -8z"/>
<path d="M3425 1566 c17 -7 41 -16 55 -20 20 -5 19 -3 -5 8 -16 7 -41 16 -55
20 -20 5 -19 3 5 -8z"/>
<path d="M3511 1536 c8 -8 272 -106 276 -102 2 2 -57 26 -131 55 -126 47 -156
57 -145 47z"/>
<path d="M2300 1450 c-215 -87 -480 -215 -620 -301 l-105 -64 -750 -5 -750 -5
-3 -495 c-1 -272 0 -505 3 -518 l5 -22 3223 0 c2493 0 3226 3 3235 12 9 9 12
137 12 514 0 448 -2 503 -16 508 -9 3 -454 6 -989 6 l-974 0 -178 89 c-174 88
-532 246 -539 238 -2 -2 83 -40 189 -86 105 -45 262 -118 347 -161 l155 -79
-742 0 -742 -1 -4 128 -3 127 -2 -127 -2 -128 -732 0 -733 0 70 45 c108 70
471 246 660 321 94 37 172 68 174 70 15 13 -35 -5 -189 -66z m-765 -388 c-6
-5 -62 -47 -126 -94 -117 -87 -313 -251 -339 -285 -17 -21 -8 -14 120 98 84
74 240 195 332 257 l47 32 740 0 741 0 0 -137 0 -136 -22 19 c-23 21 -23 21 7
-54 l17 -43 24 52 c29 62 30 67 4 44 -20 -18 -20 -17 -20 48 l0 67 35 0 c19 0
35 5 35 10 0 6 -11 10 -25 10 -22 0 -25 4 -25 40 0 22 -4 40 -10 40 -5 0 -10
9 -10 20 0 20 7 20 750 20 747 0 751 0 793 -21 68 -35 334 -197 444 -270 56
-38 106 -69 110 -69 14 0 -288 195 -431 279 l-140 81 975 -2 974 -3 0 -505 0
-505 -3225 0 -3225 0 -3 508 -2 507 732 0 c403 0 728 -4 723 -8z"/>
<path d="M2455 1030 c3 -5 8 -10 11 -10 2 0 4 5 4 10 0 6 -5 10 -11 10 -5 0
-7 -4 -4 -10z"/>
<path d="M2863 1021 c-3 -11 -10 -18 -16 -15 -22 7 -39 -13 -35 -42 3 -26 7
-29 41 -32 l37 -3 0 55 c0 55 -16 77 -27 37z m-3 -51 c0 -11 -7 -20 -15 -20
-15 0 -21 21 -8 33 12 13 23 7 23 -13z"/>
<path d="M3140 1030 c0 -5 7 -10 16 -10 8 0 12 5 9 10 -3 6 -10 10 -16 10 -5
0 -9 -4 -9 -10z"/>
<path d="M3450 1030 c0 -5 7 -10 16 -10 8 0 12 5 9 10 -3 6 -10 10 -16 10 -5
0 -9 -4 -9 -10z"/>
<path d="M3873 1021 c-3 -11 -10 -18 -16 -15 -22 7 -39 -13 -35 -42 3 -26 7
-29 41 -32 l37 -3 0 55 c0 55 -16 77 -27 37z m-3 -51 c0 -11 -7 -20 -15 -20
-15 0 -21 21 -8 33 12 13 23 7 23 -13z"/>
<path d="M2084 1015 c-7 -18 12 -45 32 -45 8 0 14 -5 14 -11 0 -7 -10 -9 -25
-7 -17 4 -25 1 -25 -9 0 -10 10 -13 38 -11 32 3 37 6 37 28 0 17 -6 26 -20 28
-33 6 -42 22 -12 22 15 0 27 5 27 10 0 16 -60 12 -66 -5z"/>
<path d="M2362 1017 c-18 -21 4 -87 28 -87 11 0 20 5 20 10 0 6 -4 10 -10 10
-14 0 -12 38 2 42 9 3 8 9 -4 21 -20 20 -23 21 -36 4z"/>
<path d="M4070 981 c0 -39 4 -51 15 -51 8 0 15 9 15 20 0 11 4 20 9 20 5 0 13
-9 16 -20 3 -11 13 -20 22 -20 11 0 13 5 8 18 -5 9 -8 31 -9 47 -1 27 -4 30
-38 33 l-38 3 0 -50z m50 19 c0 -5 -4 -10 -10 -10 -5 0 -10 5 -10 10 0 6 5 10
10 10 6 0 10 -4 10 -10z"/>
<path d="M2180 1004 c0 -6 5 -25 11 -43 9 -24 8 -35 -2 -47 -12 -14 -11 -16 6
-13 23 5 58 70 53 96 -3 14 -7 12 -21 -12 -9 -16 -16 -25 -17 -19 0 14 -29 52
-30 38z"/>
<path d="M2284 995 c-7 -18 3 -35 22 -35 8 0 14 -5 14 -11 0 -6 -9 -8 -20 -4
-12 4 -20 2 -20 -5 0 -7 13 -10 33 -8 39 4 43 27 7 45 -24 12 -25 13 -2 13 12
0 22 5 22 10 0 16 -50 12 -56 -5z"/>
<path d="M2440 996 c-6 -8 -10 -25 -8 -38 2 -18 10 -24 36 -26 19 -2 32 1 32
8 0 7 -6 10 -13 7 -8 -3 -20 -1 -28 4 -10 6 -4 9 19 9 33 0 42 16 20 38 -16
16 -43 15 -58 -2z m37 -12 c-3 -3 -12 -4 -19 -1 -8 3 -5 6 6 6 11 1 17 -2 13
-5z"/>
<path d="M2520 968 c0 -27 4 -38 15 -38 10 0 15 10 15 30 0 17 5 30 10 30 6 0
10 -13 10 -30 0 -20 5 -30 15 -30 10 0 15 10 15 30 0 17 5 30 10 30 6 0 10
-13 10 -30 0 -16 5 -30 11 -30 6 0 9 16 7 37 l-3 37 -57 1 -58 1 0 -38z"/>
<path d="M2680 996 c-6 -8 -10 -25 -8 -38 2 -18 10 -24 36 -26 19 -2 32 1 32
8 0 7 -6 10 -13 7 -8 -3 -20 -1 -28 4 -10 6 -4 9 19 9 33 0 42 16 20 38 -16
16 -43 15 -58 -2z m37 -12 c-3 -3 -12 -4 -19 -1 -8 3 -5 6 6 6 11 1 17 -2 13
-5z"/>
<path d="M2920 996 c-6 -8 -10 -25 -8 -38 2 -18 10 -24 36 -26 19 -2 32 1 32
8 0 7 -6 10 -13 7 -8 -3 -20 -1 -28 4 -10 6 -4 9 19 9 33 0 42 16 20 38 -16
16 -43 15 -58 -2z m37 -12 c-3 -3 -12 -4 -19 -1 -8 3 -5 6 6 6 11 1 17 -2 13
-5z"/>
<path d="M3140 971 c0 -30 4 -41 16 -41 11 0 14 9 12 37 -4 52 -28 56 -28 4z"/>
<path d="M3190 995 c0 -25 23 -65 37 -65 7 0 13 2 13 4 0 2 7 20 15 40 18 42
3 49 -19 9 l-14 -28 -7 28 c-8 28 -25 37 -25 12z"/>
<path d="M3280 968 c0 -27 4 -38 15 -38 9 0 15 9 15 25 0 14 7 28 15 31 25 10
17 21 -15 21 -28 0 -30 -3 -30 -39z"/>
<path d="M3355 1001 c-4 -7 5 -11 22 -12 28 -1 28 -1 3 -8 -15 -4 -26 -15 -28
-29 -3 -19 1 -21 33 -20 35 1 36 2 33 37 -3 31 -7 36 -30 39 -14 2 -29 -2 -33
-7z m45 -45 c0 -11 -19 -15 -25 -6 -3 5 1 10 9 10 9 0 16 -2 16 -4z"/>
<path d="M3450 971 c0 -30 4 -41 16 -41 11 0 14 9 12 37 -4 52 -28 56 -28 4z"/>
<path d="M3494 995 c-7 -18 3 -35 22 -35 8 0 14 -5 14 -11 0 -6 -9 -8 -20 -4
-12 4 -20 2 -20 -5 0 -7 13 -10 33 -8 39 4 43 27 7 45 -24 12 -25 13 -2 13 12
0 22 5 22 10 0 16 -50 12 -56 -5z"/>
<path d="M3591 996 c-7 -8 -11 -25 -9 -38 2 -18 9 -23 32 -23 36 0 56 27 40
53 -14 22 -48 27 -63 8z m39 -26 c0 -11 -7 -20 -15 -20 -15 0 -21 21 -8 33 12
13 23 7 23 -13z"/>
<path d="M3670 969 c0 -28 4 -39 15 -39 10 0 15 10 15 30 0 17 5 30 10 30 6 0
10 -13 10 -30 0 -20 5 -30 15 -30 10 0 15 10 15 29 0 34 -13 45 -52 47 -26 2
-28 -1 -28 -37z"/>
<path d="M3930 996 c-6 -8 -10 -25 -8 -38 2 -18 10 -24 36 -26 19 -2 32 1 32
8 0 7 -6 10 -13 7 -8 -3 -20 -1 -28 4 -10 6 -4 9 19 9 33 0 42 16 20 38 -16
16 -43 15 -58 -2z m37 -12 c-3 -3 -12 -4 -19 -1 -8 3 -5 6 6 6 11 1 17 -2 13
-5z"/>
<path d="M4180 996 c-6 -8 -10 -25 -8 -38 2 -18 10 -24 36 -26 19 -2 32 1 32
8 0 7 -6 10 -13 7 -8 -3 -20 -1 -28 4 -10 6 -4 9 19 9 33 0 42 16 20 38 -16
16 -43 15 -58 -2z m37 -12 c-3 -3 -12 -4 -19 -1 -8 3 -5 6 6 6 11 1 17 -2 13
-5z"/>
<path d="M4270 954 c0 -41 4 -54 15 -54 8 0 15 6 15 14 0 8 10 16 23 18 17 2
23 11 25 36 2 17 0 32 -5 33 -4 1 -23 2 -40 4 l-33 3 0 -54z m58 13 c2 -10 -3
-17 -12 -17 -10 0 -16 9 -16 21 0 24 23 21 28 -4z"/>
<path d="M4375 1001 c-4 -7 5 -11 22 -12 28 -1 28 -1 3 -8 -15 -4 -26 -15 -28
-29 -3 -19 1 -21 33 -20 35 1 36 2 33 37 -3 31 -7 36 -30 39 -14 2 -29 -2 -33
-7z m45 -45 c0 -11 -19 -15 -25 -6 -3 5 1 10 9 10 9 0 16 -2 16 -4z"/>
<path d="M4464 995 c-7 -18 3 -35 22 -35 8 0 14 -5 14 -11 0 -6 -9 -8 -20 -4
-12 4 -20 2 -20 -5 0 -7 13 -10 33 -8 39 4 43 27 7 45 -24 12 -25 13 -2 13 12
0 22 5 22 10 0 16 -50 12 -56 -5z"/>
<path d="M5162 740 c3 -35 -9 -50 -40 -51 -20 -1 -14 -5 23 -15 81 -22 88 -20
62 20 -51 77 -47 74 -45 46z"/>
<path d="M1032 678 c-12 -28 -20 -53 -19 -55 2 -2 28 6 58 16 l54 19 -35 3
c-33 4 -35 6 -32 37 2 17 2 32 0 32 -2 0 -14 -23 -26 -52z"/>
<path d="M5245 520 c3 -5 8 -10 11 -10 2 0 4 5 4 10 0 6 -5 10 -11 10 -5 0 -7
-4 -4 -10z"/>
<path d="M427 513 c-14 -14 -6 -32 20 -45 31 -15 29 -33 -4 -33 -13 1 -23 -3
-23 -8 0 -4 15 -7 33 -5 24 2 33 8 35 24 2 17 -5 24 -29 33 -34 12 -31 25 6
34 16 4 15 5 -6 6 -14 0 -29 -2 -32 -6z"/>
<path d="M1142 473 c2 -39 7 -48 23 -50 11 -2 14 0 8 3 -15 7 -17 61 -3 66 6
2 1 9 -10 16 -20 12 -21 11 -18 -35z"/>
<path d="M1989 473 c10 -26 23 -49 29 -51 10 -3 46 88 37 96 -2 2 -12 -15 -21
-39 l-18 -43 -14 42 c-7 23 -18 42 -23 42 -5 0 0 -21 10 -47z"/>
<path d="M2300 470 c0 -27 5 -50 10 -50 6 0 10 23 10 50 0 28 -4 50 -10 50 -5
0 -10 -22 -10 -50z"/>
<path d="M3200 505 c0 -8 -6 -12 -13 -9 -19 7 -39 -20 -35 -48 2 -18 10 -24
36 -26 l32 -3 0 50 c0 28 -4 51 -10 51 -5 0 -10 -7 -10 -15z m-2 -48 c2 -19
-1 -27 -13 -27 -19 0 -30 24 -21 46 9 23 31 11 34 -19z"/>
<path d="M4720 470 c0 -27 5 -50 10 -50 6 0 10 12 10 28 0 15 3 37 6 50 5 16
2 22 -10 22 -13 0 -16 -11 -16 -50z"/>
<path d="M4794 498 c3 -13 6 -35 6 -50 0 -16 5 -28 10 -28 6 0 10 23 10 50 0
39 -3 50 -16 50 -12 0 -15 -6 -10 -22z"/>
<path d="M4932 473 c2 -39 7 -48 23 -50 11 -2 14 0 8 3 -15 7 -17 61 -3 66 6
2 1 9 -10 16 -20 12 -21 11 -18 -35z"/>
<path d="M4992 473 c2 -39 7 -48 23 -50 11 -2 14 0 8 3 -15 7 -17 61 -3 66 6
2 1 9 -10 16 -20 12 -21 11 -18 -35z"/>
<path d="M5670 470 c0 -27 5 -50 10 -50 6 0 10 23 10 50 0 28 -4 50 -10 50 -5
0 -10 -22 -10 -50z"/>
<path d="M5922 473 c2 -39 7 -48 23 -50 11 -2 14 0 8 3 -15 7 -17 61 -3 66 6
2 1 9 -10 16 -20 12 -21 11 -18 -35z"/>
<path d="M6062 473 c2 -39 7 -48 23 -50 11 -2 14 0 8 3 -15 7 -17 61 -3 66 6
2 1 9 -10 16 -20 12 -21 11 -18 -35z"/>
<path d="M6202 473 c2 -39 7 -48 23 -50 11 -2 14 0 8 3 -15 7 -17 61 -3 66 6
2 1 9 -10 16 -20 12 -21 11 -18 -35z"/>
<path d="M520 486 c-6 -8 -10 -25 -8 -38 2 -18 10 -23 33 -25 25 -2 26 -1 7 5
-33 10 -32 26 1 30 29 4 34 11 15 30 -16 16 -33 15 -48 -2z m35 -6 c3 -5 -3
-10 -15 -10 -12 0 -18 5 -15 10 3 6 10 10 15 10 5 0 12 -4 15 -10z"/>
<path d="M650 486 c-6 -8 -10 -25 -8 -38 2 -18 10 -23 33 -25 21 -1 23 0 7 4
-13 2 -26 11 -29 19 -7 19 16 46 34 40 8 -3 11 -1 8 4 -9 14 -31 12 -45 -4z"/>
<path d="M731 486 c-21 -25 -10 -61 18 -61 31 0 50 28 35 53 -15 23 -38 26
-53 8z m37 -29 c2 -19 -1 -27 -13 -27 -19 0 -30 24 -21 46 9 23 31 11 34 -19z"/>
<path d="M800 458 c0 -46 18 -51 22 -5 2 17 8 32 13 32 6 0 11 -15 13 -32 4
-41 22 -44 22 -4 0 33 -13 46 -47 46 -20 1 -23 -4 -23 -37z"/>
<path d="M890 458 c0 -46 18 -51 22 -5 2 17 8 32 13 32 6 0 11 -15 13 -32 4
-41 22 -44 22 -4 0 33 -13 46 -47 46 -20 1 -23 -4 -23 -37z"/>
<path d="M990 486 c-6 -8 -10 -25 -8 -38 2 -18 10 -23 33 -25 25 -2 26 -1 7 5
-33 10 -32 26 1 30 29 4 34 11 15 30 -16 16 -33 15 -48 -2z m35 -6 c3 -5 -3
-10 -15 -10 -12 0 -18 5 -15 10 3 6 10 10 15 10 5 0 12 -4 15 -10z"/>
<path d="M1080 486 c-6 -8 -10 -25 -8 -38 2 -18 10 -23 33 -25 21 -1 23 0 7 4
-13 2 -26 11 -29 19 -7 19 16 46 34 40 8 -3 11 -1 8 4 -9 14 -31 12 -45 -4z"/>
<path d="M1210 486 c-6 -8 -10 -25 -8 -38 2 -18 10 -23 33 -25 25 -2 26 -1 7
5 -33 10 -32 26 1 30 29 4 34 11 15 30 -16 16 -33 15 -48 -2z m35 -6 c3 -5 -3
-10 -15 -10 -12 0 -18 5 -15 10 3 6 10 10 15 10 5 0 12 -4 15 -10z"/>
<path d="M1280 458 c0 -21 5 -38 10 -38 6 0 10 13 10 30 0 17 7 33 17 39 14 7
12 9 -10 8 -24 -2 -27 -6 -27 -39z"/>
<path d="M2091 486 c-21 -25 -10 -61 18 -61 31 0 50 28 35 53 -15 23 -38 26
-53 8z m37 -29 c2 -19 -1 -27 -13 -27 -19 0 -30 24 -21 46 9 23 31 11 34 -19z"/>
<path d="M2200 458 c0 -21 5 -38 10 -38 6 0 10 13 10 30 0 17 7 33 17 39 14 7
12 9 -10 8 -24 -2 -27 -6 -27 -39z"/>
<path d="M2350 486 c-6 -8 -10 -25 -8 -38 2 -18 10 -23 33 -25 25 -2 26 -1 7
5 -33 10 -32 26 1 30 29 4 34 11 15 30 -16 16 -33 15 -48 -2z m35 -6 c3 -5 -3
-10 -15 -10 -12 0 -18 5 -15 10 3 6 10 10 15 10 5 0 12 -4 15 -10z"/>
<path d="M2437 493 c-13 -13 -7 -32 13 -38 27 -8 25 -23 -2 -28 -21 -4 -20 -4
3 -6 37 -2 46 26 14 41 -25 11 -24 34 1 24 8 -3 14 -1 14 4 0 11 -33 14 -43 3z"/>
<path d="M2550 486 c-6 -8 -10 -25 -8 -38 2 -18 10 -23 33 -25 21 -1 23 0 7 4
-13 2 -26 11 -29 19 -7 19 16 46 34 40 8 -3 11 -1 8 4 -9 14 -31 12 -45 -4z"/>
<path d="M2631 486 c-21 -25 -10 -61 18 -61 31 0 50 28 35 53 -15 23 -38 26
-53 8z m37 -29 c2 -19 -1 -27 -13 -27 -19 0 -30 24 -21 46 9 23 31 11 34 -19z"/>
<path d="M2710 458 c0 -46 18 -51 22 -5 2 17 8 32 13 32 6 0 11 -15 13 -32 2
-18 7 -33 12 -33 5 0 10 15 12 33 4 41 21 38 30 -5 6 -31 6 -31 5 7 l-2 40
-52 0 -53 0 0 -37z"/>
<path d="M2840 458 c0 -46 18 -51 22 -5 2 17 8 32 13 32 6 0 11 -15 13 -32 2
-18 7 -33 12 -33 5 0 10 15 12 33 4 41 21 38 30 -5 6 -31 6 -31 5 7 l-2 40
-52 0 -53 0 0 -37z"/>
<path d="M3010 489 l25 -12 -25 -6 c-36 -10 -34 -46 3 -47 26 -1 28 1 25 35
-3 30 -7 36 -28 38 l-25 3 25 -11z m20 -39 c0 -12 -28 -25 -36 -17 -9 9 6 27
22 27 8 0 14 -5 14 -10z"/>
<path d="M3070 458 c0 -46 18 -51 22 -5 2 17 8 32 13 32 6 0 11 -15 13 -32 4
-41 22 -44 22 -4 0 33 -13 46 -47 46 -20 1 -23 -4 -23 -37z"/>
<path d="M3250 486 c-6 -8 -10 -25 -8 -38 2 -18 10 -23 33 -25 25 -2 26 -1 7
5 -33 10 -32 26 1 30 29 4 34 11 15 30 -16 16 -33 15 -48 -2z m35 -6 c3 -5 -3
-10 -15 -10 -12 0 -18 5 -15 10 3 6 10 10 15 10 5 0 12 -4 15 -10z"/>
<path d="M3337 493 c-13 -13 -7 -32 13 -38 27 -8 25 -23 -2 -28 -21 -4 -20 -4
3 -6 37 -2 46 26 14 41 -25 11 -24 34 1 24 8 -3 14 -1 14 4 0 11 -33 14 -43 3z"/>
<path d="M3480 489 l25 -12 -25 -6 c-36 -10 -34 -46 3 -47 26 -1 28 1 25 35
-3 30 -7 36 -28 38 l-25 3 25 -11z m20 -39 c0 -12 -28 -25 -36 -17 -9 9 6 27
22 27 8 0 14 -5 14 -10z"/>
<path d="M3537 493 c-13 -13 -7 -32 13 -38 27 -8 25 -23 -2 -28 -21 -4 -20 -4
3 -6 37 -2 46 26 14 41 -25 11 -24 34 1 24 8 -3 14 -1 14 4 0 11 -33 14 -43 3z"/>
<path d="M3617 493 c-13 -13 -7 -32 13 -38 27 -8 25 -23 -2 -28 -21 -4 -20 -4
3 -6 37 -2 46 26 14 41 -25 11 -24 34 1 24 8 -3 14 -1 14 4 0 11 -33 14 -43 3z"/>
<path d="M3732 491 c-23 -14 -11 -64 18 -72 l25 -6 -25 -11 c-24 -10 -24 -11
-3 -11 12 -1 27 8 33 18 12 24 13 81 1 81 -5 0 -15 2 -23 5 -7 3 -19 1 -26 -4z
m33 -31 c0 -13 -6 -25 -12 -27 -16 -6 -27 21 -19 43 9 23 31 11 31 -16z"/>
<path d="M3810 458 c0 -46 18 -51 22 -5 2 17 8 32 13 32 6 0 11 -15 13 -32 4
-41 22 -44 22 -4 0 33 -13 46 -47 46 -20 1 -23 -4 -23 -37z"/>
<path d="M3910 486 c-6 -8 -10 -25 -8 -38 2 -18 10 -23 33 -25 25 -2 26 -1 7
5 -33 10 -32 26 1 30 29 4 34 11 15 30 -16 16 -33 15 -48 -2z m35 -6 c3 -5 -3
-10 -15 -10 -12 0 -18 5 -15 10 3 6 10 10 15 10 5 0 12 -4 15 -10z"/>
<path d="M3990 486 c-6 -8 -10 -25 -8 -38 2 -18 10 -23 33 -25 25 -2 26 -1 7
5 -33 10 -32 26 1 30 29 4 34 11 15 30 -16 16 -33 15 -48 -2z m35 -6 c3 -5 -3
-10 -15 -10 -12 0 -18 5 -15 10 3 6 10 10 15 10 5 0 12 -4 15 -10z"/>
<path d="M4077 493 c-13 -13 -7 -32 13 -38 27 -8 25 -23 -2 -28 -21 -4 -20 -4
3 -6 37 -2 46 26 14 41 -25 11 -24 34 1 24 8 -3 14 -1 14 4 0 11 -33 14 -43 3z"/>
<path d="M4850 486 c-6 -8 -10 -25 -8 -38 2 -18 10 -23 33 -25 25 -2 26 -1 7
5 -33 10 -32 26 1 30 29 4 34 11 15 30 -16 16 -33 15 -48 -2z m35 -6 c3 -5 -3
-10 -15 -10 -12 0 -18 5 -15 10 3 6 10 10 15 10 5 0 12 -4 15 -10z"/>
<path d="M5040 458 c0 -21 5 -38 10 -38 6 0 10 13 10 30 0 17 7 33 17 39 14 7
12 9 -10 8 -24 -2 -27 -6 -27 -39z"/>
<path d="M5110 486 c-6 -8 -10 -25 -8 -38 2 -18 10 -23 33 -25 25 -2 26 -1 7
5 -33 10 -32 26 1 30 29 4 34 11 15 30 -16 16 -33 15 -48 -2z m35 -6 c3 -5 -3
-10 -15 -10 -12 0 -18 5 -15 10 3 6 10 10 15 10 5 0 12 -4 15 -10z"/>
<path d="M5260 489 l25 -12 -25 -6 c-36 -10 -34 -46 3 -47 26 -1 28 1 25 35
-3 30 -7 36 -28 38 l-25 3 25 -11z m20 -39 c0 -12 -28 -25 -36 -17 -9 9 6 27
22 27 8 0 14 -5 14 -10z"/>
<path d="M5411 486 c-21 -25 -10 -61 18 -61 31 0 50 28 35 53 -15 23 -38 26
-53 8z m37 -29 c2 -19 -1 -27 -13 -27 -19 0 -30 24 -21 46 9 23 31 11 34 -19z"/>
<path d="M5483 465 c2 -37 4 -40 35 -43 31 -3 32 -2 32 32 0 20 -4 36 -10 36
-5 0 -10 -13 -10 -30 0 -39 -27 -41 -36 -2 -10 46 -13 49 -11 7z"/>
<path d="M5570 458 c0 -21 5 -38 10 -38 6 0 10 13 10 30 0 17 7 33 17 39 14 7
12 9 -10 8 -24 -2 -27 -6 -27 -39z"/>
<path d="M5720 486 c-6 -8 -10 -25 -8 -38 2 -18 10 -23 33 -25 25 -2 26 -1 7
5 -33 10 -32 26 1 30 29 4 34 11 15 30 -16 16 -33 15 -48 -2z m35 -6 c3 -5 -3
-10 -15 -10 -12 0 -18 5 -15 10 3 6 10 10 15 10 5 0 12 -4 15 -10z"/>
<path d="M5847 493 c-13 -13 -7 -32 13 -38 27 -8 25 -23 -2 -28 -21 -4 -20 -4
3 -6 37 -2 46 26 14 41 -25 11 -24 34 1 24 8 -3 14 -1 14 4 0 11 -33 14 -43 3z"/>
<path d="M6000 489 l25 -12 -25 -6 c-36 -10 -34 -46 3 -47 26 -1 28 1 25 35
-3 30 -7 36 -28 38 l-25 3 25 -11z m20 -39 c0 -12 -28 -25 -36 -17 -9 9 6 27
22 27 8 0 14 -5 14 -10z"/>
<path d="M6113 465 c2 -37 4 -40 35 -43 31 -3 32 -2 32 32 0 20 -4 36 -10 36
-5 0 -10 -13 -10 -30 0 -39 -27 -41 -36 -2 -10 46 -13 49 -11 7z"/>
<path d="M2160 455 c0 -19 5 -35 10 -35 6 0 10 16 10 35 0 19 -4 35 -10 35 -5
0 -10 -16 -10 -35z"/>
<path d="M3680 455 c0 -19 5 -35 10 -35 6 0 10 16 10 35 0 19 -4 35 -10 35 -5
0 -10 -16 -10 -35z"/>
<path d="M4750 480 c0 -8 5 -22 10 -30 9 -13 11 -13 20 0 5 8 10 22 10 30 0
13 -1 13 -10 0 -9 -13 -11 -13 -20 0 -9 13 -10 13 -10 0z"/>
<path d="M5358 440 c-3 -49 4 -65 16 -34 9 24 7 84 -3 84 -5 0 -11 -23 -13
-50z"/>
<path d="M2820 1410 l0 -50 45 0 c45 0 45 0 45 35 0 19 -4 35 -10 35 -5 0 -10
-13 -10 -30 0 -25 -4 -30 -25 -30 -23 0 -25 4 -25 45 0 25 -4 45 -10 45 -5 0
-10 -22 -10 -50z"/>
<path d="M2931 1434 c-2 -20 21 -74 30 -74 10 0 30 44 28 63 0 7 -7 -1 -14
-18 l-13 -30 -15 35 c-9 19 -16 30 -16 24z"/>
<path d="M3028 1433 c-13 -3 -18 -15 -18 -39 0 -19 5 -34 10 -34 6 0 10 13 10
30 0 17 7 33 18 39 18 11 10 12 -20 4z"/>
<path d="M3080 1426 c-6 -8 -10 -25 -8 -38 2 -18 10 -23 33 -25 25 -2 26 -1 7
5 -33 10 -32 26 1 30 29 4 34 11 15 30 -16 16 -33 15 -48 -2z m35 -6 c3 -5 -3
-10 -15 -10 -12 0 -18 5 -15 10 3 6 10 10 15 10 5 0 12 -4 15 -10z"/>
<path d="M3163 1405 c2 -37 4 -40 35 -43 31 -3 32 -2 32 32 0 20 -4 36 -10 36
-5 0 -10 -13 -10 -30 0 -39 -27 -41 -36 -2 -10 46 -13 49 -11 7z"/>
<path d="M3268 1433 c-13 -3 -18 -15 -18 -39 0 -19 5 -34 10 -34 6 0 10 13 10
30 0 17 7 33 18 39 18 11 10 12 -20 4z"/>
<path d="M3810 1420 c8 -5 20 -10 25 -10 6 0 3 5 -5 10 -8 5 -19 10 -25 10 -5
0 -3 -5 5 -10z"/>
</g>
</svg>
