<?xml version="1.0" standalone="no"?>
<!DOCTYPE svg PUBLIC "-//W3C//DTD SVG 20010904//EN"
 "http://www.w3.org/TR/2001/REC-SVG-20010904/DTD/svg10.dtd">
<svg version="1.0" xmlns="http://www.w3.org/2000/svg"
 width="560.000000pt" height="443.000000pt" viewBox="0 0 560.000000 443.000000"
 preserveAspectRatio="xMidYMid meet">

<g transform="translate(0.000000,443.000000) scale(0.100000,-0.100000)"
fill="#000000" stroke="none">
<path d="M224 4348 l-19 -23 23 19 c21 18 27 26 19 26 -2 0 -12 -10 -23 -22z"/>
<path d="M225 4240 c10 -11 20 -20 23 -20 3 0 -3 9 -13 20 -10 11 -20 20 -23
20 -3 0 3 -9 13 -20z"/>
<path d="M276 3942 c-3 -5 1 -9 9 -9 8 0 12 4 9 9 -3 4 -7 8 -9 8 -2 0 -6 -4
-9 -8z"/>
<path d="M2233 3923 c108 -2 286 -2 395 0 108 1 19 2 -198 2 -217 0 -306 -1
-197 -2z"/>
<path d="M3513 3923 c71 -2 183 -2 250 0 67 1 10 3 -128 3 -137 0 -192 -2
-122 -3z"/>
<path d="M4132 3923 c70 -2 187 -2 260 0 73 1 16 3 -127 3 -143 0 -203 -2
-133 -3z"/>
<path d="M4878 3923 c122 -2 322 -2 445 0 122 1 22 2 -223 2 -245 0 -345 -1
-222 -2z"/>
<path d="M3894 3775 c0 -77 2 -107 3 -67 2 40 2 103 0 140 -2 37 -3 4 -3 -73z"/>
<path d="M4644 3775 c0 -77 2 -107 3 -67 2 40 2 103 0 140 -2 37 -3 4 -3 -73z"/>
<path d="M2122 3818 c-7 -7 -12 -24 -12 -38 0 -14 5 -31 12 -38 14 -14 68 -16
68 -3 0 4 -11 6 -25 4 -19 -4 -27 0 -36 21 -15 33 4 60 38 53 13 -2 23 0 23 4
0 13 -54 11 -68 -3z"/>
<path d="M2372 3783 c2 -39 7 -48 23 -50 11 -2 14 0 8 3 -16 7 -17 64 -2 64 6
0 4 7 -5 15 -23 24 -27 18 -24 -32z"/>
<path d="M3460 3780 c0 -57 20 -69 21 -12 1 36 1 37 11 10 5 -16 13 -28 18
-28 11 0 24 39 16 47 -3 4 -6 1 -6 -5 0 -22 -18 -12 -24 13 -4 14 -13 25 -21
25 -11 0 -15 -13 -15 -50z"/>
<path d="M3534 3808 c3 -13 6 -35 6 -50 0 -16 5 -28 10 -28 6 0 10 23 10 50 0
39 -3 50 -16 50 -12 0 -15 -6 -10 -22z"/>
<path d="M4092 3818 c-7 -7 -12 -24 -12 -38 0 -31 17 -50 45 -50 28 0 45 19
45 50 0 31 -17 50 -45 50 -12 0 -26 -5 -33 -12z m58 -13 c16 -19 -2 -65 -25
-65 -23 0 -41 46 -25 65 7 8 18 15 25 15 7 0 18 -7 25 -15z"/>
<path d="M4300 3817 c0 -8 -10 -13 -22 -13 -20 1 -23 -4 -23 -34 0 -32 3 -35
33 -38 l32 -3 0 50 c0 28 -4 51 -10 51 -5 0 -10 -6 -10 -13z m-2 -50 c2 -19
-1 -27 -13 -27 -19 0 -30 24 -21 46 9 23 31 11 34 -19z"/>
<path d="M4720 3781 c0 -28 5 -51 10 -51 6 0 10 9 10 20 0 27 24 25 44 -2 15
-20 16 -20 10 -3 -4 11 -7 34 -8 50 -1 26 -5 30 -33 33 l-33 3 0 -50z m50 24
c0 -8 -7 -15 -15 -15 -8 0 -15 7 -15 15 0 8 7 15 15 15 8 0 15 -7 15 -15z"/>
<path d="M4982 3783 c2 -39 7 -48 23 -50 11 -2 14 0 8 3 -16 7 -17 64 -2 64 6
0 4 7 -5 15 -23 24 -27 18 -24 -32z"/>
<path d="M5442 3783 c2 -39 7 -48 23 -50 11 -2 14 0 8 3 -16 7 -17 64 -2 64 6
0 4 7 -5 15 -23 24 -27 18 -24 -32z"/>
<path d="M2212 3774 c3 -36 6 -39 36 -42 31 -3 32 -2 32 32 0 20 -4 36 -10 36
-5 0 -10 -13 -10 -30 0 -20 -5 -30 -15 -30 -10 0 -15 10 -15 29 0 17 -5 33
-11 36 -7 5 -9 -6 -7 -31z"/>
<path d="M2297 3803 c-13 -13 -7 -32 13 -38 27 -8 25 -22 -2 -28 -16 -4 -14
-5 6 -4 38 2 45 23 12 38 -26 12 -26 35 0 25 8 -3 14 -1 14 4 0 11 -33 14 -43
3z"/>
<path d="M2431 3796 c-21 -25 -10 -61 18 -61 31 0 50 28 35 53 -15 23 -38 26
-53 8z m37 -29 c2 -19 -1 -27 -12 -27 -20 0 -29 16 -21 41 9 27 29 19 33 -14z"/>
<path d="M2510 3768 c0 -46 18 -51 22 -5 2 17 8 32 13 32 6 0 11 -15 13 -32 2
-18 7 -33 12 -33 5 0 10 15 12 33 2 17 8 32 13 32 6 0 11 -15 13 -32 4 -37 22
-45 22 -10 0 40 -16 52 -70 52 l-50 0 0 -37z"/>
<path d="M2650 3796 c-6 -8 -10 -25 -8 -38 2 -18 10 -23 33 -25 18 -1 22 1 10
4 -34 9 -41 23 -13 23 32 0 44 16 28 35 -16 19 -34 19 -50 1z m35 -6 c3 -6 -4
-10 -17 -10 -18 0 -20 2 -8 10 19 12 18 12 25 0z"/>
<path d="M2730 3768 c0 -21 5 -38 10 -38 6 0 10 13 10 30 0 17 7 33 17 39 14
7 12 9 -10 8 -24 -2 -27 -6 -27 -39z"/>
<path d="M3590 3796 c-6 -8 -10 -25 -8 -38 2 -18 10 -23 33 -25 18 -1 22 1 10
4 -34 9 -41 23 -13 23 32 0 44 16 28 35 -16 19 -34 19 -50 1z m35 -6 c3 -6 -4
-10 -17 -10 -18 0 -20 2 -8 10 19 12 18 12 25 0z"/>
<path d="M3660 3768 c0 -46 18 -51 22 -5 2 17 8 32 13 32 6 0 11 -15 13 -32 4
-41 22 -44 22 -4 0 33 -13 46 -47 46 -20 1 -23 -4 -23 -37z"/>
<path d="M3752 3774 c3 -36 6 -39 36 -42 31 -3 32 -2 32 32 0 20 -4 36 -10 36
-5 0 -10 -13 -10 -30 0 -20 -5 -30 -15 -30 -10 0 -15 10 -15 29 0 17 -5 33
-11 36 -7 5 -9 -6 -7 -31z"/>
<path d="M4190 3768 c0 -21 5 -38 10 -38 6 0 10 13 10 30 0 17 7 33 17 39 14
7 12 9 -10 8 -24 -2 -27 -6 -27 -39z"/>
<path d="M4350 3796 c-6 -8 -10 -25 -8 -38 2 -18 10 -23 33 -25 18 -1 22 1 10
4 -34 9 -41 23 -13 23 32 0 44 16 28 35 -16 19 -34 19 -50 1z m35 -6 c3 -6 -4
-10 -17 -10 -18 0 -20 2 -8 10 19 12 18 12 25 0z"/>
<path d="M4420 3768 c0 -21 5 -38 10 -38 6 0 10 13 10 30 0 17 7 33 17 39 14
7 12 9 -10 8 -24 -2 -27 -6 -27 -39z"/>
<path d="M4830 3796 c-6 -8 -10 -25 -8 -38 2 -18 10 -23 33 -25 18 -1 22 1 10
4 -34 9 -41 23 -13 23 32 0 44 16 28 35 -16 19 -34 19 -50 1z m35 -6 c3 -6 -4
-10 -17 -10 -18 0 -20 2 -8 10 19 12 18 12 25 0z"/>
<path d="M4907 3803 c-13 -13 -7 -32 13 -38 27 -8 25 -22 -2 -28 -16 -4 -14
-5 6 -4 38 2 45 23 12 38 -26 12 -26 35 0 25 8 -3 14 -1 14 4 0 11 -33 14 -43
3z"/>
<path d="M5034 3799 c-5 -9 -2 -10 10 -6 10 4 23 4 29 0 7 -4 2 -9 -13 -13
-36 -9 -34 -44 3 -48 27 -3 28 -2 25 35 -2 30 -7 39 -25 41 -11 2 -25 -2 -29
-9z m46 -39 c0 -12 -28 -25 -36 -17 -9 9 6 27 22 27 8 0 14 -5 14 -10z"/>
<path d="M5122 3774 c3 -36 6 -39 36 -42 31 -3 32 -2 32 32 0 20 -4 36 -10 36
-5 0 -10 -13 -10 -30 0 -20 -5 -30 -15 -30 -10 0 -15 10 -15 29 0 17 -5 33
-11 36 -7 5 -9 -6 -7 -31z"/>
<path d="M5210 3768 c0 -46 18 -51 22 -5 3 28 7 32 33 33 40 1 56 -9 25 -16
-36 -9 -34 -44 3 -48 27 -3 28 -2 25 35 l-3 38 -52 0 -53 0 0 -37z m100 -8 c0
-12 -28 -25 -36 -17 -9 9 6 27 22 27 8 0 14 -5 14 -10z"/>
<path d="M5350 3768 c0 -46 18 -51 22 -5 2 17 8 32 13 32 6 0 11 -15 13 -32 4
-41 22 -44 22 -4 0 33 -13 46 -47 46 -20 1 -23 -4 -23 -37z"/>
<path d="M72 3738 c-7 -7 -12 -24 -12 -38 0 -14 5 -31 12 -38 13 -13 54 -16
62 -4 2 4 -7 8 -21 7 -14 0 -31 8 -37 18 -16 24 4 52 38 52 14 -1 26 3 26 7 0
13 -55 9 -68 -4z"/>
<path d="M160 3700 c0 -27 5 -50 10 -50 6 0 10 23 10 50 0 28 -4 50 -10 50 -5
0 -10 -22 -10 -50z"/>
<path d="M412 3703 c2 -39 7 -48 23 -50 11 -2 14 0 8 3 -15 7 -17 61 -3 66 6
2 1 9 -10 16 -20 12 -21 11 -18 -35z"/>
<path d="M250 3716 c-6 -8 -10 -25 -8 -38 2 -18 10 -23 33 -25 25 -2 26 -1 7
5 -33 10 -32 26 1 30 29 4 34 11 15 30 -16 16 -33 15 -48 -2z m35 -6 c3 -5 -3
-10 -15 -10 -12 0 -18 5 -15 10 3 6 10 10 15 10 5 0 12 -4 15 -10z"/>
<path d="M338 3723 c-13 -3 -18 -15 -18 -39 0 -43 18 -45 22 -2 4 46 28 49 28
4 0 -20 5 -36 10 -36 14 0 12 54 -2 68 -7 7 -14 11 -17 11 -4 -1 -14 -3 -23
-6z"/>
<path d="M200 3685 c0 -19 5 -35 10 -35 6 0 10 16 10 35 0 19 -4 35 -10 35 -5
0 -10 -16 -10 -35z"/>
<path d="M753 3410 c0 -30 2 -43 4 -27 2 15 2 39 0 55 -2 15 -4 2 -4 -28z"/>
<path d="M1329 3439 c-12 -22 -5 -84 11 -94 5 -3 4 8 -1 25 -8 21 -8 39 0 60
12 35 7 40 -10 9z"/>
<path d="M1381 3433 c8 -24 8 -42 0 -65 -10 -30 -9 -31 4 -14 8 11 15 32 15
46 0 14 -7 35 -15 46 -13 17 -14 16 -4 -13z"/>
<path d="M778 3438 c-9 -27 7 -73 27 -76 18 -2 19 -2 3 8 -10 6 -18 20 -18 30
0 12 7 20 18 21 13 0 14 2 2 6 -8 3 -18 10 -21 15 -3 5 -8 4 -11 -4z"/>
<path d="M970 3405 c0 -25 5 -45 10 -45 6 0 10 10 10 23 0 12 3 32 6 45 5 16
2 22 -10 22 -12 0 -16 -10 -16 -45z"/>
<path d="M1029 3423 c-8 -22 -12 -25 -20 -13 -8 12 -10 11 -7 -4 5 -30 25 -30
34 1 8 28 8 27 14 -12 l7 -40 2 48 c1 52 -14 62 -30 20z"/>
<path d="M364 3416 c-11 -28 1 -51 26 -53 25 -3 25 -3 3 7 -13 5 -23 16 -23
25 0 9 10 20 23 25 l22 9 -23 0 c-12 1 -25 -5 -28 -13z"/>
<path d="M434 3416 c-11 -29 0 -51 26 -51 21 0 25 5 25 30 0 24 -5 31 -23 33
-13 2 -24 -3 -28 -12z m43 -12 c8 -21 -13 -42 -28 -27 -13 13 -5 43 11 43 6 0
13 -7 17 -16z"/>
<path d="M511 3393 c1 -36 2 -37 8 -8 8 40 38 46 44 8 4 -28 4 -28 3 2 -1 25
-6 31 -28 33 -26 3 -28 1 -27 -35z"/>
<path d="M600 3414 c0 -9 9 -18 20 -21 26 -7 26 -20 0 -26 -18 -4 -18 -5 2 -3
29 1 36 26 9 33 -28 7 -27 20 2 26 19 4 18 4 -5 6 -20 1 -28 -4 -28 -15z"/>
<path d="M663 3400 c2 -31 5 -35 30 -36 25 -1 27 2 26 35 -1 36 -1 36 -8 6 -3
-17 -13 -30 -21 -30 -8 0 -18 13 -22 30 -6 29 -6 29 -5 -5z"/>
<path d="M834 3416 c-12 -30 0 -51 31 -53 18 -1 22 1 10 4 -34 9 -41 23 -11
23 21 0 27 4 24 18 -4 22 -46 29 -54 8z m46 -6 c0 -5 -9 -10 -21 -10 -11 0
-17 5 -14 10 3 6 13 10 21 10 8 0 14 -4 14 -10z"/>
<path d="M911 3393 c1 -27 3 -31 6 -13 2 14 12 31 21 38 14 11 13 12 -6 12
-19 0 -22 -5 -21 -37z"/>
<path d="M1084 3416 c-12 -30 0 -51 31 -53 18 -1 22 1 10 4 -34 9 -41 23 -11
23 21 0 27 4 24 18 -4 22 -46 29 -54 8z m46 -6 c0 -5 -9 -10 -21 -10 -11 0
-17 5 -14 10 3 6 13 10 21 10 8 0 14 -4 14 -10z"/>
<path d="M1161 3393 c1 -36 2 -37 8 -8 8 40 38 46 44 8 4 -28 4 -28 3 2 -1 25
-6 31 -28 33 -26 3 -28 1 -27 -35z"/>
<path d="M1243 3400 c2 -31 5 -35 30 -36 25 -1 27 2 26 35 -1 36 -1 36 -8 6
-3 -17 -13 -30 -21 -30 -8 0 -18 13 -22 30 -6 29 -6 29 -5 -5z"/>
<path d="M2325 3330 c18 -20 16 -20 -1016 -23 l-1034 -2 1034 -3 1034 -2 -19
-22 c-21 -23 -22 -23 56 8 l44 18 -49 22 c-63 28 -73 29 -50 4z"/>
<path d="M2605 3153 c-12 -21 -8 -83 6 -83 5 0 9 14 9 30 0 17 5 30 10 30 6 0
10 -13 10 -30 0 -41 20 -38 21 3 1 17 1 36 0 41 -1 5 4 13 11 17 10 7 10 9 -1
9 -8 0 -20 -8 -27 -17 -7 -10 -16 -14 -20 -10 -5 4 -2 12 6 17 13 9 13 10 0
10 -8 0 -20 -8 -25 -17z"/>
<path d="M2802 3120 c0 -41 2 -47 7 -25 9 43 38 45 44 3 l5 -33 -2 35 c-1 28
-5 36 -23 38 -12 2 -24 11 -26 20 -3 9 -5 -8 -5 -38z"/>
<path d="M3389 3149 c-12 -22 -5 -84 11 -94 5 -3 4 8 -1 25 -8 21 -8 39 0 60
12 35 7 40 -10 9z"/>
<path d="M3441 3143 c8 -24 8 -42 0 -65 -10 -30 -9 -31 4 -14 8 11 15 32 15
46 0 14 -7 35 -15 46 -13 17 -14 16 -4 -13z"/>
<path d="M3010 3115 c0 -25 5 -45 10 -45 6 0 10 20 10 45 0 25 -4 45 -10 45
-5 0 -10 -20 -10 -45z"/>
<path d="M3048 3148 c-9 -27 7 -73 27 -76 18 -2 19 -2 3 8 -10 6 -18 20 -18
30 0 12 7 20 18 21 13 0 14 2 2 6 -8 3 -18 10 -21 15 -3 5 -8 4 -11 -4z"/>
<path d="M2538 3133 c27 -5 32 -53 6 -53 -10 0 -14 6 -10 15 3 8 1 15 -4 15
-6 0 -10 -9 -10 -20 0 -16 7 -20 31 -20 28 0 30 2 27 33 -3 28 -7 32 -33 34
-20 1 -23 0 -7 -4z"/>
<path d="M2693 3105 c0 -22 2 -30 4 -17 2 12 2 30 0 40 -3 9 -5 -1 -4 -23z"/>
<path d="M2734 3126 c-11 -28 1 -51 26 -53 25 -3 25 -3 3 7 -13 5 -23 16 -23
25 0 9 10 20 23 25 l22 9 -23 0 c-12 1 -25 -5 -28 -13z"/>
<path d="M2884 3126 c-12 -30 0 -51 31 -53 18 -1 22 1 10 4 -34 9 -41 23 -11
23 21 0 27 4 24 18 -4 22 -46 29 -54 8z m46 -6 c0 -5 -9 -10 -21 -10 -11 0
-17 5 -14 10 3 6 13 10 21 10 8 0 14 -4 14 -10z"/>
<path d="M2961 3103 c1 -27 3 -31 6 -13 2 14 12 31 21 38 14 11 13 12 -6 12
-19 0 -22 -5 -21 -37z"/>
<path d="M3104 3126 c-12 -30 0 -51 31 -53 18 -1 22 1 10 4 -34 9 -41 23 -11
23 21 0 27 4 24 18 -4 22 -46 29 -54 8z m46 -6 c0 -5 -9 -10 -21 -10 -11 0
-17 5 -14 10 3 6 13 10 21 10 8 0 14 -4 14 -10z"/>
<path d="M3181 3102 c1 -36 2 -36 8 -7 9 43 39 45 44 3 l4 -33 1 33 c3 43 32
45 32 2 0 -16 5 -30 10 -30 12 0 13 40 2 56 -4 6 -28 12 -54 12 l-48 1 1 -37z"/>
<path d="M3310 3124 c0 -9 9 -18 20 -21 26 -7 26 -20 0 -26 -18 -4 -18 -5 2
-3 29 1 36 26 9 33 -28 7 -27 20 2 26 19 4 18 4 -5 6 -20 1 -28 -4 -28 -15z"/>
<path d="M3524 3042 l19 -22 -559 -3 -559 -2 559 -3 c558 -2 559 -2 541 -22
-23 -25 -13 -24 50 4 l49 22 -44 18 c-78 31 -77 31 -56 8z"/>
<path d="M2623 2820 c0 -30 2 -43 4 -27 2 15 2 39 0 55 -2 15 -4 2 -4 -28z"/>
<path d="M2758 2848 c-9 -27 7 -73 27 -76 18 -2 19 -2 3 8 -10 6 -18 20 -18
30 0 12 7 20 18 21 13 0 14 2 2 6 -8 3 -18 10 -21 15 -3 5 -8 4 -11 -4z"/>
<path d="M2890 2815 c0 -25 5 -45 10 -45 6 0 10 20 10 45 0 25 -4 45 -10 45
-5 0 -10 -20 -10 -45z"/>
<path d="M2928 2848 c-9 -27 7 -73 27 -76 18 -2 19 -2 3 8 -10 6 -18 20 -18
30 0 12 7 20 18 21 13 0 14 2 2 6 -8 3 -18 10 -21 15 -3 5 -8 4 -11 -4z"/>
<path d="M2653 2805 c0 -22 2 -30 4 -17 2 12 2 30 0 40 -3 9 -5 -1 -4 -23z"/>
<path d="M2690 2824 c0 -9 9 -18 20 -21 26 -7 26 -20 0 -26 -18 -4 -18 -5 2
-3 29 1 36 26 9 33 -28 7 -27 20 2 26 19 4 18 4 -5 6 -20 1 -28 -4 -28 -15z"/>
<path d="M2814 2826 c-12 -30 0 -51 31 -53 18 -1 22 1 10 4 -34 9 -41 23 -11
23 21 0 27 4 24 18 -4 22 -46 29 -54 8z m46 -6 c0 -5 -9 -10 -21 -10 -11 0
-17 5 -14 10 3 6 13 10 21 10 8 0 14 -4 14 -10z"/>
<path d="M2984 2826 c-12 -30 0 -51 31 -53 18 -1 22 1 10 4 -34 9 -41 23 -11
23 21 0 27 4 24 18 -4 22 -46 29 -54 8z m46 -6 c0 -5 -9 -10 -21 -10 -11 0
-17 5 -14 10 3 6 13 10 21 10 8 0 14 -4 14 -10z"/>
<path d="M3061 2802 c1 -36 2 -36 8 -7 9 43 39 45 44 3 l4 -33 1 33 c3 43 32
45 32 2 0 -16 5 -30 10 -30 12 0 13 40 2 56 -4 6 -28 12 -54 12 l-48 1 1 -37z"/>
<path d="M3180 2824 c0 -9 9 -18 20 -21 26 -7 26 -20 0 -26 -18 -4 -18 -5 2
-3 29 1 36 26 9 33 -28 7 -27 20 2 26 19 4 18 4 -5 6 -20 1 -28 -4 -28 -15z"/>
<path d="M2486 2746 l-50 -22 54 -22 c59 -25 70 -24 40 3 l-20 18 22 24 c26
28 17 28 -46 -1z"/>
<path d="M808 2569 c-22 -12 -24 -62 -4 -79 8 -6 25 -10 38 -7 21 4 20 4 -4 6
-21 1 -29 7 -34 28 -8 30 16 55 44 46 15 -4 15 -3 2 6 -18 13 -20 13 -42 0z"/>
<path d="M1430 2566 c0 -8 -10 -16 -22 -18 -18 -2 -23 -10 -23 -33 0 -25 4
-30 28 -33 26 -3 27 -2 27 47 0 28 -2 51 -5 51 -3 0 -5 -6 -5 -14z m-5 -51 c0
-28 -29 -25 -33 3 -3 19 0 23 15 20 10 -2 18 -12 18 -23z"/>
<path d="M1549 2559 c-12 -22 -5 -84 11 -94 5 -3 4 8 -1 25 -8 21 -8 39 0 60
12 35 7 40 -10 9z"/>
<path d="M1593 2530 c0 -30 2 -43 4 -27 2 15 2 39 0 55 -2 15 -4 2 -4 -28z"/>
<path d="M2241 2553 c8 -24 8 -42 0 -65 -10 -30 -9 -31 4 -14 8 11 15 32 15
46 0 14 -7 35 -15 46 -13 17 -14 16 -4 -13z"/>
<path d="M1728 2558 c-9 -27 7 -73 27 -76 18 -2 19 -2 3 8 -10 6 -18 20 -18
30 0 12 7 20 18 21 13 0 14 2 2 6 -8 3 -18 10 -21 15 -3 5 -8 4 -11 -4z"/>
<path d="M1860 2525 c0 -25 5 -45 10 -45 6 0 10 20 10 45 0 25 -4 45 -10 45
-5 0 -10 -20 -10 -45z"/>
<path d="M1898 2558 c-9 -27 7 -73 27 -76 18 -2 19 -2 3 8 -10 6 -18 20 -18
30 0 12 7 20 18 21 13 0 14 2 2 6 -8 3 -18 10 -21 15 -3 5 -8 4 -11 -4z"/>
<path d="M361 2498 c1 -29 3 -45 6 -35 2 9 13 17 23 17 11 0 23 8 29 17 13 25
-5 53 -34 53 -24 0 -25 -3 -24 -52z m49 17 c0 -28 -24 -34 -34 -9 -8 20 1 34
20 34 8 0 14 -10 14 -25z"/>
<path d="M468 2543 c27 -5 32 -53 6 -53 -10 0 -14 6 -10 15 3 8 1 15 -4 15 -6
0 -10 -9 -10 -20 0 -16 7 -20 31 -20 28 0 30 2 27 33 -3 28 -7 32 -33 34 -20
1 -23 0 -7 -4z"/>
<path d="M520 2534 c0 -9 9 -18 20 -21 26 -7 26 -20 0 -26 -18 -4 -18 -5 2 -3
29 1 36 26 9 33 -28 7 -27 20 2 26 19 4 18 4 -5 6 -20 1 -28 -4 -28 -15z"/>
<path d="M590 2534 c0 -9 9 -18 20 -21 26 -7 26 -20 0 -26 -18 -4 -18 -5 2 -3
29 1 36 26 9 33 -28 7 -27 20 2 26 19 4 18 4 -5 6 -20 1 -28 -4 -28 -15z"/>
<path d="M664 2536 c-12 -30 0 -51 31 -53 18 -1 22 1 10 4 -34 9 -41 23 -11
23 21 0 27 4 24 18 -4 22 -46 29 -54 8z m46 -6 c0 -5 -9 -10 -21 -10 -11 0
-17 5 -14 10 3 6 13 10 21 10 8 0 14 -4 14 -10z"/>
<path d="M741 2513 c1 -27 3 -31 6 -13 2 14 12 31 21 38 14 11 13 12 -6 12
-19 0 -22 -5 -21 -37z"/>
<path d="M884 2536 c-11 -29 0 -51 26 -51 21 0 25 5 25 30 0 24 -5 31 -23 33
-13 2 -24 -3 -28 -12z m43 -12 c8 -21 -13 -42 -28 -27 -13 13 -5 43 11 43 6 0
13 -7 17 -16z"/>
<path d="M961 2512 c1 -36 2 -36 8 -7 9 43 39 45 44 3 l4 -33 1 33 c3 43 32
45 32 2 0 -16 5 -30 10 -30 12 0 13 40 2 56 -4 6 -28 12 -54 12 l-48 1 1 -37z"/>
<path d="M1091 2512 c1 -36 2 -36 8 -7 9 43 39 45 44 3 l4 -33 1 33 c3 43 32
45 32 2 0 -16 5 -30 10 -30 12 0 13 40 2 56 -4 6 -28 12 -54 12 l-48 1 1 -37z"/>
<path d="M1238 2543 c27 -5 32 -53 6 -53 -10 0 -14 6 -10 15 3 8 1 15 -4 15
-6 0 -10 -9 -10 -20 0 -16 7 -20 31 -20 28 0 30 2 27 33 -3 28 -7 32 -33 34
-20 1 -23 0 -7 -4z"/>
<path d="M1301 2513 c1 -36 2 -37 8 -8 8 40 38 46 44 8 4 -28 4 -28 3 2 -1 25
-6 31 -28 33 -26 3 -28 1 -27 -35z"/>
<path d="M1464 2536 c-12 -30 0 -51 31 -53 18 -1 22 1 10 4 -34 9 -41 23 -11
23 21 0 27 4 24 18 -4 22 -46 29 -54 8z m46 -6 c0 -5 -9 -10 -21 -10 -11 0
-17 5 -14 10 3 6 13 10 21 10 8 0 14 -4 14 -10z"/>
<path d="M1633 2515 c0 -22 2 -30 4 -17 2 12 2 30 0 40 -3 9 -5 -1 -4 -23z"/>
<path d="M1660 2534 c0 -9 9 -18 20 -21 26 -7 26 -20 0 -26 -18 -4 -18 -5 2
-3 29 1 36 26 9 33 -28 7 -27 20 2 26 19 4 18 4 -5 6 -20 1 -28 -4 -28 -15z"/>
<path d="M1784 2536 c-12 -30 0 -51 31 -53 18 -1 22 1 10 4 -34 9 -41 23 -11
23 21 0 27 4 24 18 -4 22 -46 29 -54 8z m46 -6 c0 -5 -9 -10 -21 -10 -11 0
-17 5 -14 10 3 6 13 10 21 10 8 0 14 -4 14 -10z"/>
<path d="M1954 2536 c-12 -30 0 -51 31 -53 18 -1 22 1 10 4 -34 9 -41 23 -11
23 21 0 27 4 24 18 -4 22 -46 29 -54 8z m46 -6 c0 -5 -9 -10 -21 -10 -11 0
-17 5 -14 10 3 6 13 10 21 10 8 0 14 -4 14 -10z"/>
<path d="M2031 2512 c1 -36 2 -36 8 -7 9 43 39 45 44 3 l4 -33 1 33 c3 43 32
45 32 2 0 -16 5 -30 10 -30 12 0 13 40 2 56 -4 6 -28 12 -54 12 l-48 1 1 -37z"/>
<path d="M2160 2534 c0 -9 9 -18 20 -21 26 -7 26 -20 0 -26 -18 -4 -18 -5 2
-3 29 1 36 26 9 33 -28 7 -27 20 2 26 19 4 18 4 -5 6 -20 1 -28 -4 -28 -15z"/>
<path d="M2325 2460 c18 -20 16 -20 -1016 -23 l-1034 -2 1034 -3 1034 -2 -19
-21 c-19 -22 -19 -22 5 -14 13 4 40 14 60 23 l36 15 -50 23 c-62 28 -73 29
-50 4z"/>
<path d="M2799 2269 c-12 -22 -5 -84 11 -94 5 -3 4 8 -1 25 -8 21 -8 39 0 60
12 35 7 40 -10 9z"/>
<path d="M2843 2240 c0 -30 2 -43 4 -27 2 15 2 39 0 55 -2 15 -4 2 -4 -28z"/>
<path d="M3481 2263 c8 -24 8 -42 0 -65 -10 -30 -9 -31 4 -14 8 11 15 32 15
46 0 14 -7 35 -15 46 -13 17 -14 16 -4 -13z"/>
<path d="M2978 2268 c-9 -27 7 -73 27 -76 18 -2 19 -2 3 8 -10 6 -18 20 -18
30 0 12 7 20 18 21 13 0 14 2 2 6 -8 3 -18 10 -21 15 -3 5 -8 4 -11 -4z"/>
<path d="M3110 2235 c0 -25 5 -45 10 -45 6 0 10 20 10 45 0 25 -4 45 -10 45
-5 0 -10 -20 -10 -45z"/>
<path d="M3148 2268 c-9 -27 7 -73 27 -76 18 -2 19 -2 3 8 -10 6 -18 20 -18
30 0 12 7 20 18 21 13 0 14 2 2 6 -8 3 -18 10 -21 15 -3 5 -8 4 -11 -4z"/>
<path d="M2521 2223 c1 -36 2 -37 8 -8 8 40 38 46 44 8 4 -28 4 -28 3 2 -1 25
-6 31 -28 33 -26 3 -28 1 -27 -35z"/>
<path d="M2604 2246 c-12 -30 0 -51 31 -53 18 -1 22 1 10 4 -34 9 -41 23 -11
23 21 0 27 4 24 18 -4 22 -46 29 -54 8z m46 -6 c0 -5 -9 -10 -21 -10 -11 0
-17 5 -14 10 3 6 13 10 21 10 8 0 14 -4 14 -10z"/>
<path d="M2681 2250 c-1 -24 11 -60 19 -60 4 0 11 12 15 28 8 26 8 27 14 4 9
-33 23 -32 32 2 10 37 3 48 -9 15 l-9 -24 -7 23 c-9 28 -23 28 -29 0 -4 -23
-4 -23 -15 2 -6 14 -11 18 -11 10z"/>
<path d="M2873 2225 c0 -22 2 -30 4 -17 2 12 2 30 0 40 -3 9 -5 -1 -4 -23z"/>
<path d="M2910 2244 c0 -9 9 -18 20 -21 26 -7 26 -20 0 -26 -18 -4 -18 -5 2
-3 29 1 36 26 9 33 -28 7 -27 20 2 26 19 4 18 4 -5 6 -20 1 -28 -4 -28 -15z"/>
<path d="M3034 2246 c-12 -30 0 -51 31 -53 18 -1 22 1 10 4 -34 9 -41 23 -11
23 21 0 27 4 24 18 -4 22 -46 29 -54 8z m46 -6 c0 -5 -9 -10 -21 -10 -11 0
-17 5 -14 10 3 6 13 10 21 10 8 0 14 -4 14 -10z"/>
<path d="M3204 2246 c-12 -30 0 -51 31 -53 18 -1 22 1 10 4 -34 9 -41 23 -11
23 21 0 27 4 24 18 -4 22 -46 29 -54 8z m46 -6 c0 -5 -9 -10 -21 -10 -11 0
-17 5 -14 10 3 6 13 10 21 10 8 0 14 -4 14 -10z"/>
<path d="M3281 2222 c1 -36 2 -36 8 -7 9 43 39 45 44 3 l4 -33 1 33 c3 43 32
45 32 2 0 -16 5 -30 10 -30 12 0 13 40 2 56 -4 6 -28 12 -54 12 l-48 1 1 -37z"/>
<path d="M3400 2244 c0 -9 9 -18 20 -21 26 -7 26 -20 0 -26 -18 -4 -18 -5 2
-3 29 1 36 26 9 33 -28 7 -27 20 2 26 19 4 18 4 -5 6 -20 1 -28 -4 -28 -15z"/>
<path d="M4155 2170 c18 -20 16 -20 -856 -23 l-874 -2 874 -3 874 -2 -19 -21
c-19 -22 -19 -22 5 -14 13 4 40 14 60 23 l36 15 -50 23 c-62 28 -73 29 -50 4z"/>
<path d="M2733 1993 c-23 -9 -15 -42 12 -49 31 -8 33 -31 3 -37 -20 -3 -20 -4
2 -3 36 1 41 41 6 50 -42 10 -31 32 13 27 7 -2 10 2 6 8 -6 11 -21 13 -42 4z"/>
<path d="M3119 1979 c-12 -22 -5 -84 11 -94 5 -3 4 8 -1 25 -8 21 -8 39 0 60
12 35 7 40 -10 9z"/>
<path d="M3981 1973 c8 -24 8 -42 0 -65 -10 -30 -9 -31 4 -14 8 11 15 32 15
46 0 14 -7 35 -15 46 -13 17 -14 16 -4 -13z"/>
<path d="M2668 1978 c-9 -27 7 -73 27 -76 18 -2 19 -2 3 8 -10 6 -18 20 -18
30 0 12 7 20 18 21 13 0 14 2 2 6 -8 3 -18 10 -21 15 -3 5 -8 4 -11 -4z"/>
<path d="M2798 1978 c-9 -27 7 -73 27 -76 18 -2 19 -2 3 8 -10 6 -18 20 -18
30 0 12 7 20 18 21 13 0 14 2 2 6 -8 3 -18 10 -21 15 -3 5 -8 4 -11 -4z"/>
<path d="M2928 1978 c-9 -27 7 -73 27 -76 18 -2 19 -2 3 8 -10 6 -18 20 -18
30 0 12 7 20 18 21 13 0 14 2 2 6 -8 3 -18 10 -21 15 -3 5 -8 4 -11 -4z"/>
<path d="M3058 1978 c-9 -27 7 -73 27 -76 18 -2 19 -2 3 8 -10 6 -18 20 -18
30 0 12 7 20 18 21 13 0 14 2 2 6 -8 3 -18 10 -21 15 -3 5 -8 4 -11 -4z"/>
<path d="M3161 1974 c0 -11 3 -14 6 -6 3 7 2 16 -1 19 -3 4 -6 -2 -5 -13z"/>
<path d="M3191 1974 c0 -11 3 -14 6 -6 3 7 2 16 -1 19 -3 4 -6 -2 -5 -13z"/>
<path d="M3220 1945 c0 -44 0 -45 33 -44 23 1 26 3 10 6 -14 3 -23 12 -23 23
0 11 9 20 23 23 l22 4 -22 2 c-13 0 -23 5 -23 10 0 5 10 12 23 14 16 3 13 5
-10 6 -33 1 -33 0 -33 -44z"/>
<path d="M3509 1979 c-10 -28 5 -74 26 -77 18 -2 19 -2 3 8 -25 15 -23 50 1
50 14 0 21 -8 23 -27 2 -19 10 -29 23 -31 18 -2 18 -2 3 8 -10 6 -18 20 -18
30 0 12 7 20 18 21 13 0 14 2 2 6 -8 3 -18 11 -22 17 -5 8 -8 7 -8 -1 0 -16
-37 -17 -42 -1 -3 8 -6 7 -9 -3z"/>
<path d="M3768 1978 c-9 -27 7 -73 27 -76 18 -2 19 -2 3 8 -10 6 -18 20 -18
30 0 12 7 20 18 21 13 0 14 2 2 6 -8 3 -18 10 -21 15 -3 5 -8 4 -11 -4z"/>
<path d="M3911 1974 c0 -11 3 -14 6 -6 3 7 2 16 -1 19 -3 4 -6 -2 -5 -13z"/>
<path d="M3941 1974 c0 -11 3 -14 6 -6 3 7 2 16 -1 19 -3 4 -6 -2 -5 -13z"/>
<path d="M3620 1965 c-6 -7 -10 -24 -8 -37 2 -18 10 -23 33 -25 18 -1 22 1 10
4 -34 9 -41 23 -12 23 32 0 37 24 8 39 -14 8 -22 7 -31 -4z m40 -15 c0 -5 -9
-10 -21 -10 -11 0 -17 5 -14 10 3 6 13 10 21 10 8 0 14 -4 14 -10z"/>
<path d="M2520 1954 c0 -9 9 -18 20 -21 26 -7 26 -20 0 -26 -18 -4 -18 -5 2
-3 29 1 36 26 9 33 -28 7 -27 20 2 26 19 4 18 4 -5 6 -20 1 -28 -4 -28 -15z"/>
<path d="M2594 1956 c-12 -30 0 -51 31 -53 18 -1 22 1 10 4 -34 9 -41 23 -11
23 21 0 27 4 24 18 -4 22 -46 29 -54 8z m46 -6 c0 -5 -9 -10 -21 -10 -11 0
-17 5 -14 10 3 6 13 10 21 10 8 0 14 -4 14 -10z"/>
<path d="M2868 1963 c27 -5 32 -53 6 -53 -10 0 -14 6 -10 15 3 8 1 15 -4 15
-6 0 -10 -9 -10 -20 0 -16 7 -20 31 -20 28 0 30 2 27 33 -3 28 -7 32 -33 34
-20 1 -23 0 -7 -4z"/>
<path d="M2983 1940 c2 -31 5 -35 30 -36 25 -1 27 2 26 35 -1 36 -1 36 -8 6
-3 -17 -13 -30 -21 -30 -8 0 -18 13 -22 30 -6 29 -6 29 -5 -5z"/>
<path d="M3311 1933 c1 -36 2 -37 8 -8 8 40 38 46 44 8 4 -28 4 -28 3 2 -1 25
-6 31 -28 33 -26 3 -28 1 -27 -35z"/>
<path d="M3448 1963 c27 -5 32 -53 6 -53 -10 0 -14 6 -10 15 3 8 1 15 -4 15
-6 0 -10 -9 -10 -20 0 -16 7 -20 31 -20 28 0 30 2 27 33 -3 28 -7 32 -33 34
-20 1 -23 0 -7 -4z"/>
<path d="M3691 1933 c1 -36 2 -37 8 -8 8 40 38 46 44 8 4 -28 4 -28 3 2 -1 25
-6 31 -28 33 -26 3 -28 1 -27 -35z"/>
<path d="M3834 1956 c-12 -30 0 -51 31 -53 18 -1 22 1 10 4 -34 9 -41 23 -11
23 21 0 27 4 24 18 -4 22 -46 29 -54 8z m46 -6 c0 -5 -9 -10 -21 -10 -11 0
-17 5 -14 10 3 6 13 10 21 10 8 0 14 -4 14 -10z"/>
<path d="M4154 1871 l19 -21 -874 -3 -874 -2 874 -3 c873 -2 874 -2 856 -22
-23 -25 -12 -24 50 4 l50 23 -36 15 c-20 9 -47 19 -60 23 -24 8 -24 8 -5 -14z"/>
<path d="M3258 1699 c-22 -12 -24 -62 -4 -79 8 -6 25 -10 38 -7 21 4 20 4 -4
6 -21 1 -29 7 -34 28 -8 30 16 55 44 46 15 -4 15 -3 2 6 -18 13 -20 13 -42 0z"/>
<path d="M3870 1696 c0 -8 -10 -16 -22 -18 -18 -2 -23 -10 -23 -33 0 -25 4
-30 28 -33 26 -3 27 -2 27 47 0 28 -2 51 -5 51 -3 0 -5 -6 -5 -14z m-5 -51 c0
-28 -29 -25 -33 3 -3 19 0 23 15 20 10 -2 18 -12 18 -23z"/>
<path d="M3999 1689 c-12 -22 -5 -84 11 -94 5 -3 4 8 -1 25 -8 21 -8 39 0 60
12 35 7 40 -10 9z"/>
<path d="M4220 1696 c0 -8 -10 -16 -22 -18 -18 -2 -23 -10 -23 -33 0 -25 4
-30 28 -33 26 -3 27 -2 27 47 0 28 -2 51 -5 51 -3 0 -5 -6 -5 -14z m-5 -51 c0
-28 -29 -25 -33 3 -3 19 0 23 15 20 10 -2 18 -12 18 -23z"/>
<path d="M4401 1683 c8 -24 8 -42 0 -65 -10 -30 -9 -31 4 -14 8 11 15 32 15
46 0 14 -7 35 -15 46 -13 17 -14 16 -4 -13z"/>
<path d="M2998 1688 c-9 -27 7 -73 27 -76 18 -2 19 -2 3 8 -10 6 -18 20 -18
30 0 12 7 20 18 21 13 0 14 2 2 6 -8 3 -18 10 -21 15 -3 5 -8 4 -11 -4z"/>
<path d="M2524 1666 c-12 -30 0 -51 31 -53 18 -1 22 1 10 4 -34 9 -41 23 -11
23 21 0 27 4 24 18 -4 22 -46 29 -54 8z m46 -6 c0 -5 -9 -10 -21 -10 -11 0
-17 5 -14 10 3 6 13 10 21 10 8 0 14 -4 14 -10z"/>
<path d="M2601 1643 c1 -36 2 -37 8 -8 8 40 38 46 44 8 4 -28 4 -28 3 2 -1 25
-6 31 -28 33 -26 3 -28 1 -27 -35z"/>
<path d="M2681 1643 c1 -27 3 -31 6 -13 2 14 12 31 21 38 14 11 13 12 -6 12
-19 0 -22 -5 -21 -37z"/>
<path d="M2734 1666 c-12 -30 0 -51 31 -53 18 -1 22 1 10 4 -34 9 -41 23 -11
23 21 0 27 4 24 18 -4 22 -46 29 -54 8z m46 -6 c0 -5 -9 -10 -21 -10 -11 0
-17 5 -14 10 3 6 13 10 21 10 8 0 14 -4 14 -10z"/>
<path d="M2814 1666 c-11 -27 1 -51 24 -50 29 1 28 -14 0 -26 -14 -5 -17 -9
-7 -9 25 -1 39 21 39 61 0 34 -3 38 -25 38 -14 0 -28 -6 -31 -14z m41 -21 c0
-28 -29 -25 -33 3 -3 19 0 23 15 20 10 -2 18 -12 18 -23z"/>
<path d="M2903 1645 c0 -22 2 -30 4 -17 2 12 2 30 0 40 -3 9 -5 -1 -4 -23z"/>
<path d="M2930 1664 c0 -9 9 -18 20 -21 26 -7 26 -20 0 -26 -18 -4 -18 -5 2
-3 29 1 36 26 9 33 -28 7 -27 20 2 26 19 4 18 4 -5 6 -20 1 -28 -4 -28 -15z"/>
<path d="M3051 1643 c1 -27 3 -31 6 -13 2 14 12 31 21 38 14 11 13 12 -6 12
-19 0 -22 -5 -21 -37z"/>
<path d="M3104 1666 c-12 -30 0 -51 31 -53 18 -1 22 1 10 4 -34 9 -41 23 -11
23 21 0 27 4 24 18 -4 22 -46 29 -54 8z m46 -6 c0 -5 -9 -10 -21 -10 -11 0
-17 5 -14 10 3 6 13 10 21 10 8 0 14 -4 14 -10z"/>
<path d="M3181 1643 c1 -27 3 -31 6 -13 2 14 12 31 21 38 14 11 13 12 -6 12
-19 0 -22 -5 -21 -37z"/>
<path d="M3334 1666 c-11 -29 0 -51 26 -51 21 0 25 5 25 30 0 24 -5 31 -23 33
-13 2 -24 -3 -28 -12z m43 -12 c8 -21 -13 -42 -28 -27 -13 13 -5 43 11 43 6 0
13 -7 17 -16z"/>
<path d="M3411 1642 c1 -36 2 -36 8 -7 9 43 39 45 44 3 l4 -33 1 33 c3 43 32
45 32 2 0 -16 5 -30 10 -30 12 0 13 40 2 56 -4 6 -28 12 -54 12 l-48 1 1 -37z"/>
<path d="M3531 1642 c1 -36 2 -36 8 -7 9 43 39 45 44 3 l4 -33 1 33 c3 43 32
45 32 2 0 -16 5 -30 11 -30 6 0 9 14 7 33 -3 31 -4 32 -55 34 l-53 3 1 -38z"/>
<path d="M3678 1673 c27 -5 32 -53 6 -53 -10 0 -14 6 -10 15 3 8 1 15 -4 15
-6 0 -10 -9 -10 -20 0 -16 7 -20 31 -20 28 0 30 2 27 33 -3 28 -7 32 -33 34
-20 1 -23 0 -7 -4z"/>
<path d="M3741 1643 c1 -36 2 -37 8 -8 8 40 38 46 44 8 4 -28 4 -28 3 2 -1 25
-6 31 -28 33 -26 3 -28 1 -27 -35z"/>
<path d="M3914 1666 c-12 -30 0 -51 31 -53 18 -1 22 1 10 4 -34 9 -41 23 -11
23 21 0 27 4 24 18 -4 22 -46 29 -54 8z m46 -6 c0 -5 -9 -10 -21 -10 -11 0
-17 5 -14 10 3 6 13 10 21 10 8 0 14 -4 14 -10z"/>
<path d="M4044 1666 c-11 -29 0 -51 26 -51 21 0 25 5 25 30 0 24 -5 31 -23 33
-13 2 -24 -3 -28 -12z m43 -12 c8 -21 -13 -42 -28 -27 -13 13 -5 43 11 43 6 0
13 -7 17 -16z"/>
<path d="M4121 1643 c1 -27 3 -31 6 -13 2 14 12 31 21 38 14 11 13 12 -6 12
-19 0 -22 -5 -21 -37z"/>
<path d="M4254 1666 c-12 -30 0 -51 31 -53 18 -1 22 1 10 4 -34 9 -41 23 -11
23 21 0 27 4 24 18 -4 22 -46 29 -54 8z m46 -6 c0 -5 -9 -10 -21 -10 -11 0
-17 5 -14 10 3 6 13 10 21 10 8 0 14 -4 14 -10z"/>
<path d="M4331 1643 c1 -27 3 -31 6 -13 2 14 12 31 21 38 14 11 13 12 -6 12
-19 0 -22 -5 -21 -37z"/>
<path d="M4984 1581 l19 -21 -1289 -3 -1289 -2 1289 -3 c1288 -2 1289 -2 1271
-22 -23 -25 -12 -24 50 4 l50 23 -36 15 c-20 9 -47 19 -60 23 -24 8 -24 8 -5
-14z"/>
<path d="M2855 1403 c-12 -21 -8 -83 6 -83 8 0 14 49 10 74 -1 5 4 13 11 17
10 7 10 9 -2 9 -8 0 -20 -8 -25 -17z"/>
<path d="M3188 1398 c-9 -27 7 -73 27 -76 18 -2 19 -2 3 8 -10 6 -18 20 -18
30 0 12 7 20 18 21 13 0 14 2 2 6 -8 3 -18 10 -21 15 -3 5 -8 4 -11 -4z"/>
<path d="M2624 1376 c-11 -28 1 -51 26 -53 25 -3 25 -3 3 7 -13 5 -23 16 -23
25 0 9 10 20 23 25 l22 9 -23 0 c-12 1 -25 -5 -28 -13z"/>
<path d="M2694 1376 c-11 -29 0 -51 26 -51 21 0 25 5 25 30 0 24 -5 31 -23 33
-13 2 -24 -3 -28 -12z m43 -12 c8 -21 -13 -42 -28 -27 -13 13 -5 43 11 43 6 0
13 -7 17 -16z"/>
<path d="M2771 1353 c1 -36 2 -37 8 -8 8 40 38 46 44 8 4 -28 4 -28 3 2 -1 25
-6 31 -28 33 -26 3 -28 1 -27 -35z"/>
<path d="M2903 1355 c0 -22 2 -30 4 -17 2 12 2 30 0 40 -3 9 -5 -1 -4 -23z"/>
<path d="M2931 1353 c1 -27 3 -31 6 -13 2 14 12 31 21 38 14 11 13 12 -6 12
-19 0 -22 -5 -21 -37z"/>
<path d="M2991 1352 c1 -36 2 -36 8 -7 9 43 39 45 44 3 l4 -33 1 33 c3 43 32
45 32 2 0 -16 5 -30 10 -30 12 0 13 40 2 56 -4 6 -28 12 -54 12 l-48 1 1 -37z"/>
<path d="M3128 1383 c27 -5 32 -53 6 -53 -10 0 -14 6 -10 15 3 8 1 15 -4 15
-6 0 -10 -9 -10 -20 0 -16 7 -20 31 -20 28 0 30 2 27 33 -3 28 -7 32 -33 34
-20 1 -23 0 -7 -4z"/>
<path d="M3243 1355 c0 -22 2 -30 4 -17 2 12 2 30 0 40 -3 9 -5 -1 -4 -23z"/>
<path d="M3284 1376 c-11 -29 0 -51 26 -51 21 0 25 5 25 30 0 24 -5 31 -23 33
-13 2 -24 -3 -28 -12z m43 -12 c8 -21 -13 -42 -28 -27 -13 13 -5 43 11 43 6 0
13 -7 17 -16z"/>
<path d="M3361 1353 c1 -36 2 -37 8 -8 8 40 38 46 44 8 4 -28 4 -28 3 2 -1 25
-6 31 -28 33 -26 3 -28 1 -27 -35z"/>
<path d="M2486 1286 l-50 -22 54 -22 c59 -25 70 -24 40 3 l-20 18 22 24 c26
28 17 28 -46 -1z"/>
<path d="M705 1113 c-12 -21 -8 -83 6 -83 8 0 14 45 10 77 -1 6 6 14 16 16 15
4 15 5 -2 6 -11 0 -25 -7 -30 -16z"/>
<path d="M1308 1119 c-22 -12 -24 -62 -4 -79 8 -6 25 -10 38 -7 21 4 20 4 -4
6 -21 1 -29 7 -34 28 -8 30 16 55 44 46 15 -4 15 -3 2 6 -18 13 -20 13 -42 0z"/>
<path d="M1920 1116 c0 -8 -10 -16 -22 -18 -18 -2 -23 -10 -23 -33 0 -25 4
-30 28 -33 26 -3 27 -2 27 47 0 28 -2 51 -5 51 -3 0 -5 -6 -5 -14z m-5 -51 c0
-28 -29 -25 -33 3 -3 19 0 23 15 20 10 -2 18 -12 18 -23z"/>
<path d="M2039 1109 c-12 -22 -5 -84 11 -94 5 -3 4 8 -1 25 -8 21 -8 39 0 60
12 35 7 40 -10 9z"/>
<path d="M2101 1103 c8 -24 8 -42 0 -65 -10 -30 -9 -31 4 -14 8 11 15 32 15
46 0 14 -7 35 -15 46 -13 17 -14 16 -4 -13z"/>
<path d="M1038 1108 c-9 -27 7 -73 27 -76 18 -2 19 -2 3 8 -10 6 -18 20 -18
30 0 12 7 20 18 21 13 0 14 2 2 6 -8 3 -18 10 -21 15 -3 5 -8 4 -11 -4z"/>
<path d="M464 1086 c-11 -28 1 -51 26 -53 25 -3 25 -3 3 7 -13 5 -23 16 -23
25 0 9 10 20 23 25 l22 9 -23 0 c-12 1 -25 -5 -28 -13z"/>
<path d="M534 1086 c-11 -29 0 -51 26 -51 21 0 25 5 25 30 0 24 -5 31 -23 33
-13 2 -24 -3 -28 -12z m43 -12 c8 -21 -13 -42 -28 -27 -13 13 -5 43 11 43 6 0
13 -7 17 -16z"/>
<path d="M611 1063 c1 -36 2 -37 8 -8 8 40 38 46 44 8 4 -28 4 -28 3 2 -1 25
-6 31 -28 33 -26 3 -28 1 -27 -35z"/>
<path d="M743 1065 c0 -22 2 -30 4 -17 2 12 2 30 0 40 -3 9 -5 -1 -4 -23z"/>
<path d="M781 1063 c1 -27 3 -31 6 -13 2 14 12 31 21 38 14 11 13 12 -6 12
-19 0 -22 -5 -21 -37z"/>
<path d="M831 1062 c1 -36 2 -36 8 -7 9 43 39 45 44 3 l4 -33 1 33 c3 43 32
45 32 2 0 -16 5 -30 10 -30 12 0 13 40 2 56 -4 6 -28 12 -54 12 l-48 1 1 -37z"/>
<path d="M978 1093 c27 -5 32 -53 6 -53 -10 0 -14 6 -10 15 3 8 1 15 -4 15 -6
0 -10 -9 -10 -20 0 -16 7 -20 31 -20 28 0 30 2 27 33 -3 28 -7 32 -33 34 -20
1 -23 0 -7 -4z"/>
<path d="M1093 1065 c0 -22 2 -30 4 -17 2 12 2 30 0 40 -3 9 -5 -1 -4 -23z"/>
<path d="M1124 1086 c-11 -29 0 -51 26 -51 21 0 25 5 25 30 0 24 -5 31 -23 33
-13 2 -24 -3 -28 -12z m43 -12 c8 -21 -13 -42 -28 -27 -13 13 -5 43 11 43 6 0
13 -7 17 -16z"/>
<path d="M1201 1063 c1 -36 2 -37 8 -8 8 40 38 46 44 8 4 -28 4 -28 3 2 -1 25
-6 31 -28 33 -26 3 -28 1 -27 -35z"/>
<path d="M1384 1086 c-11 -29 0 -51 26 -51 21 0 25 5 25 30 0 24 -5 31 -23 33
-13 2 -24 -3 -28 -12z m43 -12 c8 -21 -13 -42 -28 -27 -13 13 -5 43 11 43 6 0
13 -7 17 -16z"/>
<path d="M1461 1062 c1 -36 2 -36 8 -7 9 43 39 45 44 3 l4 -33 1 33 c3 43 32
45 32 2 0 -16 5 -30 10 -30 12 0 13 40 2 56 -4 6 -28 12 -54 12 l-48 1 1 -37z"/>
<path d="M1581 1062 c1 -36 2 -36 8 -7 9 43 39 45 44 3 l4 -33 1 33 c3 43 32
45 32 2 0 -16 5 -30 10 -30 12 0 13 40 2 56 -4 6 -28 12 -54 12 l-48 1 1 -37z"/>
<path d="M1728 1093 c27 -5 32 -53 6 -53 -10 0 -14 6 -10 15 3 8 1 15 -4 15
-6 0 -10 -9 -10 -20 0 -16 7 -20 31 -20 28 0 30 2 27 33 -3 28 -7 32 -33 34
-20 1 -23 0 -7 -4z"/>
<path d="M1791 1063 c1 -36 2 -37 8 -8 8 40 38 46 44 8 4 -28 4 -28 3 2 -1 25
-6 31 -28 33 -26 3 -28 1 -27 -35z"/>
<path d="M1954 1086 c-12 -30 0 -51 31 -53 18 -1 22 1 10 4 -34 9 -41 23 -11
23 21 0 27 4 24 18 -4 22 -46 29 -54 8z m46 -6 c0 -5 -9 -10 -21 -10 -11 0
-17 5 -14 10 3 6 13 10 21 10 8 0 14 -4 14 -10z"/>
<path d="M332 996 l-52 -22 52 -20 c29 -10 57 -21 63 -23 5 -2 0 7 -12 21
l-23 24 22 22 c27 27 18 27 -50 -2z"/>
<path d="M3894 655 c0 -77 2 -107 3 -67 2 40 2 103 0 140 -2 37 -3 4 -3 -73z"/>
<path d="M4644 655 c0 -77 2 -107 3 -67 2 40 2 103 0 140 -2 37 -3 4 -3 -73z"/>
<path d="M72 768 c-15 -15 -15 -61 0 -76 13 -13 54 -16 62 -4 2 4 -7 8 -21 7
-14 0 -31 8 -37 18 -16 24 4 52 38 52 14 -1 26 3 26 7 0 13 -55 9 -68 -4z"/>
<path d="M160 730 c0 -27 5 -50 10 -50 6 0 10 23 10 50 0 28 -4 50 -10 50 -5
0 -10 -22 -10 -50z"/>
<path d="M412 733 c2 -39 7 -48 23 -50 11 -2 14 0 8 3 -15 7 -17 61 -3 66 6 2
1 9 -10 16 -20 12 -21 11 -18 -35z"/>
<path d="M250 746 c-6 -8 -10 -25 -8 -38 2 -18 10 -23 33 -25 25 -2 26 -1 7 5
-33 10 -32 26 1 30 29 4 34 11 15 30 -16 16 -33 15 -48 -2z m35 -6 c3 -5 -3
-10 -15 -10 -12 0 -18 5 -15 10 3 6 10 10 15 10 5 0 12 -4 15 -10z"/>
<path d="M338 753 c-13 -3 -18 -15 -18 -39 0 -43 18 -45 22 -2 4 46 28 49 28
4 0 -20 5 -36 10 -36 14 0 12 54 -2 68 -7 7 -14 11 -17 11 -4 -1 -14 -3 -23
-6z"/>
<path d="M200 715 c0 -19 5 -35 10 -35 6 0 10 16 10 35 0 19 -4 35 -10 35 -5
0 -10 -16 -10 -35z"/>
<path d="M2122 698 c-7 -7 -12 -24 -12 -38 0 -14 5 -31 12 -38 14 -14 68 -16
68 -3 0 4 -11 6 -25 4 -19 -4 -27 0 -36 21 -15 33 4 60 38 53 13 -2 23 0 23 4
0 13 -54 11 -68 -3z"/>
<path d="M2372 663 c2 -39 7 -48 23 -50 11 -2 14 0 8 3 -16 7 -17 64 -2 64 6
0 4 7 -5 15 -23 24 -27 18 -24 -32z"/>
<path d="M3460 660 c0 -57 20 -69 21 -12 1 36 1 37 11 10 5 -16 13 -28 18 -28
11 0 24 39 16 47 -3 4 -6 1 -6 -5 0 -22 -18 -12 -24 13 -4 14 -13 25 -21 25
-11 0 -15 -13 -15 -50z"/>
<path d="M3534 688 c3 -13 6 -35 6 -50 0 -16 5 -28 10 -28 6 0 10 23 10 50 0
39 -3 50 -16 50 -12 0 -15 -6 -10 -22z"/>
<path d="M4092 698 c-7 -7 -12 -24 -12 -38 0 -31 17 -50 45 -50 28 0 45 19 45
50 0 31 -17 50 -45 50 -12 0 -26 -5 -33 -12z m58 -13 c16 -19 -2 -65 -25 -65
-23 0 -41 46 -25 65 7 8 18 15 25 15 7 0 18 -7 25 -15z"/>
<path d="M4300 697 c0 -8 -10 -13 -22 -13 -20 1 -23 -4 -23 -34 0 -32 3 -35
33 -38 l32 -3 0 50 c0 28 -4 51 -10 51 -5 0 -10 -6 -10 -13z m-2 -50 c2 -19
-1 -27 -13 -27 -19 0 -30 24 -21 46 9 23 31 11 34 -19z"/>
<path d="M4720 661 c0 -28 5 -51 10 -51 6 0 10 9 10 20 0 27 24 25 44 -2 15
-20 16 -20 10 -3 -4 11 -7 34 -8 50 -1 26 -5 30 -33 33 l-33 3 0 -50z m50 24
c0 -8 -7 -15 -15 -15 -8 0 -15 7 -15 15 0 8 7 15 15 15 8 0 15 -7 15 -15z"/>
<path d="M4982 663 c2 -39 7 -48 23 -50 11 -2 14 0 8 3 -16 7 -17 64 -2 64 6
0 4 7 -5 15 -23 24 -27 18 -24 -32z"/>
<path d="M5442 663 c2 -39 7 -48 23 -50 11 -2 14 0 8 3 -16 7 -17 64 -2 64 6
0 4 7 -5 15 -23 24 -27 18 -24 -32z"/>
<path d="M2212 654 c3 -36 6 -39 36 -42 31 -3 32 -2 32 32 0 20 -4 36 -10 36
-5 0 -10 -13 -10 -30 0 -20 -5 -30 -15 -30 -10 0 -15 10 -15 29 0 17 -5 33
-11 36 -7 5 -9 -6 -7 -31z"/>
<path d="M2297 683 c-13 -13 -7 -32 13 -38 27 -8 25 -22 -2 -28 -16 -4 -14 -5
6 -4 38 2 45 23 12 38 -26 12 -26 35 0 25 8 -3 14 -1 14 4 0 11 -33 14 -43 3z"/>
<path d="M2431 676 c-21 -25 -10 -61 18 -61 31 0 50 28 35 53 -15 23 -38 26
-53 8z m37 -29 c2 -19 -1 -27 -12 -27 -20 0 -29 16 -21 41 9 27 29 19 33 -14z"/>
<path d="M2510 648 c0 -46 18 -51 22 -5 2 17 8 32 13 32 6 0 11 -15 13 -32 2
-18 7 -33 12 -33 5 0 10 15 12 33 2 17 8 32 13 32 6 0 11 -15 13 -32 4 -37 22
-45 22 -10 0 40 -16 52 -70 52 l-50 0 0 -37z"/>
<path d="M2650 676 c-6 -8 -10 -25 -8 -38 2 -18 10 -23 33 -25 18 -1 22 1 10
4 -34 9 -41 23 -13 23 32 0 44 16 28 35 -16 19 -34 19 -50 1z m35 -6 c3 -6 -4
-10 -17 -10 -18 0 -20 2 -8 10 19 12 18 12 25 0z"/>
<path d="M2730 648 c0 -21 5 -38 10 -38 6 0 10 13 10 30 0 17 7 33 17 39 14 7
12 9 -10 8 -24 -2 -27 -6 -27 -39z"/>
<path d="M3590 676 c-6 -8 -10 -25 -8 -38 2 -18 10 -23 33 -25 18 -1 22 1 10
4 -34 9 -41 23 -13 23 32 0 44 16 28 35 -16 19 -34 19 -50 1z m35 -6 c3 -6 -4
-10 -17 -10 -18 0 -20 2 -8 10 19 12 18 12 25 0z"/>
<path d="M3660 648 c0 -46 18 -51 22 -5 2 17 8 32 13 32 6 0 11 -15 13 -32 4
-41 22 -44 22 -4 0 33 -13 46 -47 46 -20 1 -23 -4 -23 -37z"/>
<path d="M3752 654 c3 -36 6 -39 36 -42 31 -3 32 -2 32 32 0 20 -4 36 -10 36
-5 0 -10 -13 -10 -30 0 -20 -5 -30 -15 -30 -10 0 -15 10 -15 29 0 17 -5 33
-11 36 -7 5 -9 -6 -7 -31z"/>
<path d="M4190 648 c0 -21 5 -38 10 -38 6 0 10 13 10 30 0 17 7 33 17 39 14 7
12 9 -10 8 -24 -2 -27 -6 -27 -39z"/>
<path d="M4350 676 c-6 -8 -10 -25 -8 -38 2 -18 10 -23 33 -25 18 -1 22 1 10
4 -34 9 -41 23 -13 23 32 0 44 16 28 35 -16 19 -34 19 -50 1z m35 -6 c3 -6 -4
-10 -17 -10 -18 0 -20 2 -8 10 19 12 18 12 25 0z"/>
<path d="M4420 648 c0 -21 5 -38 10 -38 6 0 10 13 10 30 0 17 7 33 17 39 14 7
12 9 -10 8 -24 -2 -27 -6 -27 -39z"/>
<path d="M4830 676 c-6 -8 -10 -25 -8 -38 2 -18 10 -23 33 -25 18 -1 22 1 10
4 -34 9 -41 23 -13 23 32 0 44 16 28 35 -16 19 -34 19 -50 1z m35 -6 c3 -6 -4
-10 -17 -10 -18 0 -20 2 -8 10 19 12 18 12 25 0z"/>
<path d="M4907 683 c-13 -13 -7 -32 13 -38 27 -8 25 -22 -2 -28 -16 -4 -14 -5
6 -4 38 2 45 23 12 38 -26 12 -26 35 0 25 8 -3 14 -1 14 4 0 11 -33 14 -43 3z"/>
<path d="M5034 679 c-5 -9 -2 -10 10 -6 10 4 23 4 29 0 7 -4 2 -9 -13 -13 -36
-9 -34 -44 3 -48 27 -3 28 -2 25 35 -2 30 -7 39 -25 41 -11 2 -25 -2 -29 -9z
m46 -39 c0 -12 -28 -25 -36 -17 -9 9 6 27 22 27 8 0 14 -5 14 -10z"/>
<path d="M5122 654 c3 -36 6 -39 36 -42 31 -3 32 -2 32 32 0 20 -4 36 -10 36
-5 0 -10 -13 -10 -30 0 -20 -5 -30 -15 -30 -10 0 -15 10 -15 29 0 17 -5 33
-11 36 -7 5 -9 -6 -7 -31z"/>
<path d="M5210 648 c0 -46 18 -51 22 -5 3 28 7 32 33 33 40 1 56 -9 25 -16
-36 -9 -34 -44 3 -48 27 -3 28 -2 25 35 l-3 38 -52 0 -53 0 0 -37z m100 -8 c0
-12 -28 -25 -36 -17 -9 9 6 27 22 27 8 0 14 -5 14 -10z"/>
<path d="M5350 648 c0 -46 18 -51 22 -5 2 17 8 32 13 32 6 0 11 -15 13 -32 4
-41 22 -44 22 -4 0 33 -13 46 -47 46 -20 1 -23 -4 -23 -37z"/>
<path d="M224 608 l-19 -23 23 19 c21 18 27 26 19 26 -2 0 -12 -10 -23 -22z"/>
<path d="M335 610 c10 -11 20 -20 23 -20 3 0 -3 9 -13 20 -10 11 -20 20 -23
20 -3 0 3 -9 13 -20z"/>
<path d="M225 500 c10 -11 20 -20 23 -20 3 0 -3 9 -13 20 -10 11 -20 20 -23
20 -3 0 3 -9 13 -20z"/>
<path d="M276 202 c-3 -5 1 -9 9 -9 8 0 12 4 9 9 -3 4 -7 8 -9 8 -2 0 -6 -4
-9 -8z"/>
</g>
</svg>
