<?xml version="1.0" standalone="no"?>
<!DOCTYPE svg PUBLIC "-//W3C//DTD SVG 20010904//EN"
 "http://www.w3.org/TR/2001/REC-SVG-20010904/DTD/svg10.dtd">
<svg version="1.0" xmlns="http://www.w3.org/2000/svg"
 width="799.000000pt" height="355.000000pt" viewBox="0 0 799.000000 355.000000"
 preserveAspectRatio="xMidYMid meet">

<g transform="translate(0.000000,355.000000) scale(0.100000,-0.100000)"
fill="#000000" stroke="none">
<path d="M264 3468 l-19 -23 23 19 c21 18 27 26 19 26 -2 0 -12 -10 -23 -22z"/>
<path d="M375 3470 c10 -11 20 -20 23 -20 3 0 -3 9 -13 20 -10 11 -20 20 -23
20 -3 0 3 -9 13 -20z"/>
<path d="M265 3360 c10 -11 20 -20 23 -20 3 0 -3 9 -13 20 -10 11 -20 20 -23
20 -3 0 3 -9 13 -20z"/>
<path d="M374 3358 l-19 -23 23 19 c21 18 27 26 19 26 -2 0 -12 -10 -23 -22z"/>
<path d="M316 3062 c-3 -5 1 -9 9 -9 8 0 12 4 9 9 -3 4 -7 8 -9 8 -2 0 -6 -4
-9 -8z"/>
<path d="M3443 3043 c164 -2 430 -2 590 0 161 1 27 2 -298 2 -324 0 -456 -1
-292 -2z"/>
<path d="M5513 3043 c70 -2 184 -2 255 0 70 1 12 3 -128 3 -140 0 -198 -2
-127 -3z"/>
<path d="M7553 3043 c71 -2 183 -2 250 0 67 1 10 3 -128 3 -137 0 -192 -2
-122 -3z"/>
<path d="M3220 2900 c0 -49 1 -50 29 -50 35 0 61 23 61 54 0 31 -19 46 -57 46
-33 0 -33 0 -33 -50z m68 6 c4 -28 -10 -46 -35 -46 -8 0 -13 15 -13 41 0 36 2
40 23 37 16 -2 23 -11 25 -32z"/>
<path d="M3410 2900 c0 -27 5 -50 10 -50 6 0 10 23 10 50 0 28 -4 50 -10 50
-5 0 -10 -22 -10 -50z"/>
<path d="M3800 2901 c0 -28 5 -51 10 -51 6 0 10 9 10 19 0 12 9 21 26 25 19 5
25 12 22 29 -2 17 -11 23 -35 25 l-33 3 0 -50z m48 22 c-5 -25 -28 -28 -28 -4
0 12 6 21 16 21 9 0 14 -7 12 -17z"/>
<path d="M5452 2938 c-7 -7 -12 -24 -12 -38 0 -31 17 -50 45 -50 28 0 45 19
45 50 0 31 -17 50 -45 50 -12 0 -26 -5 -33 -12z m58 -13 c16 -19 -2 -65 -25
-65 -23 0 -41 46 -25 65 7 8 18 15 25 15 7 0 18 -7 25 -15z"/>
<path d="M5660 2937 c0 -8 -10 -13 -22 -13 -20 1 -23 -4 -23 -34 0 -32 3 -35
33 -38 l32 -3 0 50 c0 28 -4 51 -10 51 -5 0 -10 -6 -10 -13z m-2 -50 c2 -19
-1 -27 -13 -27 -19 0 -30 24 -21 46 9 23 31 11 34 -19z"/>
<path d="M7492 2938 c-7 -7 -12 -24 -12 -38 0 -14 5 -31 12 -38 14 -14 68 -16
68 -3 0 4 -11 6 -25 4 -19 -4 -27 0 -36 21 -15 33 4 60 38 53 13 -2 23 0 23 4
0 13 -54 11 -68 -3z"/>
<path d="M7580 2900 c0 -27 5 -50 10 -50 6 0 10 23 10 50 0 28 -4 50 -10 50
-5 0 -10 -22 -10 -50z"/>
<path d="M7832 2903 c2 -39 7 -48 23 -50 11 -2 14 0 8 3 -16 7 -17 64 -2 64 6
0 4 7 -5 15 -23 24 -27 18 -24 -32z"/>
<path d="M3340 2916 c-6 -8 -10 -25 -8 -38 2 -18 10 -23 33 -25 18 -1 22 1 10
4 -34 9 -41 23 -13 23 32 0 44 16 28 35 -16 19 -34 19 -50 1z m35 -6 c3 -6 -4
-10 -17 -10 -18 0 -20 2 -8 10 19 12 18 12 25 0z"/>
<path d="M3450 2891 c0 -23 5 -41 10 -41 6 0 10 15 10 34 0 19 -4 38 -10 41
-6 4 -10 -10 -10 -34z"/>
<path d="M3491 2924 c-2 -22 22 -75 32 -71 10 3 40 77 31 77 -3 0 -11 -15 -19
-32 l-13 -33 -15 35 c-9 19 -16 30 -16 24z"/>
<path d="M3580 2916 c-6 -8 -10 -25 -8 -38 2 -18 10 -23 33 -25 18 -1 22 1 10
4 -34 9 -41 23 -13 23 32 0 44 16 28 35 -16 19 -34 19 -50 1z m35 -6 c3 -6 -4
-10 -17 -10 -18 0 -20 2 -8 10 19 12 18 12 25 0z"/>
<path d="M3660 2888 c0 -21 5 -38 10 -38 6 0 10 13 10 30 0 17 7 33 17 39 14
7 12 9 -10 8 -24 -2 -27 -6 -27 -39z"/>
<path d="M3721 2926 c-1 -5 4 -26 11 -48 10 -33 9 -41 -3 -49 -8 -5 -9 -9 -3
-9 16 0 28 18 48 70 13 37 14 42 1 26 -8 -11 -15 -23 -15 -28 0 -18 -17 -6
-27 20 -6 15 -11 23 -12 18z"/>
<path d="M3890 2916 c-6 -8 -10 -25 -8 -38 2 -18 10 -23 33 -25 18 -1 22 1 10
4 -34 9 -41 23 -13 23 32 0 44 16 28 35 -16 19 -34 19 -50 1z m35 -6 c3 -6 -4
-10 -17 -10 -18 0 -20 2 -8 10 19 12 18 12 25 0z"/>
<path d="M3970 2888 c0 -21 5 -38 10 -38 6 0 10 13 10 30 0 17 7 33 17 39 14
7 12 9 -10 8 -24 -2 -27 -6 -27 -39z"/>
<path d="M4037 2923 c-13 -13 -7 -32 13 -38 27 -8 25 -22 -2 -28 -16 -4 -14
-5 6 -4 38 2 45 23 12 38 -26 12 -26 35 0 25 8 -3 14 -1 14 4 0 11 -33 14 -43
3z"/>
<path d="M4111 2916 c-21 -25 -10 -61 18 -61 31 0 50 28 35 53 -15 23 -38 26
-53 8z m37 -29 c2 -19 -1 -27 -12 -27 -20 0 -29 16 -21 41 9 27 29 19 33 -14z"/>
<path d="M4190 2888 c0 -46 18 -51 22 -5 2 17 8 32 13 32 6 0 11 -15 13 -32 4
-41 22 -44 22 -4 0 33 -13 46 -47 46 -20 1 -23 -4 -23 -37z"/>
<path d="M5550 2888 c0 -21 5 -38 10 -38 6 0 10 13 10 30 0 17 7 33 17 39 14
7 12 9 -10 8 -24 -2 -27 -6 -27 -39z"/>
<path d="M5710 2916 c-6 -8 -10 -25 -8 -38 2 -18 10 -23 33 -25 18 -1 22 1 10
4 -34 9 -41 23 -13 23 32 0 44 16 28 35 -16 19 -34 19 -50 1z m35 -6 c3 -6 -4
-10 -17 -10 -18 0 -20 2 -8 10 19 12 18 12 25 0z"/>
<path d="M5790 2888 c0 -21 5 -38 10 -38 6 0 10 13 10 30 0 17 7 33 17 39 14
7 12 9 -10 8 -24 -2 -27 -6 -27 -39z"/>
<path d="M7620 2891 c0 -23 5 -41 10 -41 6 0 10 15 10 34 0 19 -4 38 -10 41
-6 4 -10 -10 -10 -34z"/>
<path d="M7670 2916 c-6 -8 -10 -25 -8 -38 2 -18 10 -23 33 -25 18 -1 22 1 10
4 -34 9 -41 23 -13 23 32 0 44 16 28 35 -16 19 -34 19 -50 1z m35 -6 c3 -6 -4
-10 -17 -10 -18 0 -20 2 -8 10 19 12 18 12 25 0z"/>
<path d="M7740 2888 c0 -46 18 -51 22 -5 2 17 8 32 13 32 6 0 11 -15 13 -32 4
-41 22 -44 22 -4 0 33 -13 46 -47 46 -20 1 -23 -4 -23 -37z"/>
<path d="M60 2820 l0 -50 38 1 c30 2 32 3 10 6 -26 4 -28 8 -28 49 0 24 -4 44
-10 44 -5 0 -10 -22 -10 -50z"/>
<path d="M181 2844 c-2 -20 21 -74 30 -74 10 0 30 44 28 63 0 7 -7 -1 -14 -18
l-13 -30 -15 35 c-9 19 -16 30 -16 24z"/>
<path d="M278 2843 c-13 -3 -18 -15 -18 -39 0 -19 5 -34 10 -34 6 0 10 13 10
30 0 17 7 33 18 39 18 11 10 12 -20 4z"/>
<path d="M330 2836 c-6 -8 -10 -25 -8 -38 2 -18 10 -23 33 -25 25 -2 26 -1 7
5 -33 10 -32 26 1 30 29 4 34 11 15 30 -16 16 -33 15 -48 -2z m35 -6 c3 -5 -3
-10 -15 -10 -12 0 -18 5 -15 10 3 6 10 10 15 10 5 0 12 -4 15 -10z"/>
<path d="M403 2815 c2 -37 4 -40 35 -43 31 -3 32 -2 32 32 0 20 -4 36 -10 36
-5 0 -10 -13 -10 -30 0 -39 -27 -41 -36 -2 -10 46 -13 49 -11 7z"/>
<path d="M508 2843 c-13 -3 -18 -15 -18 -39 0 -19 5 -34 10 -34 6 0 10 13 10
30 0 17 7 33 18 39 18 11 10 12 -20 4z"/>
<path d="M140 2805 c0 -19 5 -35 10 -35 6 0 10 16 10 35 0 19 -4 35 -10 35 -5
0 -10 -16 -10 -35z"/>
<path d="M793 2530 c0 -30 2 -43 4 -27 2 15 2 39 0 55 -2 15 -4 2 -4 -28z"/>
<path d="M1028 2569 c-22 -12 -24 -62 -4 -79 8 -6 25 -10 38 -7 21 4 20 4 -4
6 -21 1 -29 7 -34 28 -8 30 16 55 44 46 15 -4 15 -3 2 6 -18 13 -20 13 -42 0z"/>
<path d="M1640 2566 c0 -8 -10 -16 -22 -18 -18 -2 -23 -10 -23 -33 0 -25 4
-30 28 -33 26 -3 27 -2 27 47 0 28 -2 51 -5 51 -3 0 -5 -6 -5 -14z m-5 -51 c0
-28 -29 -25 -33 3 -3 19 0 23 15 20 10 -2 18 -12 18 -23z"/>
<path d="M2489 2559 c-12 -22 -5 -84 11 -94 5 -3 4 8 -1 25 -8 21 -8 39 0 60
12 35 7 40 -10 9z"/>
<path d="M2541 2553 c8 -24 8 -42 0 -65 -10 -30 -9 -31 4 -14 8 11 15 32 15
46 0 14 -7 35 -15 46 -13 17 -14 16 -4 -13z"/>
<path d="M818 2558 c-9 -27 7 -73 27 -76 18 -2 19 -2 3 8 -10 6 -18 20 -18 30
0 12 7 20 18 21 13 0 14 2 2 6 -8 3 -18 10 -21 15 -3 5 -8 4 -11 -4z"/>
<path d="M1830 2529 c-11 -31 -16 -37 -22 -25 -5 9 -16 16 -23 16 -24 0 -17
18 8 23 19 4 18 4 -5 6 -33 1 -39 -28 -8 -36 27 -7 25 -21 -2 -26 -13 -2 -6
-4 15 -4 20 0 37 4 37 9 0 4 11 8 25 8 14 0 25 -4 25 -10 0 -5 4 -10 9 -10 5
0 1 20 -8 45 -9 25 -21 45 -27 45 -6 0 -17 -18 -24 -41z m28 -8 c-15 -5 -19 4
-11 24 6 18 7 18 13 -1 4 -10 3 -21 -2 -23z"/>
<path d="M404 2536 c-11 -28 1 -51 26 -53 25 -3 25 -3 3 7 -13 5 -23 16 -23
25 0 9 10 20 23 25 l22 9 -23 0 c-12 1 -25 -5 -28 -13z"/>
<path d="M484 2536 c-11 -29 0 -51 26 -51 21 0 25 5 25 30 0 24 -5 31 -23 33
-13 2 -24 -3 -28 -12z m43 -12 c8 -21 -13 -42 -28 -27 -13 13 -5 43 11 43 6 0
13 -7 17 -16z"/>
<path d="M561 2513 c1 -36 2 -37 8 -8 8 40 38 46 44 8 4 -28 4 -28 3 2 -1 25
-6 31 -28 33 -26 3 -28 1 -27 -35z"/>
<path d="M640 2534 c0 -9 9 -18 20 -21 26 -7 26 -20 0 -26 -18 -4 -18 -5 2 -3
29 1 36 26 9 33 -28 7 -27 20 2 26 19 4 18 4 -5 6 -20 1 -28 -4 -28 -15z"/>
<path d="M713 2520 c2 -31 5 -35 30 -36 25 -1 27 2 26 35 -1 36 -1 36 -8 6 -3
-17 -13 -30 -21 -30 -8 0 -18 13 -22 30 -6 29 -6 29 -5 -5z"/>
<path d="M884 2536 c-12 -30 0 -51 31 -53 18 -1 22 1 10 4 -34 9 -41 23 -11
23 21 0 27 4 24 18 -4 22 -46 29 -54 8z m46 -6 c0 -5 -9 -10 -21 -10 -11 0
-17 5 -14 10 3 6 13 10 21 10 8 0 14 -4 14 -10z"/>
<path d="M961 2513 c1 -27 3 -31 6 -13 2 14 12 31 21 38 14 11 13 12 -6 12
-19 0 -22 -5 -21 -37z"/>
<path d="M1104 2536 c-11 -29 0 -51 26 -51 21 0 25 5 25 30 0 24 -5 31 -23 33
-13 2 -24 -3 -28 -12z m43 -12 c8 -21 -13 -42 -28 -27 -13 13 -5 43 11 43 6 0
13 -7 17 -16z"/>
<path d="M1181 2512 c1 -36 2 -36 8 -7 9 43 39 45 44 3 l4 -33 1 33 c3 43 32
45 32 2 0 -16 5 -30 10 -30 12 0 13 40 2 56 -4 6 -28 12 -54 12 l-48 1 1 -37z"/>
<path d="M1311 2512 c1 -36 2 -36 8 -7 9 43 39 45 44 3 l4 -33 1 33 c3 43 32
45 32 2 0 -16 5 -30 10 -30 12 0 13 40 2 56 -4 6 -28 12 -54 12 l-48 1 1 -37z"/>
<path d="M1448 2543 c27 -5 32 -53 6 -53 -10 0 -14 6 -10 15 3 8 1 15 -4 15
-6 0 -10 -9 -10 -20 0 -16 7 -20 31 -20 28 0 30 2 27 33 -3 28 -7 32 -33 34
-20 1 -23 0 -7 -4z"/>
<path d="M1511 2513 c1 -36 2 -37 8 -8 8 40 38 46 44 8 4 -28 4 -28 3 2 -1 25
-6 31 -28 33 -26 3 -28 1 -27 -35z"/>
<path d="M1684 2536 c-12 -30 0 -51 31 -53 18 -1 22 1 10 4 -34 9 -41 23 -11
23 21 0 27 4 24 18 -4 22 -46 29 -54 8z m46 -6 c0 -5 -9 -10 -21 -10 -11 0
-17 5 -14 10 3 6 13 10 21 10 8 0 14 -4 14 -10z"/>
<path d="M1910 2534 c0 -9 9 -18 20 -21 26 -7 26 -20 0 -26 -18 -4 -18 -5 2
-3 29 1 36 26 9 33 -28 7 -27 20 2 26 19 4 18 4 -5 6 -20 1 -28 -4 -28 -15z"/>
<path d="M1980 2534 c0 -9 9 -18 20 -21 26 -7 26 -20 0 -26 -18 -4 -18 -5 2
-3 29 1 36 26 9 33 -28 7 -27 20 2 26 19 4 18 4 -5 6 -20 1 -28 -4 -28 -15z"/>
<path d="M2053 2515 c0 -22 2 -30 4 -17 2 12 2 30 0 40 -3 9 -5 -1 -4 -23z"/>
<path d="M2094 2536 c-11 -27 1 -51 24 -50 29 1 28 -14 0 -26 -14 -5 -17 -9
-7 -9 25 -1 39 21 39 61 0 34 -3 38 -25 38 -14 0 -28 -6 -31 -14z m41 -21 c0
-28 -29 -25 -33 3 -3 19 0 23 15 20 10 -2 18 -12 18 -23z"/>
<path d="M2171 2513 c1 -36 2 -37 8 -8 8 40 38 46 44 8 4 -28 4 -28 3 2 -1 25
-6 31 -28 33 -26 3 -28 1 -27 -35z"/>
<path d="M2254 2536 c-12 -30 0 -51 31 -53 18 -1 22 1 10 4 -34 9 -41 23 -11
23 21 0 27 4 24 18 -4 22 -46 29 -54 8z m46 -6 c0 -5 -9 -10 -21 -10 -11 0
-17 5 -14 10 3 6 13 10 21 10 8 0 14 -4 14 -10z"/>
<path d="M2334 2536 c-12 -30 0 -51 31 -53 18 -1 22 1 10 4 -34 9 -41 23 -11
23 21 0 27 4 24 18 -4 22 -46 29 -54 8z m46 -6 c0 -5 -9 -10 -21 -10 -11 0
-17 5 -14 10 3 6 13 10 21 10 8 0 14 -4 14 -10z"/>
<path d="M2410 2534 c0 -9 9 -18 20 -21 26 -7 26 -20 0 -26 -18 -4 -18 -5 2
-3 29 1 36 26 9 33 -28 7 -27 20 2 26 19 4 18 4 -5 6 -20 1 -28 -4 -28 -15z"/>
<path d="M3625 2450 c18 -20 17 -20 -1646 -23 l-1664 -2 1664 -3 1664 -2 -19
-21 c-10 -12 -14 -20 -9 -18 6 2 34 13 63 23 l52 20 -57 23 c-69 28 -71 28
-48 3z"/>
<path d="M503 2240 c0 -30 2 -43 4 -27 2 15 2 39 0 55 -2 15 -4 2 -4 -28z"/>
<path d="M798 2279 c-22 -12 -24 -62 -4 -79 8 -6 25 -10 38 -7 21 4 20 4 -4 6
-21 1 -29 7 -34 28 -8 30 16 55 44 46 15 -4 15 -3 2 6 -18 13 -20 13 -42 0z"/>
<path d="M1410 2276 c0 -8 -10 -16 -22 -18 -18 -2 -23 -10 -23 -33 0 -25 4
-30 28 -33 26 -3 27 -2 27 47 0 28 -2 51 -5 51 -3 0 -5 -6 -5 -14z m-5 -51 c0
-28 -29 -25 -33 3 -3 19 0 23 15 20 10 -2 18 -12 18 -23z"/>
<path d="M640 2273 c0 -8 -13 -13 -30 -13 -35 0 -43 -29 -10 -37 27 -7 25 -20
-2 -26 -21 -5 -21 -5 1 -4 31 2 40 27 12 34 -29 7 -27 23 3 23 19 0 25 -6 28
-27 2 -19 10 -29 23 -31 18 -2 18 -2 3 8 -10 6 -18 20 -18 30 0 12 7 20 18 21
13 0 14 2 2 6 -8 3 -18 11 -22 17 -5 8 -8 7 -8 -1z"/>
<path d="M543 2225 c0 -22 2 -30 4 -17 2 12 2 30 0 40 -3 9 -5 -1 -4 -23z"/>
<path d="M704 2246 c-12 -30 0 -51 31 -53 18 -1 22 1 10 4 -34 9 -41 23 -11
23 21 0 27 4 24 18 -4 22 -46 29 -54 8z m46 -6 c0 -5 -9 -10 -21 -10 -11 0
-17 5 -14 10 3 6 13 10 21 10 8 0 14 -4 14 -10z"/>
<path d="M874 2246 c-11 -29 0 -51 26 -51 21 0 25 5 25 30 0 24 -5 31 -23 33
-13 2 -24 -3 -28 -12z m43 -12 c8 -21 -13 -42 -28 -27 -13 13 -5 43 11 43 6 0
13 -7 17 -16z"/>
<path d="M951 2222 c1 -36 2 -36 8 -7 9 43 39 45 44 3 l4 -33 1 33 c3 43 32
45 32 2 0 -16 5 -30 10 -30 12 0 13 40 2 56 -4 6 -28 12 -54 12 l-48 1 1 -37z"/>
<path d="M1071 2222 c1 -36 2 -36 8 -7 9 43 39 45 44 3 l4 -33 1 33 c3 43 32
45 32 2 0 -16 5 -30 10 -30 12 0 13 40 2 56 -4 6 -28 12 -54 12 l-48 1 1 -37z"/>
<path d="M1218 2253 c27 -5 32 -53 6 -53 -10 0 -14 6 -10 15 3 8 1 15 -4 15
-6 0 -10 -9 -10 -20 0 -16 7 -20 31 -20 28 0 30 2 27 33 -3 28 -7 32 -33 34
-20 1 -23 0 -7 -4z"/>
<path d="M1281 2223 c1 -36 2 -37 8 -8 8 40 38 46 44 8 4 -28 4 -28 3 2 -1 25
-6 31 -28 33 -26 3 -28 1 -27 -35z"/>
<path d="M1444 2246 c-12 -30 0 -51 31 -53 18 -1 22 1 10 4 -34 9 -41 23 -11
23 21 0 27 4 24 18 -4 22 -46 29 -54 8z m46 -6 c0 -5 -9 -10 -21 -10 -11 0
-17 5 -14 10 3 6 13 10 21 10 8 0 14 -4 14 -10z"/>
<path d="M1520 2244 c0 -9 9 -18 20 -21 26 -7 26 -20 0 -26 -18 -4 -18 -5 2
-3 29 1 36 26 9 33 -28 7 -27 20 2 26 19 4 18 4 -5 6 -20 1 -28 -4 -28 -15z"/>
<path d="M376 2156 l-50 -22 54 -22 c59 -25 70 -24 40 3 l-20 18 22 24 c26 28
17 28 -46 -1z"/>
<path d="M482 1940 c0 -41 2 -47 7 -25 9 43 38 45 44 3 l5 -33 -2 35 c-1 28
-5 36 -23 38 -12 2 -24 11 -26 20 -3 9 -5 -8 -5 -38z"/>
<path d="M953 1983 c-23 -9 -15 -42 12 -49 31 -8 33 -31 3 -37 -20 -3 -20 -4
2 -3 36 1 41 41 6 50 -42 10 -31 32 13 27 7 -2 10 2 6 8 -6 11 -21 13 -42 4z"/>
<path d="M1348 1979 c-22 -12 -24 -62 -4 -79 8 -6 25 -10 38 -7 21 4 20 4 -4
6 -21 1 -29 7 -34 28 -8 30 16 55 44 46 15 -4 15 -3 2 6 -18 13 -20 13 -42 0z"/>
<path d="M1970 1976 c0 -8 -10 -16 -22 -18 -18 -2 -23 -10 -23 -33 0 -25 4
-30 28 -33 26 -3 27 -2 27 47 0 28 -2 51 -5 51 -3 0 -5 -6 -5 -14z m-5 -51 c0
-28 -29 -25 -33 3 -3 19 0 23 15 20 10 -2 18 -12 18 -23z"/>
<path d="M2089 1969 c-12 -22 -5 -84 11 -94 5 -3 4 8 -1 25 -8 21 -8 39 0 60
12 35 7 40 -10 9z"/>
<path d="M2320 1976 c0 -8 -10 -16 -22 -18 -18 -2 -23 -10 -23 -33 0 -25 4
-30 28 -33 26 -3 27 -2 27 47 0 28 -2 51 -5 51 -3 0 -5 -6 -5 -14z m-5 -51 c0
-28 -29 -25 -33 3 -3 19 0 23 15 20 10 -2 18 -12 18 -23z"/>
<path d="M3143 1983 c-23 -9 -15 -42 12 -49 31 -8 33 -31 3 -37 -20 -3 -20 -4
2 -3 36 1 41 41 6 50 -42 10 -31 32 13 27 7 -2 10 2 6 8 -6 11 -21 13 -42 4z"/>
<path d="M3541 1963 c8 -24 8 -42 0 -65 -10 -30 -9 -31 4 -14 8 11 15 32 15
46 0 14 -7 35 -15 46 -13 17 -14 16 -4 -13z"/>
<path d="M1018 1968 c-9 -27 7 -73 27 -76 18 -2 19 -2 3 8 -10 6 -18 20 -18
30 0 12 7 20 18 21 13 0 14 2 2 6 -8 3 -18 10 -21 15 -3 5 -8 4 -11 -4z"/>
<path d="M1148 1968 c-9 -27 7 -73 27 -76 18 -2 19 -2 3 8 -10 6 -18 20 -18
30 0 12 7 20 18 21 13 0 14 2 2 6 -8 3 -18 10 -21 15 -3 5 -8 4 -11 -4z"/>
<path d="M1278 1968 c-9 -27 7 -73 27 -76 18 -2 19 -2 3 8 -10 6 -18 20 -18
30 0 12 7 20 18 21 13 0 14 2 2 6 -8 3 -18 10 -21 15 -3 5 -8 4 -11 -4z"/>
<path d="M3208 1968 c-9 -27 7 -73 27 -76 18 -2 19 -2 3 8 -10 6 -18 20 -18
30 0 12 7 20 18 21 13 0 14 2 2 6 -8 3 -18 10 -21 15 -3 5 -8 4 -11 -4z"/>
<path d="M3338 1968 c-9 -27 7 -73 27 -76 18 -2 19 -2 3 8 -10 6 -18 20 -18
30 0 12 7 20 18 21 13 0 14 2 2 6 -8 3 -18 10 -21 15 -3 5 -8 4 -11 -4z"/>
<path d="M3468 1968 c-9 -27 7 -73 27 -76 18 -2 19 -2 3 8 -10 6 -18 20 -18
30 0 12 7 20 18 21 13 0 14 2 2 6 -8 3 -18 10 -21 15 -3 5 -8 4 -11 -4z"/>
<path d="M404 1946 c-11 -28 1 -51 26 -53 25 -3 25 -3 3 7 -13 5 -23 16 -23
25 0 9 10 20 23 25 l22 9 -23 0 c-12 1 -25 -5 -28 -13z"/>
<path d="M578 1953 c27 -5 32 -53 6 -53 -10 0 -14 6 -10 15 3 8 1 15 -4 15 -6
0 -10 -9 -10 -20 0 -16 7 -20 31 -20 28 0 30 2 27 33 -3 28 -7 32 -33 34 -20
1 -23 0 -7 -4z"/>
<path d="M641 1923 c1 -36 2 -37 8 -8 8 40 38 46 44 8 4 -28 4 -28 3 2 -1 25
-6 31 -28 33 -26 3 -28 1 -27 -35z"/>
<path d="M724 1946 c-11 -27 1 -51 24 -50 29 1 28 -14 0 -26 -14 -5 -17 -9 -7
-9 25 -1 39 21 39 61 0 34 -3 38 -25 38 -14 0 -28 -6 -31 -14z m41 -21 c0 -28
-29 -25 -33 3 -3 19 0 23 15 20 10 -2 18 -12 18 -23z"/>
<path d="M804 1946 c-12 -30 0 -51 31 -53 18 -1 22 1 10 4 -34 9 -41 23 -11
23 21 0 27 4 24 18 -4 22 -46 29 -54 8z m46 -6 c0 -5 -9 -10 -21 -10 -11 0
-17 5 -14 10 3 6 13 10 21 10 8 0 14 -4 14 -10z"/>
<path d="M881 1923 c1 -27 3 -31 6 -13 2 14 12 31 21 38 14 11 13 12 -6 12
-19 0 -22 -5 -21 -37z"/>
<path d="M1088 1953 c27 -5 32 -53 6 -53 -10 0 -14 6 -10 15 3 8 1 15 -4 15
-6 0 -10 -9 -10 -20 0 -16 7 -20 31 -20 28 0 30 2 27 33 -3 28 -7 32 -33 34
-20 1 -23 0 -7 -4z"/>
<path d="M1203 1930 c2 -31 5 -35 30 -36 25 -1 27 2 26 35 -1 36 -1 36 -8 6
-3 -17 -13 -30 -21 -30 -8 0 -18 13 -22 30 -6 29 -6 29 -5 -5z"/>
<path d="M1424 1946 c-11 -29 0 -51 26 -51 21 0 25 5 25 30 0 24 -5 31 -23 33
-13 2 -24 -3 -28 -12z m43 -12 c8 -21 -13 -42 -28 -27 -13 13 -5 43 11 43 6 0
13 -7 17 -16z"/>
<path d="M1501 1922 c1 -36 2 -36 8 -7 9 43 39 45 44 3 l4 -33 1 33 c3 43 32
45 32 2 0 -16 5 -30 10 -30 12 0 13 40 2 56 -4 6 -28 12 -54 12 l-48 1 1 -37z"/>
<path d="M1631 1922 c1 -36 2 -36 8 -7 9 43 39 45 44 3 l4 -33 1 33 c3 43 32
45 32 2 0 -16 5 -30 10 -30 12 0 13 40 2 56 -4 6 -28 12 -54 12 l-48 1 1 -37z"/>
<path d="M1778 1953 c27 -5 32 -53 6 -53 -10 0 -14 6 -10 15 3 8 1 15 -4 15
-6 0 -10 -9 -10 -20 0 -16 7 -20 31 -20 28 0 30 2 27 33 -3 28 -7 32 -33 34
-20 1 -23 0 -7 -4z"/>
<path d="M1841 1923 c1 -36 2 -37 8 -8 8 40 38 46 44 8 4 -28 4 -28 3 2 -1 25
-6 31 -28 33 -26 3 -28 1 -27 -35z"/>
<path d="M2004 1946 c-12 -30 0 -51 31 -53 18 -1 22 1 10 4 -34 9 -41 23 -11
23 21 0 27 4 24 18 -4 22 -46 29 -54 8z m46 -6 c0 -5 -9 -10 -21 -10 -11 0
-17 5 -14 10 3 6 13 10 21 10 8 0 14 -4 14 -10z"/>
<path d="M2134 1946 c-11 -29 0 -51 26 -51 21 0 25 5 25 30 0 24 -5 31 -23 33
-13 2 -24 -3 -28 -12z m43 -12 c8 -21 -13 -42 -28 -27 -13 13 -5 43 11 43 6 0
13 -7 17 -16z"/>
<path d="M2211 1923 c1 -27 3 -31 6 -13 2 14 12 31 21 38 14 11 13 12 -6 12
-19 0 -22 -5 -21 -37z"/>
<path d="M2354 1946 c-12 -30 0 -51 31 -53 18 -1 22 1 10 4 -34 9 -41 23 -11
23 21 0 27 4 24 18 -4 22 -46 29 -54 8z m46 -6 c0 -5 -9 -10 -21 -10 -11 0
-17 5 -14 10 3 6 13 10 21 10 8 0 14 -4 14 -10z"/>
<path d="M2431 1923 c1 -27 3 -31 6 -13 2 14 12 31 21 38 14 11 13 12 -6 12
-19 0 -22 -5 -21 -37z"/>
<path d="M2561 1923 c1 -36 2 -37 8 -8 8 40 38 46 44 8 4 -28 4 -28 3 2 -1 25
-6 31 -28 33 -26 3 -28 1 -27 -35z"/>
<path d="M2654 1946 c-11 -29 0 -51 26 -51 21 0 25 5 25 30 0 24 -5 31 -23 33
-13 2 -24 -3 -28 -12z m43 -12 c8 -21 -13 -42 -28 -27 -13 13 -5 43 11 43 6 0
13 -7 17 -16z"/>
<path d="M2733 1930 c2 -31 5 -35 30 -36 25 -1 27 2 26 35 -1 36 -1 36 -8 6
-3 -17 -13 -30 -21 -30 -8 0 -18 13 -22 30 -6 29 -6 29 -5 -5z"/>
<path d="M2811 1953 c-2 -19 18 -63 28 -63 10 0 34 61 26 68 -2 3 -9 -8 -16
-24 l-11 -29 -13 30 c-7 17 -14 25 -14 18z"/>
<path d="M2894 1946 c-12 -30 0 -51 31 -53 18 -1 22 1 10 4 -34 9 -41 23 -11
23 21 0 27 4 24 18 -4 22 -46 29 -54 8z m46 -6 c0 -5 -9 -10 -21 -10 -11 0
-17 5 -14 10 3 6 13 10 21 10 8 0 14 -4 14 -10z"/>
<path d="M2988 1953 c27 -5 32 -53 6 -53 -10 0 -14 6 -10 15 3 8 1 15 -4 15
-6 0 -10 -9 -10 -20 0 -16 7 -20 31 -20 28 0 30 2 27 33 -3 28 -7 32 -33 34
-20 1 -23 0 -7 -4z"/>
<path d="M3053 1930 c2 -31 5 -35 30 -36 25 -1 27 2 26 35 -1 36 -1 36 -8 6
-3 -17 -13 -30 -21 -30 -8 0 -18 13 -22 30 -6 29 -6 29 -5 -5z"/>
<path d="M3278 1953 c27 -5 32 -53 6 -53 -10 0 -14 6 -10 15 3 8 1 15 -4 15
-6 0 -10 -9 -10 -20 0 -16 7 -20 31 -20 28 0 30 2 27 33 -3 28 -7 32 -33 34
-20 1 -23 0 -7 -4z"/>
<path d="M3393 1930 c2 -31 5 -35 30 -36 25 -1 27 2 26 35 -1 36 -1 36 -8 6
-3 -17 -13 -30 -21 -30 -8 0 -18 13 -22 30 -6 29 -6 29 -5 -5z"/>
<path d="M2487 1903 c-4 -3 -7 -11 -7 -17 0 -6 5 -5 12 2 6 6 9 14 7 17 -3 3
-9 2 -12 -2z"/>
<path d="M3625 1870 c18 -20 17 -20 -1646 -23 l-1664 -2 1664 -3 1664 -2 -19
-22 c-21 -23 -22 -23 56 8 l44 18 -49 22 c-63 28 -73 29 -50 4z"/>
<path d="M4023 1693 c-23 -9 -15 -42 12 -49 31 -8 33 -31 3 -37 -20 -3 -20 -4
2 -3 36 1 41 41 6 50 -42 10 -31 32 13 27 7 -2 10 2 6 8 -6 11 -21 13 -42 4z"/>
<path d="M4419 1679 c-12 -22 -5 -84 11 -94 5 -3 4 8 -1 25 -8 21 -8 39 0 60
12 35 7 40 -10 9z"/>
<path d="M5043 1693 c-23 -9 -15 -42 12 -49 31 -8 33 -31 3 -37 -20 -3 -20 -4
2 -3 36 1 41 41 6 50 -42 10 -31 32 13 27 7 -2 10 2 6 8 -6 11 -21 13 -42 4z"/>
<path d="M5431 1673 c8 -24 8 -42 0 -65 -10 -30 -9 -31 4 -14 8 11 15 32 15
46 0 14 -7 35 -15 46 -13 17 -14 16 -4 -13z"/>
<path d="M3958 1678 c-9 -27 7 -73 27 -76 18 -2 19 -2 3 8 -10 6 -18 20 -18
30 0 12 7 20 18 21 13 0 14 2 2 6 -8 3 -18 10 -21 15 -3 5 -8 4 -11 -4z"/>
<path d="M4098 1678 c-9 -27 7 -73 27 -76 18 -2 19 -2 3 8 -10 6 -18 20 -18
30 0 12 7 20 18 21 13 0 14 2 2 6 -8 3 -18 10 -21 15 -3 5 -8 4 -11 -4z"/>
<path d="M4228 1678 c-9 -27 7 -73 27 -76 18 -2 19 -2 3 8 -10 6 -18 20 -18
30 0 12 7 20 18 21 13 0 14 2 2 6 -8 3 -18 10 -21 15 -3 5 -8 4 -11 -4z"/>
<path d="M4358 1678 c-9 -27 7 -73 27 -76 18 -2 19 -2 3 8 -10 6 -18 20 -18
30 0 12 7 20 18 21 13 0 14 2 2 6 -8 3 -18 10 -21 15 -3 5 -8 4 -11 -4z"/>
<path d="M5108 1678 c-9 -27 7 -73 27 -76 18 -2 19 -2 3 8 -10 6 -18 20 -18
30 0 12 7 20 18 21 13 0 14 2 2 6 -8 3 -18 10 -21 15 -3 5 -8 4 -11 -4z"/>
<path d="M5238 1678 c-9 -27 7 -73 27 -76 18 -2 19 -2 3 8 -10 6 -18 20 -18
30 0 12 7 20 18 21 13 0 14 2 2 6 -8 3 -18 10 -21 15 -3 5 -8 4 -11 -4z"/>
<path d="M5368 1678 c-9 -27 7 -73 27 -76 18 -2 19 -2 3 8 -10 6 -18 20 -18
30 0 12 7 20 18 21 13 0 14 2 2 6 -8 3 -18 10 -21 15 -3 5 -8 4 -11 -4z"/>
<path d="M3820 1654 c0 -9 9 -18 20 -21 26 -7 26 -20 0 -26 -18 -4 -18 -5 2
-3 29 1 36 26 9 33 -28 7 -27 20 2 26 19 4 18 4 -5 6 -20 1 -28 -4 -28 -15z"/>
<path d="M3884 1656 c-12 -30 0 -51 31 -53 18 -1 22 1 10 4 -34 9 -41 23 -11
23 21 0 27 4 24 18 -4 22 -46 29 -54 8z m46 -6 c0 -5 -9 -10 -21 -10 -11 0
-17 5 -14 10 3 6 13 10 21 10 8 0 14 -4 14 -10z"/>
<path d="M4168 1663 c27 -5 32 -53 6 -53 -10 0 -14 6 -10 15 3 8 1 15 -4 15
-6 0 -10 -9 -10 -20 0 -16 7 -20 31 -20 28 0 30 2 27 33 -3 28 -7 32 -33 34
-20 1 -23 0 -7 -4z"/>
<path d="M4283 1640 c2 -31 5 -35 30 -36 25 -1 27 2 26 35 -1 36 -1 36 -8 6
-3 -17 -13 -30 -21 -30 -8 0 -18 13 -22 30 -6 29 -6 29 -5 -5z"/>
<path d="M4461 1633 c1 -36 2 -37 8 -8 8 40 38 46 44 8 4 -28 4 -28 3 2 -1 25
-6 31 -28 33 -26 3 -28 1 -27 -35z"/>
<path d="M4554 1656 c-11 -29 0 -51 26 -51 21 0 25 5 25 30 0 24 -5 31 -23 33
-13 2 -24 -3 -28 -12z m43 -12 c8 -21 -13 -42 -28 -27 -13 13 -5 43 11 43 6 0
13 -7 17 -16z"/>
<path d="M4623 1640 c2 -31 5 -35 30 -36 25 -1 27 2 26 35 -1 36 -1 36 -8 6
-3 -17 -13 -30 -21 -30 -8 0 -18 13 -22 30 -6 29 -6 29 -5 -5z"/>
<path d="M4711 1663 c-2 -19 18 -63 28 -63 10 0 34 61 26 68 -2 3 -9 -8 -16
-24 l-11 -29 -13 30 c-7 17 -14 25 -14 18z"/>
<path d="M4784 1656 c-12 -30 0 -51 31 -53 18 -1 22 1 10 4 -34 9 -41 23 -11
23 21 0 27 4 24 18 -4 22 -46 29 -54 8z m46 -6 c0 -5 -9 -10 -21 -10 -11 0
-17 5 -14 10 3 6 13 10 21 10 8 0 14 -4 14 -10z"/>
<path d="M4878 1663 c27 -5 32 -53 6 -53 -10 0 -14 6 -10 15 3 8 1 15 -4 15
-6 0 -10 -9 -10 -20 0 -16 7 -20 31 -20 28 0 30 2 27 33 -3 28 -7 32 -33 34
-20 1 -23 0 -7 -4z"/>
<path d="M4943 1640 c2 -31 5 -35 30 -36 25 -1 27 2 26 35 -1 36 -1 36 -8 6
-3 -17 -13 -30 -21 -30 -8 0 -18 13 -22 30 -6 29 -6 29 -5 -5z"/>
<path d="M5178 1663 c27 -5 32 -53 6 -53 -10 0 -14 6 -10 15 3 8 1 15 -4 15
-6 0 -10 -9 -10 -20 0 -16 7 -20 31 -20 28 0 30 2 27 33 -3 28 -7 32 -33 34
-20 1 -23 0 -7 -4z"/>
<path d="M5293 1640 c2 -31 5 -35 30 -36 25 -1 27 2 26 35 -1 36 -1 36 -8 6
-3 -17 -13 -30 -21 -30 -8 0 -18 13 -22 30 -6 29 -6 29 -5 -5z"/>
<path d="M5525 1580 c18 -20 16 -20 -891 -23 l-909 -2 909 -3 909 -2 -19 -21
c-19 -22 -19 -22 5 -14 13 4 40 14 60 23 l36 15 -50 23 c-62 28 -73 29 -50 4z"/>
<path d="M5965 1393 c-12 -21 -8 -83 6 -83 8 0 14 49 10 74 -1 5 4 13 11 17
10 7 10 9 -2 9 -8 0 -20 -8 -25 -17z"/>
<path d="M6198 1399 c-22 -12 -24 -62 -4 -79 8 -6 25 -10 38 -7 21 4 20 4 -4
6 -21 1 -29 7 -34 28 -8 30 16 55 44 46 15 -4 15 -3 2 6 -18 13 -20 13 -42 0z"/>
<path d="M6272 1360 c0 -41 2 -47 7 -25 9 43 38 45 44 3 l5 -33 -2 35 c-1 28
-5 36 -23 38 -12 2 -24 11 -26 20 -3 9 -5 -8 -5 -38z"/>
<path d="M7033 1403 c-23 -9 -15 -42 12 -49 31 -8 33 -31 3 -37 -20 -3 -20 -4
2 -3 36 1 41 41 6 50 -42 10 -31 32 13 27 7 -2 10 2 6 8 -6 11 -21 13 -42 4z"/>
<path d="M7419 1389 c-12 -22 -5 -84 11 -94 5 -3 4 8 -1 25 -8 21 -8 39 0 60
12 35 7 40 -10 9z"/>
<path d="M7471 1383 c8 -24 8 -42 0 -65 -10 -30 -9 -31 4 -14 8 11 15 32 15
46 0 14 -7 35 -15 46 -13 17 -14 16 -4 -13z"/>
<path d="M5878 1388 c-9 -27 7 -73 27 -76 18 -2 19 -2 3 8 -10 6 -18 20 -18
30 0 12 7 20 18 21 13 0 14 2 2 6 -8 3 -18 10 -21 15 -3 5 -8 4 -11 -4z"/>
<path d="M6968 1388 c-9 -27 7 -73 27 -76 18 -2 19 -2 3 8 -10 6 -18 20 -18
30 0 12 7 20 18 21 13 0 14 2 2 6 -8 3 -18 10 -21 15 -3 5 -8 4 -11 -4z"/>
<path d="M7098 1388 c-9 -27 7 -73 27 -76 18 -2 19 -2 3 8 -10 6 -18 20 -18
30 0 12 7 20 18 21 13 0 14 2 2 6 -8 3 -18 10 -21 15 -3 5 -8 4 -11 -4z"/>
<path d="M7228 1388 c-9 -27 7 -73 27 -76 18 -2 19 -2 3 8 -10 6 -18 20 -18
30 0 12 7 20 18 21 13 0 14 2 2 6 -8 3 -18 10 -21 15 -3 5 -8 4 -11 -4z"/>
<path d="M7358 1388 c-9 -27 7 -73 27 -76 18 -2 19 -2 3 8 -10 6 -18 20 -18
30 0 12 7 20 18 21 13 0 14 2 2 6 -8 3 -18 10 -21 15 -3 5 -8 4 -11 -4z"/>
<path d="M5711 1343 c1 -36 2 -37 8 -8 8 40 38 46 44 8 4 -28 4 -28 3 2 -1 25
-6 31 -28 33 -26 3 -28 1 -27 -35z"/>
<path d="M5804 1366 c-11 -29 0 -51 26 -51 21 0 25 5 25 30 0 24 -5 31 -23 33
-13 2 -24 -3 -28 -12z m43 -12 c8 -21 -13 -42 -28 -27 -13 13 -5 43 11 43 6 0
13 -7 17 -16z"/>
<path d="M5933 1345 c0 -22 2 -30 4 -17 2 12 2 30 0 40 -3 9 -5 -1 -4 -23z"/>
<path d="M6013 1345 c0 -22 2 -30 4 -17 2 12 2 30 0 40 -3 9 -5 -1 -4 -23z"/>
<path d="M6054 1366 c-12 -30 0 -51 31 -53 18 -1 22 1 10 4 -34 9 -41 23 -11
23 21 0 27 4 24 18 -4 22 -46 29 -54 8z m46 -6 c0 -5 -9 -10 -21 -10 -11 0
-17 5 -14 10 3 6 13 10 21 10 8 0 14 -4 14 -10z"/>
<path d="M6131 1343 c1 -27 3 -31 6 -13 2 14 12 31 21 38 14 11 13 12 -6 12
-19 0 -22 -5 -21 -37z"/>
<path d="M6368 1373 c27 -5 32 -53 6 -53 -10 0 -14 6 -10 15 3 8 1 15 -4 15
-6 0 -10 -9 -10 -20 0 -16 7 -20 31 -20 28 0 30 2 27 33 -3 28 -7 32 -33 34
-20 1 -23 0 -7 -4z"/>
<path d="M6431 1343 c1 -36 2 -37 8 -8 8 40 38 46 44 8 4 -28 4 -28 3 2 -1 25
-6 31 -28 33 -26 3 -28 1 -27 -35z"/>
<path d="M6514 1366 c-11 -27 1 -51 24 -50 29 1 28 -14 0 -26 -14 -5 -17 -9
-7 -9 25 -1 39 21 39 61 0 34 -3 38 -25 38 -14 0 -28 -6 -31 -14z m41 -21 c0
-28 -29 -25 -33 3 -3 19 0 23 15 20 10 -2 18 -12 18 -23z"/>
<path d="M6604 1366 c-12 -30 0 -51 31 -53 18 -1 22 1 10 4 -34 9 -41 23 -11
23 21 0 27 4 24 18 -4 22 -46 29 -54 8z m46 -6 c0 -5 -9 -10 -21 -10 -11 0
-17 5 -14 10 3 6 13 10 21 10 8 0 14 -4 14 -10z"/>
<path d="M6681 1342 c1 -36 2 -36 8 -7 9 43 39 45 44 3 l4 -33 1 33 c3 43 32
45 32 2 0 -16 5 -30 10 -30 12 0 13 40 2 56 -4 6 -28 12 -54 12 l-48 1 1 -37z"/>
<path d="M6804 1366 c-12 -30 0 -51 31 -53 18 -1 22 1 10 4 -34 9 -41 23 -11
23 21 0 27 4 24 18 -4 22 -46 29 -54 8z m46 -6 c0 -5 -9 -10 -21 -10 -11 0
-17 5 -14 10 3 6 13 10 21 10 8 0 14 -4 14 -10z"/>
<path d="M6881 1343 c1 -36 2 -37 8 -8 8 40 38 46 44 8 4 -28 4 -28 3 2 -1 25
-6 31 -28 33 -26 3 -28 1 -27 -35z"/>
<path d="M7168 1373 c27 -5 32 -53 6 -53 -10 0 -14 6 -10 15 3 8 1 15 -4 15
-6 0 -10 -9 -10 -20 0 -16 7 -20 31 -20 28 0 30 2 27 33 -3 28 -7 32 -33 34
-20 1 -23 0 -7 -4z"/>
<path d="M7283 1350 c2 -31 5 -35 30 -36 25 -1 27 2 26 35 -1 36 -1 36 -8 6
-3 -17 -13 -30 -21 -30 -8 0 -18 13 -22 30 -6 29 -6 29 -5 -5z"/>
<path d="M7565 1290 c18 -20 16 -20 -961 -23 l-979 -2 979 -3 979 -2 -19 -21
c-19 -22 -19 -22 5 -14 13 4 40 14 60 23 l36 15 -50 23 c-62 28 -73 29 -50 4z"/>
<path d="M745 1103 c-12 -21 -8 -83 6 -83 8 0 14 45 10 77 -1 6 6 14 16 16 15
4 15 5 -2 6 -11 0 -25 -7 -30 -16z"/>
<path d="M1979 1099 c-12 -22 -5 -84 11 -94 5 -3 4 8 -1 25 -8 21 -8 39 0 60
12 35 7 40 -10 9z"/>
<path d="M2031 1093 c8 -24 8 -42 0 -65 -10 -30 -9 -31 4 -14 8 11 15 32 15
46 0 14 -7 35 -15 46 -13 17 -14 16 -4 -13z"/>
<path d="M1078 1098 c-9 -27 7 -73 27 -76 18 -2 19 -2 3 8 -10 6 -18 20 -18
30 0 12 7 20 18 21 13 0 14 2 2 6 -8 3 -18 10 -21 15 -3 5 -8 4 -11 -4z"/>
<path d="M1330 1065 c0 -25 5 -45 10 -45 6 0 10 10 10 23 0 12 3 32 6 45 5 16
2 22 -10 22 -12 0 -16 -10 -16 -45z"/>
<path d="M1389 1083 c-8 -22 -12 -25 -20 -13 -8 12 -10 11 -7 -4 5 -30 25 -30
34 1 8 28 8 27 14 -12 l7 -40 2 48 c1 52 -14 62 -30 20z"/>
<path d="M1628 1065 c-10 -25 -13 -45 -8 -45 6 0 10 5 10 10 0 6 11 10 25 10
14 0 25 -4 25 -10 0 -5 4 -10 9 -10 5 0 1 20 -8 45 -9 25 -21 45 -26 45 -6 0
-18 -20 -27 -45z m30 -4 c-15 -5 -19 4 -11 24 6 18 7 18 13 -1 4 -10 3 -21 -2
-23z"/>
<path d="M1710 1066 c0 -24 -3 -53 -6 -63 -5 -16 -4 -16 10 1 18 22 22 106 6
106 -5 0 -10 -20 -10 -44z"/>
<path d="M504 1076 c-11 -28 1 -51 26 -53 25 -3 25 -3 3 7 -13 5 -23 16 -23
25 0 9 10 20 23 25 l22 9 -23 0 c-12 1 -25 -5 -28 -13z"/>
<path d="M584 1076 c-11 -29 0 -51 26 -51 21 0 25 5 25 30 0 24 -5 31 -23 33
-13 2 -24 -3 -28 -12z m43 -12 c8 -21 -13 -42 -28 -27 -13 13 -5 43 11 43 6 0
13 -7 17 -16z"/>
<path d="M661 1053 c1 -36 2 -37 8 -8 8 40 38 46 44 8 4 -28 4 -28 3 2 -1 25
-6 31 -28 33 -26 3 -28 1 -27 -35z"/>
<path d="M783 1055 c0 -22 2 -30 4 -17 2 12 2 30 0 40 -3 9 -5 -1 -4 -23z"/>
<path d="M821 1053 c1 -27 3 -31 6 -13 2 14 12 31 21 38 14 11 13 12 -6 12
-19 0 -22 -5 -21 -37z"/>
<path d="M871 1052 c1 -36 2 -36 8 -7 9 43 39 45 44 3 l4 -33 1 33 c3 43 32
45 32 2 0 -16 5 -30 10 -30 12 0 13 40 2 56 -4 6 -28 12 -54 12 l-48 1 1 -37z"/>
<path d="M1018 1083 c27 -5 32 -53 6 -53 -10 0 -14 6 -10 15 3 8 1 15 -4 15
-6 0 -10 -9 -10 -20 0 -16 7 -20 31 -20 28 0 30 2 27 33 -3 28 -7 32 -33 34
-20 1 -23 0 -7 -4z"/>
<path d="M1133 1055 c0 -22 2 -30 4 -17 2 12 2 30 0 40 -3 9 -5 -1 -4 -23z"/>
<path d="M1174 1076 c-11 -29 0 -51 26 -51 21 0 25 5 25 30 0 24 -5 31 -23 33
-13 2 -24 -3 -28 -12z m43 -12 c8 -21 -13 -42 -28 -27 -13 13 -5 43 11 43 6 0
13 -7 17 -16z"/>
<path d="M1251 1053 c1 -36 2 -37 8 -8 8 40 38 46 44 8 4 -28 4 -28 3 2 -1 25
-6 31 -28 33 -26 3 -28 1 -27 -35z"/>
<path d="M1443 1055 c0 -22 2 -30 4 -17 2 12 2 30 0 40 -3 9 -5 -1 -4 -23z"/>
<path d="M1480 1074 c0 -9 9 -18 20 -21 26 -7 26 -20 0 -26 -18 -4 -18 -5 2
-3 29 1 36 26 9 33 -28 7 -27 20 2 26 19 4 18 4 -5 6 -20 1 -28 -4 -28 -15z"/>
<path d="M1544 1076 c-12 -30 0 -51 31 -53 18 -1 22 1 10 4 -34 9 -41 23 -11
23 21 0 27 4 24 18 -4 22 -46 29 -54 8z m46 -6 c0 -5 -9 -10 -21 -10 -11 0
-17 5 -14 10 3 6 13 10 21 10 8 0 14 -4 14 -10z"/>
<path d="M1754 1076 c-11 -29 0 -51 26 -51 21 0 25 5 25 30 0 24 -5 31 -23 33
-13 2 -24 -3 -28 -12z m43 -12 c8 -21 -13 -42 -28 -27 -13 13 -5 43 11 43 6 0
13 -7 17 -16z"/>
<path d="M1833 1060 c2 -31 5 -35 30 -36 25 -1 27 2 26 35 -1 36 -1 36 -8 6
-3 -17 -13 -30 -21 -30 -8 0 -18 13 -22 30 -6 29 -6 29 -5 -5z"/>
<path d="M1911 1053 c1 -27 3 -31 6 -13 2 14 12 31 21 38 14 11 13 12 -6 12
-19 0 -22 -5 -21 -37z"/>
<path d="M383 992 c-23 -9 -44 -20 -47 -23 -4 -3 17 -16 45 -28 58 -24 69 -23
39 4 l-20 18 22 24 c25 27 18 28 -39 5z"/>
<path d="M3447 793 c161 -2 425 -2 585 0 161 1 30 2 -292 2 -322 0 -453 -1
-293 -2z"/>
<path d="M5513 793 c70 -2 184 -2 255 0 70 1 12 3 -128 3 -140 0 -198 -2 -127
-3z"/>
<path d="M7553 793 c71 -2 183 -2 250 0 67 1 10 3 -128 3 -137 0 -192 -2 -122
-3z"/>
<path d="M60 720 l0 -50 38 1 c30 2 32 3 10 6 -26 4 -28 8 -28 49 0 24 -4 44
-10 44 -5 0 -10 -22 -10 -50z"/>
<path d="M181 744 c-2 -20 21 -74 30 -74 10 0 30 44 28 63 0 7 -7 -1 -14 -18
l-13 -30 -15 35 c-9 19 -16 30 -16 24z"/>
<path d="M278 743 c-13 -3 -18 -15 -18 -39 0 -19 5 -34 10 -34 6 0 10 13 10
30 0 17 7 33 18 39 18 11 10 12 -20 4z"/>
<path d="M330 736 c-6 -8 -10 -25 -8 -38 2 -18 10 -23 33 -25 25 -2 26 -1 7 5
-33 10 -32 26 1 30 29 4 34 11 15 30 -16 16 -33 15 -48 -2z m35 -6 c3 -5 -3
-10 -15 -10 -12 0 -18 5 -15 10 3 6 10 10 15 10 5 0 12 -4 15 -10z"/>
<path d="M403 715 c2 -37 4 -40 35 -43 31 -3 32 -2 32 32 0 20 -4 36 -10 36
-5 0 -10 -13 -10 -30 0 -39 -27 -41 -36 -2 -10 46 -13 49 -11 7z"/>
<path d="M508 743 c-13 -3 -18 -15 -18 -39 0 -19 5 -34 10 -34 6 0 10 13 10
30 0 17 7 33 18 39 18 11 10 12 -20 4z"/>
<path d="M140 705 c0 -19 5 -35 10 -35 6 0 10 16 10 35 0 19 -4 35 -10 35 -5
0 -10 -16 -10 -35z"/>
<path d="M3220 650 c0 -49 1 -50 29 -50 35 0 61 23 61 54 0 31 -19 46 -57 46
-33 0 -33 0 -33 -50z m68 6 c4 -28 -10 -46 -35 -46 -8 0 -13 15 -13 41 0 36 2
40 23 37 16 -2 23 -11 25 -32z"/>
<path d="M3410 650 c0 -27 5 -50 10 -50 6 0 10 23 10 50 0 28 -4 50 -10 50 -5
0 -10 -22 -10 -50z"/>
<path d="M3800 651 c0 -28 5 -51 10 -51 6 0 10 9 10 19 0 12 9 21 26 25 19 5
25 12 22 29 -2 17 -11 23 -35 25 l-33 3 0 -50z m48 22 c-5 -25 -28 -28 -28 -4
0 12 6 21 16 21 9 0 14 -7 12 -17z"/>
<path d="M5452 688 c-7 -7 -12 -24 -12 -38 0 -31 17 -50 45 -50 28 0 45 19 45
50 0 31 -17 50 -45 50 -12 0 -26 -5 -33 -12z m58 -13 c16 -19 -2 -65 -25 -65
-23 0 -41 46 -25 65 7 8 18 15 25 15 7 0 18 -7 25 -15z"/>
<path d="M5660 687 c0 -8 -10 -13 -22 -13 -20 1 -23 -4 -23 -34 0 -32 3 -35
33 -38 l32 -3 0 50 c0 28 -4 51 -10 51 -5 0 -10 -6 -10 -13z m-2 -50 c2 -19
-1 -27 -13 -27 -19 0 -30 24 -21 46 9 23 31 11 34 -19z"/>
<path d="M7492 688 c-7 -7 -12 -24 -12 -38 0 -14 5 -31 12 -38 14 -14 68 -16
68 -3 0 4 -11 6 -25 4 -19 -4 -27 0 -36 21 -15 33 4 60 38 53 13 -2 23 0 23 4
0 13 -54 11 -68 -3z"/>
<path d="M7580 650 c0 -27 5 -50 10 -50 6 0 10 23 10 50 0 28 -4 50 -10 50 -5
0 -10 -22 -10 -50z"/>
<path d="M7832 653 c2 -39 7 -48 23 -50 11 -2 14 0 8 3 -16 7 -17 64 -2 64 6
0 4 7 -5 15 -23 24 -27 18 -24 -32z"/>
<path d="M3340 666 c-6 -8 -10 -25 -8 -38 2 -18 10 -23 33 -25 18 -1 22 1 10
4 -34 9 -41 23 -13 23 32 0 44 16 28 35 -16 19 -34 19 -50 1z m35 -6 c3 -6 -4
-10 -17 -10 -18 0 -20 2 -8 10 19 12 18 12 25 0z"/>
<path d="M3450 641 c0 -23 5 -41 10 -41 6 0 10 15 10 34 0 19 -4 38 -10 41 -6
4 -10 -10 -10 -34z"/>
<path d="M3491 674 c-2 -22 22 -75 32 -71 10 3 40 77 31 77 -3 0 -11 -15 -19
-32 l-13 -33 -15 35 c-9 19 -16 30 -16 24z"/>
<path d="M3580 666 c-6 -8 -10 -25 -8 -38 2 -18 10 -23 33 -25 18 -1 22 1 10
4 -34 9 -41 23 -13 23 32 0 44 16 28 35 -16 19 -34 19 -50 1z m35 -6 c3 -6 -4
-10 -17 -10 -18 0 -20 2 -8 10 19 12 18 12 25 0z"/>
<path d="M3660 638 c0 -21 5 -38 10 -38 6 0 10 13 10 30 0 17 7 33 17 39 14 7
12 9 -10 8 -24 -2 -27 -6 -27 -39z"/>
<path d="M3721 676 c-1 -5 4 -26 11 -48 10 -33 9 -41 -3 -49 -8 -5 -9 -9 -3
-9 16 0 28 18 48 70 13 37 14 42 1 26 -8 -11 -15 -23 -15 -28 0 -18 -17 -6
-27 20 -6 15 -11 23 -12 18z"/>
<path d="M3890 666 c-6 -8 -10 -25 -8 -38 2 -18 10 -23 33 -25 18 -1 22 1 10
4 -34 9 -41 23 -13 23 32 0 44 16 28 35 -16 19 -34 19 -50 1z m35 -6 c3 -6 -4
-10 -17 -10 -18 0 -20 2 -8 10 19 12 18 12 25 0z"/>
<path d="M3970 638 c0 -21 5 -38 10 -38 6 0 10 13 10 30 0 17 7 33 17 39 14 7
12 9 -10 8 -24 -2 -27 -6 -27 -39z"/>
<path d="M4037 673 c-13 -13 -7 -32 13 -38 27 -8 25 -22 -2 -28 -16 -4 -14 -5
6 -4 38 2 45 23 12 38 -26 12 -26 35 0 25 8 -3 14 -1 14 4 0 11 -33 14 -43 3z"/>
<path d="M4111 666 c-21 -25 -10 -61 18 -61 31 0 50 28 35 53 -15 23 -38 26
-53 8z m37 -29 c2 -19 -1 -27 -12 -27 -20 0 -29 16 -21 41 9 27 29 19 33 -14z"/>
<path d="M4190 638 c0 -46 18 -51 22 -5 2 17 8 32 13 32 6 0 11 -15 13 -32 4
-41 22 -44 22 -4 0 33 -13 46 -47 46 -20 1 -23 -4 -23 -37z"/>
<path d="M5550 638 c0 -21 5 -38 10 -38 6 0 10 13 10 30 0 17 7 33 17 39 14 7
12 9 -10 8 -24 -2 -27 -6 -27 -39z"/>
<path d="M5710 666 c-6 -8 -10 -25 -8 -38 2 -18 10 -23 33 -25 18 -1 22 1 10
4 -34 9 -41 23 -13 23 32 0 44 16 28 35 -16 19 -34 19 -50 1z m35 -6 c3 -6 -4
-10 -17 -10 -18 0 -20 2 -8 10 19 12 18 12 25 0z"/>
<path d="M5790 638 c0 -21 5 -38 10 -38 6 0 10 13 10 30 0 17 7 33 17 39 14 7
12 9 -10 8 -24 -2 -27 -6 -27 -39z"/>
<path d="M7620 641 c0 -23 5 -41 10 -41 6 0 10 15 10 34 0 19 -4 38 -10 41 -6
4 -10 -10 -10 -34z"/>
<path d="M7670 666 c-6 -8 -10 -25 -8 -38 2 -18 10 -23 33 -25 18 -1 22 1 10
4 -34 9 -41 23 -13 23 32 0 44 16 28 35 -16 19 -34 19 -50 1z m35 -6 c3 -6 -4
-10 -17 -10 -18 0 -20 2 -8 10 19 12 18 12 25 0z"/>
<path d="M7740 638 c0 -46 18 -51 22 -5 2 17 8 32 13 32 6 0 11 -15 13 -32 4
-41 22 -44 22 -4 0 33 -13 46 -47 46 -20 1 -23 -4 -23 -37z"/>
<path d="M265 500 c10 -11 20 -20 23 -20 3 0 -3 9 -13 20 -10 11 -20 20 -23
20 -3 0 3 -9 13 -20z"/>
<path d="M374 498 l-19 -23 23 19 c21 18 27 26 19 26 -2 0 -12 -10 -23 -22z"/>
<path d="M316 202 c-3 -5 1 -9 9 -9 8 0 12 4 9 9 -3 4 -7 8 -9 8 -2 0 -6 -4
-9 -8z"/>
</g>
</svg>
